<svg width="251" height="382" viewBox="0 0 251 382" fill="none" xmlns="http://www.w3.org/2000/svg">
<path d="M125.662 381.098C56.7407 381.098 0.680634 324.969 0.680634 255.963V125.279C0.680634 56.2735 56.7407 0.144653 125.662 0.144653C194.583 0.144653 250.643 56.2735 250.643 125.279V255.963C250.643 324.969 194.583 381.098 125.662 381.098Z" fill="white"/>
<path d="M237.249 125.299C237.249 63.5845 187.285 13.5549 125.652 13.5549C64.0185 13.5549 14.0546 63.5845 14.0546 125.299V255.963C14.0546 317.678 64.0185 367.708 125.652 367.708C187.285 367.708 237.249 317.678 237.249 255.963V125.299Z" fill="#FFDDDD"/>
<path d="M34.1154 131.915V234.179" stroke="#F27E73" stroke-width="1.97498" stroke-linecap="round" stroke-linejoin="round"/>
<path d="M217.188 131.915V234.179" stroke="#F27E73" stroke-width="1.97498" stroke-linecap="round" stroke-linejoin="round"/>
<path d="M99.0124 157.511C83.5672 162.508 76.5055 168.235 75.0261 185.595C73.0732 208.465 85.6384 243.541 111.972 247.195C118.975 248.162 116.292 246.01 135.682 248.044C142.921 248.814 149.944 247.353 155.566 242.474C162.272 236.648 172.806 217.096 174.66 200.348C176.554 183.245 170.675 167.267 155.447 158.261C150.062 155.082 117.377 151.566 98.9926 157.511H99.0124Z" fill="#F2675A" stroke="#03403F" stroke-width="0.987488" stroke-linecap="round" stroke-linejoin="round"/>
<path d="M103.214 160.118C115.227 165.905 129.922 165.727 141.797 159.664" stroke="#03403F" stroke-width="0.987488" stroke-linecap="round" stroke-linejoin="round"/>
<path d="M104.792 144.91C101.202 142.007 111.065 137.267 117.239 153.264C118.639 152.237 120.908 152.711 122.94 144.752C126.766 129.703 139.667 126.819 153.889 127.866C154.027 127.866 167.835 128.893 168.229 129.387C169.295 130.69 166.277 143.113 153.08 148.603C140.791 153.719 128.226 150.401 125.188 151.151C122.407 151.823 120.809 154.805 118.205 155.99C119.961 158.399 121.342 161.48 122.506 164.344C122.506 164.344 119.823 164.463 119.468 164.305C117.91 163.594 116.095 154.035 104.772 144.91H104.792Z" fill="#048C3D" stroke="#03403F" stroke-width="0.987488" stroke-linecap="round" stroke-linejoin="round"/>
<path d="M165.685 130.118C144.105 136.181 125.78 145.088 122.506 150.796" stroke="#03403F" stroke-width="0.987488" stroke-linecap="round" stroke-linejoin="round"/>
<path d="M158.86 129.644C155.625 130.177 153.08 132.626 150.753 134.957C152.903 135.608 155.132 136.043 157.38 135.984C159.629 135.925 161.898 135.372 163.772 134.127" stroke="#03403F" stroke-width="0.987488" stroke-linecap="round" stroke-linejoin="round"/>
<path d="M151.127 129.13C147.636 130.493 144.934 133.693 144.164 137.346C149.017 140.151 154.856 141.217 160.398 140.309" stroke="#03403F" stroke-width="0.987488" stroke-linecap="round" stroke-linejoin="round"/>
<path d="M144.519 129.012C140.495 132.132 137.438 136.497 135.919 141.355C140.969 144.496 147.182 145.72 153.06 144.733" stroke="#03403F" stroke-width="0.987488" stroke-linecap="round" stroke-linejoin="round"/>
<path d="M139.016 130.315C134.104 133.732 130.593 139.104 129.449 144.989C133.946 147.221 139.154 147.991 144.105 147.162" stroke="#03403F" stroke-width="0.987488" stroke-linecap="round" stroke-linejoin="round"/>
<path d="M129.41 137.03C127.871 138.176 126.983 139.993 126.273 141.77C125.366 144.022 124.616 146.333 124.044 148.683C127.339 149.71 130.83 150.065 134.242 149.729" stroke="#03403F" stroke-width="0.987488" stroke-linecap="round" stroke-linejoin="round"/>
<path d="M169.748 199.084C169.453 206.135 166.711 212.85 163.949 219.347C161.858 224.245 159.708 229.183 156.631 233.547C153.554 237.912 149.451 241.704 144.441 243.521" stroke="#03403F" stroke-width="0.987488" stroke-linecap="round" stroke-linejoin="round"/>
<path d="M162.055 212.948C160.162 219.13 157.321 225.015 153.672 230.348C152.311 232.323 150.753 234.318 148.524 235.206" stroke="#03403F" stroke-width="0.987488" stroke-linecap="round" stroke-linejoin="round"/>
<g opacity="0.2">
<path d="M135.288 166.378C126.017 164.68 117.279 168.294 107.889 165.114C64.4535 150.361 89.8995 218.142 89.6431 207.833C89.3669 197.445 86.9998 173.666 98.0659 173.587C99.2691 173.587 125.149 188.32 137.339 174.16C139.411 171.75 138.996 167.07 135.288 166.378Z" fill="white"/>
<path d="M112.485 233.745C111.795 233.054 97.4148 223.277 96.5074 222.882C90.2742 220.295 101.064 243.837 112.051 237.122C113.235 236.411 113.491 234.732 112.485 233.745Z" fill="white"/>
</g>
<path d="M113.393 86.6732C113.393 87.41 113.203 88.0656 112.824 88.6399C112.445 89.2034 111.903 89.6477 111.198 89.9728C110.505 90.2979 109.665 90.4604 108.679 90.4604C107.704 90.4604 106.853 90.2979 106.127 89.9728C105.412 89.6369 104.849 89.1655 104.437 88.5587C104.025 87.9519 103.787 87.2367 103.722 86.4131H106.225C106.257 87.0633 106.474 87.578 106.875 87.9573C107.287 88.3365 107.872 88.5262 108.63 88.5262C109.053 88.5262 109.421 88.4666 109.736 88.3474C110.061 88.2282 110.315 88.0548 110.5 87.8272C110.684 87.5997 110.776 87.3342 110.776 87.0308C110.776 86.6624 110.64 86.3698 110.37 86.1531C110.099 85.9255 109.714 85.763 109.215 85.6654L107.298 85.2916C106.853 85.2158 106.441 85.0911 106.062 84.9178C105.683 84.7444 105.352 84.5277 105.071 84.2676C104.789 84.0075 104.567 83.6933 104.404 83.3249C104.242 82.9564 104.16 82.5338 104.16 82.057C104.16 81.3635 104.345 80.7459 104.713 80.2041C105.092 79.6623 105.607 79.2397 106.257 78.9363C106.918 78.6329 107.671 78.4812 108.517 78.4812C109.394 78.4812 110.174 78.6437 110.857 78.9688C111.54 79.2939 112.092 79.7544 112.515 80.3504C112.938 80.9355 113.171 81.6344 113.214 82.4471H110.711C110.689 82.0354 110.581 81.6778 110.386 81.3744C110.202 81.0601 109.952 80.8217 109.638 80.6592C109.324 80.4858 108.961 80.3991 108.549 80.3991C108.148 80.3991 107.807 80.4696 107.525 80.6104C107.254 80.7405 107.043 80.9193 106.891 81.1468C106.739 81.3635 106.664 81.6128 106.664 81.8945C106.664 82.1546 106.734 82.3713 106.875 82.5447C107.027 82.718 107.222 82.8589 107.46 82.9673C107.698 83.0648 107.959 83.1407 108.24 83.1948L110.239 83.6012C111.269 83.8071 112.049 84.1592 112.58 84.6577C113.122 85.1453 113.393 85.8172 113.393 86.6732ZM117.279 90.2979H115.02V81.6182H117.279V90.2979ZM117.636 79.6027C117.636 79.9819 117.496 80.3016 117.214 80.5617C116.943 80.8109 116.58 80.9355 116.125 80.9355C115.681 80.9355 115.318 80.8109 115.036 80.5617C114.765 80.3016 114.629 79.9819 114.629 79.6027C114.629 79.2018 114.765 78.8767 115.036 78.6274C115.318 78.3674 115.681 78.2373 116.125 78.2373C116.58 78.2373 116.943 78.3674 117.214 78.6274C117.496 78.8767 117.636 79.2018 117.636 79.6027ZM118.721 85.958C118.721 85.102 118.878 84.3326 119.192 83.6499C119.517 82.9673 119.967 82.4309 120.541 82.0408C121.126 81.6507 121.803 81.4556 122.573 81.4556C123.093 81.4556 123.57 81.564 124.003 81.7807C124.437 81.9975 124.816 82.3171 125.141 82.7397V78.6274H127.384V90.2979H125.32V89.0463C124.973 89.4906 124.567 89.8373 124.101 90.0865C123.646 90.3358 123.136 90.4604 122.573 90.4604C121.803 90.4604 121.126 90.2653 120.541 89.8752C119.967 89.4743 119.517 88.9325 119.192 88.2498C118.878 87.5672 118.721 86.8032 118.721 85.958ZM121.045 85.958C121.045 86.7707 121.245 87.3884 121.646 87.811C122.047 88.2336 122.524 88.4449 123.077 88.4449C123.456 88.4449 123.797 88.3474 124.101 88.1523C124.415 87.9573 124.664 87.6755 124.848 87.3071C125.033 86.9278 125.125 86.4673 125.125 85.9255C125.125 85.3837 125.027 84.9286 124.832 84.5602C124.648 84.1917 124.399 83.9154 124.084 83.7312C123.781 83.547 123.445 83.4549 123.077 83.4549C122.524 83.4549 122.047 83.6662 121.646 84.0888C121.245 84.5006 121.045 85.1236 121.045 85.958ZM131.66 86.0881V90.2979H129.401V81.6182H131.481V83.2924C131.806 82.7397 132.278 82.3063 132.895 81.992C133.513 81.6778 134.168 81.5207 134.862 81.5207V83.8612C134.233 83.8179 133.675 83.8504 133.188 83.9588C132.711 84.0563 132.337 84.2784 132.066 84.6252C131.795 84.9611 131.66 85.4487 131.66 86.0881ZM139.743 90.4441C138.876 90.4441 138.112 90.2599 137.451 89.8915C136.801 89.5122 136.297 88.9813 135.94 88.2986C135.582 87.6159 135.403 86.8249 135.403 85.9255C135.403 85.0586 135.587 84.2893 135.956 83.6174C136.324 82.9456 136.834 82.4201 137.484 82.0408C138.134 81.6507 138.876 81.4556 139.71 81.4556C140.393 81.4556 141.011 81.5857 141.563 81.8457C142.127 82.095 142.598 82.4526 142.978 82.9185C143.357 83.3845 143.628 83.9263 143.79 84.5439C143.953 85.1507 143.98 85.8063 143.872 86.5107H136.736V85.0803H141.482C141.461 84.4735 141.282 83.9967 140.946 83.6499C140.621 83.2924 140.193 83.1136 139.662 83.1136C139.239 83.1136 138.882 83.2219 138.589 83.4386C138.296 83.6554 138.069 83.975 137.906 84.3976C137.755 84.8094 137.679 85.3187 137.679 85.9255C137.679 86.5215 137.755 87.0254 137.906 87.4371C138.058 87.8489 138.286 88.1632 138.589 88.3799C138.892 88.5966 139.261 88.705 139.694 88.705C140.193 88.705 140.604 88.5858 140.93 88.3474C141.255 88.109 141.482 87.7785 141.612 87.3559H143.855C143.606 88.3311 143.124 89.0896 142.409 89.6314C141.693 90.1732 140.805 90.4441 139.743 90.4441Z" fill="#03403F"/>
<path d="M84.7247 107.064V109.03C84.4538 109.171 84.1775 109.269 83.8958 109.323C83.6249 109.388 83.3215 109.42 82.9855 109.42C82.4004 109.42 81.8857 109.312 81.4414 109.095C81.008 108.868 80.672 108.532 80.4337 108.088C80.1953 107.633 80.0761 107.085 80.0761 106.446V102.513H78.3206V100.578H80.0761V98.0101H82.3191V100.578H84.806V102.513H82.3191V105.926C82.3191 106.424 82.4275 106.787 82.6442 107.015C82.8718 107.232 83.186 107.34 83.5869 107.34C83.8037 107.34 84.0095 107.318 84.2046 107.275C84.3996 107.221 84.573 107.15 84.7247 107.064ZM88.4449 105.048V109.258H86.1856V100.578H88.2661V102.252C88.5912 101.7 89.0625 101.266 89.6802 100.952C90.2978 100.638 90.9534 100.481 91.6469 100.481V102.821C91.0184 102.778 90.4604 102.81 89.9727 102.919C89.496 103.016 89.1221 103.239 88.8512 103.585C88.5803 103.921 88.4449 104.409 88.4449 105.048ZM97.9893 109.258V108.185C97.7076 108.586 97.35 108.895 96.9165 109.112C96.4831 109.318 95.9684 109.42 95.3724 109.42C94.473 109.42 93.747 109.177 93.1943 108.689C92.6417 108.201 92.3654 107.551 92.3654 106.739C92.3654 105.893 92.7013 105.249 93.3731 104.804C94.045 104.36 95.0094 104.138 96.2664 104.138C96.5156 104.138 96.754 104.149 96.9815 104.17C97.2091 104.181 97.4529 104.203 97.713 104.235V103.715C97.713 103.228 97.5829 102.848 97.3229 102.578C97.0628 102.307 96.6944 102.171 96.2176 102.171C95.73 102.171 95.3453 102.307 95.0636 102.578C94.7818 102.848 94.6193 103.228 94.5759 103.715H92.5442C92.5875 103.043 92.7663 102.464 93.0806 101.976C93.4057 101.478 93.8337 101.093 94.3646 100.822C94.9064 100.551 95.5241 100.416 96.2176 100.416C97.3554 100.416 98.2385 100.714 98.867 101.31C99.5063 101.906 99.826 102.735 99.826 103.797V109.258H97.9893ZM94.4947 106.674C94.4947 107.031 94.6139 107.318 94.8523 107.535C95.1015 107.752 95.4374 107.86 95.86 107.86C96.4343 107.86 96.884 107.714 97.2091 107.421C97.545 107.118 97.713 106.717 97.713 106.218V105.601C97.4529 105.557 97.2199 105.53 97.0141 105.52C96.8082 105.498 96.6077 105.487 96.4127 105.487C95.7842 105.487 95.3074 105.585 94.9823 105.78C94.6572 105.975 94.4947 106.273 94.4947 106.674ZM101.204 104.918C101.204 104.062 101.361 103.293 101.675 102.61C102 101.927 102.45 101.391 103.024 101.001C103.61 100.611 104.287 100.416 105.056 100.416C105.576 100.416 106.053 100.524 106.487 100.741C106.92 100.958 107.299 101.277 107.624 101.7V97.5875H109.867V109.258H107.803V108.006C107.456 108.451 107.05 108.797 106.584 109.047C106.129 109.296 105.62 109.42 105.056 109.42C104.287 109.42 103.61 109.225 103.024 108.835C102.45 108.434 102 107.893 101.675 107.21C101.361 106.527 101.204 105.763 101.204 104.918ZM103.528 104.918C103.528 105.731 103.729 106.348 104.13 106.771C104.531 107.194 105.007 107.405 105.56 107.405C105.939 107.405 106.281 107.307 106.584 107.112C106.898 106.917 107.148 106.636 107.332 106.267C107.516 105.888 107.608 105.427 107.608 104.886C107.608 104.344 107.511 103.889 107.316 103.52C107.131 103.152 106.882 102.876 106.568 102.691C106.264 102.507 105.929 102.415 105.56 102.415C105.007 102.415 104.531 102.626 104.13 103.049C103.729 103.461 103.528 104.084 103.528 104.918ZM114.143 109.258H111.884V100.578H114.143V109.258ZM114.501 98.5628C114.501 98.942 114.36 99.2617 114.078 99.5218C113.807 99.771 113.444 99.8956 112.989 99.8956C112.545 99.8956 112.182 99.771 111.9 99.5218C111.629 99.2617 111.494 98.942 111.494 98.5628C111.494 98.1618 111.629 97.8368 111.9 97.5875C112.182 97.3275 112.545 97.1974 112.989 97.1974C113.444 97.1974 113.807 97.3275 114.078 97.5875C114.36 97.8368 114.501 98.1618 114.501 98.5628ZM121.55 107.064V109.03C121.279 109.171 121.003 109.269 120.721 109.323C120.45 109.388 120.147 109.42 119.811 109.42C119.226 109.42 118.711 109.312 118.267 109.095C117.834 108.868 117.498 108.532 117.259 108.088C117.021 107.633 116.902 107.085 116.902 106.446V102.513H115.146V100.578H116.902V98.0101H119.145V100.578H121.632V102.513H119.145V105.926C119.145 106.424 119.253 106.787 119.47 107.015C119.697 107.232 120.012 107.34 120.413 107.34C120.629 107.34 120.835 107.318 121.03 107.275C121.225 107.221 121.399 107.15 121.55 107.064ZM125.27 109.258H123.011V100.578H125.27V109.258ZM125.628 98.5628C125.628 98.942 125.487 99.2617 125.205 99.5218C124.935 99.771 124.572 99.8956 124.116 99.8956C123.672 99.8956 123.309 99.771 123.027 99.5218C122.756 99.2617 122.621 98.942 122.621 98.5628C122.621 98.1618 122.756 97.8368 123.027 97.5875C123.309 97.3275 123.672 97.1974 124.116 97.1974C124.572 97.1974 124.935 97.3275 125.205 97.5875C125.487 97.8368 125.628 98.1618 125.628 98.5628ZM131.117 109.42C130.488 109.42 129.903 109.307 129.362 109.079C128.831 108.852 128.365 108.532 127.964 108.12C127.574 107.708 127.265 107.232 127.037 106.69C126.82 106.137 126.712 105.547 126.712 104.918C126.712 104.279 126.82 103.688 127.037 103.146C127.265 102.605 127.574 102.128 127.964 101.716C128.365 101.304 128.831 100.985 129.362 100.757C129.903 100.53 130.488 100.416 131.117 100.416C131.745 100.416 132.325 100.53 132.856 100.757C133.398 100.985 133.864 101.304 134.254 101.716C134.655 102.128 134.964 102.605 135.18 103.146C135.408 103.688 135.522 104.279 135.522 104.918C135.522 105.547 135.408 106.137 135.18 106.69C134.964 107.232 134.655 107.708 134.254 108.12C133.864 108.532 133.398 108.852 132.856 109.079C132.325 109.307 131.745 109.42 131.117 109.42ZM131.117 107.421C131.496 107.421 131.843 107.324 132.157 107.129C132.471 106.934 132.721 106.652 132.905 106.283C133.1 105.904 133.197 105.449 133.197 104.918C133.197 104.376 133.1 103.921 132.905 103.553C132.721 103.184 132.471 102.908 132.157 102.724C131.843 102.529 131.496 102.431 131.117 102.431C130.749 102.431 130.402 102.529 130.077 102.724C129.762 102.908 129.508 103.184 129.313 103.553C129.129 103.921 129.036 104.376 129.036 104.918C129.036 105.449 129.129 105.904 129.313 106.283C129.508 106.652 129.762 106.934 130.077 107.129C130.402 107.324 130.749 107.421 131.117 107.421ZM139.223 104.528V109.258H136.964V100.578H139.044V101.814C139.369 101.38 139.748 101.039 140.182 100.79C140.626 100.54 141.135 100.416 141.71 100.416C142.587 100.416 143.297 100.697 143.839 101.261C144.381 101.814 144.652 102.61 144.652 103.65V109.258H142.409V104.414C142.409 103.764 142.279 103.271 142.019 102.935C141.769 102.588 141.39 102.415 140.881 102.415C140.577 102.415 140.296 102.496 140.036 102.659C139.786 102.81 139.586 103.043 139.434 103.358C139.293 103.661 139.223 104.051 139.223 104.528ZM148.858 104.528V109.258H146.599V100.578H148.679V101.814C149.004 101.38 149.383 101.039 149.817 100.79C150.261 100.54 150.77 100.416 151.345 100.416C152.222 100.416 152.932 100.697 153.474 101.261C154.016 101.814 154.287 102.61 154.287 103.65V109.258H152.044V104.414C152.044 103.764 151.914 103.271 151.654 102.935C151.404 102.588 151.025 102.415 150.516 102.415C150.212 102.415 149.931 102.496 149.671 102.659C149.421 102.81 149.221 103.043 149.069 103.358C148.928 103.661 148.858 104.051 148.858 104.528ZM160.004 109.404C159.138 109.404 158.374 109.22 157.713 108.852C157.062 108.472 156.559 107.941 156.201 107.259C155.843 106.576 155.665 105.785 155.665 104.886C155.665 104.019 155.849 103.249 156.217 102.578C156.586 101.906 157.095 101.38 157.745 101.001C158.395 100.611 159.138 100.416 159.972 100.416C160.655 100.416 161.272 100.546 161.825 100.806C162.388 101.055 162.86 101.413 163.239 101.879C163.618 102.345 163.889 102.886 164.052 103.504C164.214 104.111 164.241 104.766 164.133 105.471H156.997V104.04H161.744C161.722 103.434 161.543 102.957 161.207 102.61C160.882 102.252 160.454 102.074 159.923 102.074C159.501 102.074 159.143 102.182 158.85 102.399C158.558 102.615 158.33 102.935 158.168 103.358C158.016 103.769 157.94 104.279 157.94 104.886C157.94 105.482 158.016 105.985 158.168 106.397C158.319 106.809 158.547 107.123 158.85 107.34C159.154 107.557 159.522 107.665 159.956 107.665C160.454 107.665 160.866 107.546 161.191 107.307C161.516 107.069 161.744 106.739 161.874 106.316H164.117C163.868 107.291 163.385 108.05 162.67 108.592C161.955 109.133 161.066 109.404 160.004 109.404ZM167.922 109.258H165.646V97.5875H167.922V109.258Z" fill="#03403F"/>
<path d="M51.1355 114.696L49.9847 120.269L25.093 115.117L26.2438 109.543L51.1355 114.696ZM44.9315 97.8366L41.019 116.786L36.0406 115.756L39.9532 96.8062L44.9315 97.8366ZM34.4583 95.0877L30.4307 114.594L25.4152 113.556L29.4428 94.0496L34.4583 95.0877Z" fill="#F2675A"/>
<path d="M57.7689 92.5765L54.8969 97.4895L32.9658 84.6378L40.0501 72.519C41.1096 70.7066 42.2713 69.3207 43.5354 68.3611C44.7777 67.3887 46.0812 66.8628 47.4462 66.7831C48.8111 66.7035 50.1919 67.0729 51.5885 67.8914C52.7887 68.5947 53.6803 69.425 54.2633 70.3823C54.8463 71.3395 55.1316 72.4302 55.1192 73.6542C55.085 74.8654 54.7313 76.1972 54.0581 77.6496L54.3199 77.803C55.1562 76.9739 55.9766 76.4726 56.7811 76.2991C57.5857 76.1256 58.4911 76.0552 59.4974 76.0879L67.2466 76.3636L63.915 82.0627L56.458 81.7384C55.7119 81.7116 55.0795 81.766 54.5607 81.9017C54.0419 82.0375 53.5639 82.329 53.1266 82.7763C52.6802 83.189 52.2082 83.8212 51.7103 84.6728L49.8148 87.9154L57.7689 92.5765ZM40.2568 82.3143L46.116 85.7478L50.3091 78.5748C50.9856 77.4175 51.2871 76.4508 51.2134 75.6748C51.1179 74.8859 50.4918 74.1526 49.3353 73.4748C48.2442 72.8354 47.3318 72.6672 46.598 72.9701C45.8425 73.2603 45.1264 73.984 44.4499 75.1413L40.2568 82.3143Z" fill="#F2675A"/>
<path d="M77.6369 67.9837C75.5279 69.7593 73.4825 70.9028 71.5007 71.414C69.5189 71.9253 67.6414 71.8528 65.8682 71.1966C64.095 70.5404 62.4764 69.3407 61.0124 67.5976L51.4965 56.2672L55.8499 52.6019L65.0974 63.6128C66.0246 64.7168 66.9277 65.4774 67.8066 65.8947C68.6886 66.2762 69.6289 66.2947 70.6275 65.9499C71.6291 65.5694 72.7781 64.8335 74.0745 63.7421C75.4095 62.6181 76.3405 61.6028 76.8674 60.6964C77.378 59.7705 77.5115 58.848 77.268 57.9289C77.0083 56.9904 76.4148 55.9691 75.4876 54.8651L66.2401 43.8543L70.5935 40.189L80.1095 51.5195C81.5734 53.2626 82.4761 55.065 82.8176 56.9267C83.159 58.7883 82.9082 60.6527 82.065 62.5197C81.2413 64.3705 79.7652 66.1918 77.6369 67.9837Z" fill="#F2675A"/>
<path d="M95.0281 56.5351L89.9298 59.0635L78.6584 36.2797L83.7568 33.7513L95.0281 56.5351Z" fill="#F2675A"/>
<path d="M111.324 51.3692L105.782 52.6664L100.002 27.913L105.543 26.6159L111.324 51.3692ZM115.906 29.4502L91.9685 35.0539L90.8037 30.0663L114.741 24.4626L115.906 29.4502Z" fill="#F2675A"/>
<path d="M141.481 52.1133C138.76 51.5365 136.506 50.5161 134.722 49.0521C132.967 47.5686 131.747 45.7587 131.061 43.6226C130.405 41.4669 130.352 39.0899 130.901 36.4916C131.45 33.8933 132.458 31.7541 133.925 30.0741C135.422 28.3746 137.27 27.215 139.469 26.5951C141.698 25.9557 144.174 25.9244 146.895 26.5012C149.493 27.0517 151.646 27.9345 153.354 29.1496C155.087 30.37 156.313 31.845 157.033 33.5747C157.754 35.3045 157.889 37.2334 157.439 39.3616L157.321 39.9183L151.123 38.6049L151.241 38.0481C151.586 36.4149 151.335 35.0948 150.488 34.088C149.666 33.0864 148.129 32.347 145.877 31.8699C144.071 31.4871 142.558 31.4252 141.34 31.6842C140.152 31.9237 139.196 32.5354 138.471 33.5194C137.751 34.4786 137.195 35.8862 136.802 37.7421C136.415 39.5733 136.354 41.0858 136.619 42.2795C136.884 43.4731 137.508 44.4328 138.492 45.1584C139.506 45.8645 140.916 46.409 142.723 46.7917C144.974 47.2689 146.679 47.2164 147.836 46.6342C149.018 46.0573 149.781 44.9523 150.126 43.319L150.244 42.7622L156.442 44.0757L156.325 44.6325C155.88 46.7359 154.976 48.4446 153.612 49.7586C152.254 51.0479 150.536 51.899 148.458 52.3119C146.405 52.73 144.079 52.6638 141.481 52.1133Z" fill="#F2675A"/>
<path d="M161.13 58.9397L156.022 56.4327L167.197 33.602L172.306 36.109L161.13 58.9397Z" fill="#F2675A"/>
<path d="M173.841 67.6407L165.656 60.7501L168.95 56.828L177.135 63.7187C178.47 64.8427 179.664 65.5837 180.718 65.9417C181.807 66.2966 182.885 66.2124 183.952 65.689C185.055 65.1626 186.257 64.1247 187.558 62.5752C188.876 61.0064 189.691 59.6427 190.003 58.4841C190.335 57.3417 190.225 56.2735 189.672 55.2794C189.156 54.2823 188.23 53.2217 186.895 52.0977L178.71 45.2071L182.004 41.285L190.189 48.1756C192.278 49.935 193.752 51.8373 194.611 53.8826C195.489 55.9443 195.734 58.0516 195.346 60.2047C194.958 62.3578 193.91 64.4512 192.202 66.4848C190.494 68.5185 188.614 69.9114 186.562 70.6635C184.51 71.4157 182.394 71.5357 180.215 71.0235C178.055 70.5276 175.93 69.4 173.841 67.6407ZM168.82 63.4135L164.466 59.7483L180.814 40.2832L185.168 43.9484L168.82 63.4135Z" fill="#F2675A"/>
<path d="M187.739 82.758L184.825 77.8702L206.643 64.8274L209.557 69.7152L187.739 82.758ZM195.842 96.346L185.641 79.2388L190.037 76.6107L200.239 93.718L195.842 96.346ZM204.343 90.6012L194.433 73.9827L198.797 71.3742L208.707 87.9926L204.343 90.6012ZM213.264 85.9312L203.063 68.824L207.459 66.196L217.66 83.3032L213.264 85.9312Z" fill="#F2675A"/>
<path d="M197.83 103.686L196.636 98.1222L221.486 92.7745L224.432 106.499C224.873 108.552 224.95 110.359 224.665 111.921C224.404 113.478 223.797 114.747 222.844 115.728C221.89 116.71 220.622 117.371 219.04 117.711C217.68 118.004 216.462 117.994 215.386 117.682C214.31 117.371 213.364 116.759 212.548 115.848C211.756 114.932 211.119 113.711 210.636 112.185L210.339 112.249C210.281 113.425 210.014 114.35 209.537 115.021C209.061 115.693 208.44 116.357 207.676 117.013L201.772 122.048L200.386 115.594L206.107 110.792C206.676 110.308 207.106 109.84 207.397 109.389C207.688 108.938 207.844 108.4 207.865 107.775C207.916 107.169 207.838 106.384 207.631 105.419L206.843 101.747L197.83 103.686ZM217.673 99.4162L211.034 100.845L212.778 108.968C213.059 110.279 213.489 111.196 214.067 111.718C214.669 112.235 215.626 112.353 216.936 112.071C218.173 111.805 218.959 111.312 219.296 110.593C219.658 109.868 219.699 108.85 219.417 107.54L217.673 99.4162Z" fill="#F2675A"/>
<path d="M29.8486 288.396L29.1261 286.497L37.6077 283.263L38.5856 285.833L35.1643 289.414L33.4803 290.97L33.5333 291.109L35.8146 291.124L40.7243 291.456L41.707 294.039L33.2254 297.273L32.5028 295.374L36.8069 293.732L38.1602 293.289L38.1072 293.15L36.5902 293.163L32.118 292.838L31.2413 290.533L34.3647 287.312L35.5061 286.311L35.4531 286.172L34.1528 286.755L29.8486 288.396Z" fill="#F2675A"/>
<path d="M34.9763 300.674L33.9049 298.666L43.778 297.887L45.1428 300.446L39.0196 308.253L37.9227 306.197L41.8745 301.256L42.8555 300.102L42.7854 299.97L41.2814 300.145L34.9763 300.674ZM39.7036 305.275L36.6935 299.633L38.3063 298.77L41.3165 304.412L39.7036 305.275Z" fill="#F2675A"/>
<path d="M42.379 313.202L40.2123 310.055L41.7177 309.016L43.8843 312.163C44.2377 312.676 44.5789 313.044 44.9078 313.267C45.2493 313.492 45.6285 313.565 46.0455 313.486C46.475 313.409 46.9871 313.165 47.5818 312.755C48.1839 312.339 48.5936 311.947 48.8108 311.577C49.0331 311.215 49.0962 310.837 49 310.443C48.9164 310.05 48.6979 309.598 48.3444 309.084L46.1778 305.937L47.6831 304.898L49.8497 308.045C50.4029 308.849 50.7306 309.643 50.8328 310.429C50.9401 311.222 50.8251 311.971 50.4878 312.675C50.1505 313.38 49.5916 314.002 48.8111 314.54C48.0306 315.079 47.2514 315.381 46.4737 315.446C45.6959 315.511 44.956 315.352 44.254 314.969C43.5572 314.594 42.9321 314.005 42.379 313.202ZM41.0498 311.271L39.8973 309.597L47.3681 304.441L48.5206 306.115L41.0498 311.271Z" fill="#F2675A"/>
<path d="M47.6151 320.181L46.2978 318.633L53.2029 312.741L54.5202 314.288L47.6151 320.181ZM51.2772 324.483L46.6667 319.066L48.058 317.879L52.6685 323.295L51.2772 324.483ZM53.9281 321.953L49.4493 316.692L50.8303 315.513L55.3091 320.775L53.9281 321.953ZM56.7909 319.778L52.1804 314.361L53.5718 313.174L58.1823 318.59L56.7909 319.778Z" fill="#F2675A"/>
<path d="M58.1548 331.21L55.8682 329.235L60.1729 320.959L61.8955 322.447L59.3658 327.064L58.3017 328.777L58.4145 328.874L60.0323 327.64L64.541 324.731L66.8276 326.706L64.6054 331.589L63.6234 333.373L63.7362 333.47L65.2719 332.165L69.4628 328.982L71.1444 330.434L63.5893 335.903L61.3027 333.929L63.2397 329.604L64.4645 327.207L64.3517 327.11L62.1631 328.675L58.1548 331.21Z" fill="#F2675A"/>
<path d="M68.3875 339.263L66.7276 338.09L71.9558 330.67L73.6158 331.842L68.3875 339.263Z" fill="#F2675A"/>
<path d="M74.3121 343.068L72.5747 342.014L77.2756 334.248L79.0129 335.303L74.3121 343.068ZM80.9498 338.618L73.4443 334.063L74.3915 332.498L81.897 337.053L80.9498 338.618Z" fill="#F2675A"/>
<path d="M86.6704 349.404L84.8329 348.536L88.7025 340.324L90.5401 341.192L86.6704 349.404ZM80.5453 346.51L78.7078 345.642L82.5775 337.431L84.415 338.299L80.5453 346.51ZM87.3298 345.684L80.776 342.588L81.5557 340.934L88.1095 344.03L87.3298 345.684Z" fill="#F2675A"/>
<path d="M94.983 352.37L93.0599 351.713L95.1751 345.506L92.97 344.753L93.4201 343.432L93.7791 343.555C94.2577 343.718 94.6828 343.787 95.0542 343.761C95.4285 343.727 95.7953 343.533 96.1547 343.178L97.9111 343.778L94.983 352.37Z" fill="#F2675A"/>
<path d="M101.062 354.217C100.116 353.979 99.3615 353.589 98.7988 353.048C98.2449 352.508 97.8817 351.858 97.709 351.098C97.5386 350.329 97.5675 349.488 97.7957 348.577C98.0262 347.657 98.3967 346.903 98.9074 346.314C99.418 345.725 100.045 345.324 100.787 345.11C101.539 344.898 102.387 344.911 103.334 345.149C104.28 345.386 105.03 345.775 105.584 346.314C106.146 346.856 106.514 347.507 106.686 348.267C106.859 349.028 106.83 349.868 106.6 350.788C106.372 351.699 106.001 352.454 105.488 353.051C104.977 353.64 104.346 354.04 103.595 354.252C102.852 354.466 102.008 354.454 101.062 354.217ZM101.543 352.298C102.103 352.439 102.571 352.468 102.945 352.385C103.322 352.293 103.633 352.073 103.879 351.725C104.124 351.377 104.326 350.888 104.484 350.257C104.642 349.626 104.695 349.099 104.643 348.676C104.59 348.253 104.419 347.917 104.127 347.667C103.838 347.408 103.414 347.208 102.853 347.067C102.292 346.927 101.824 346.902 101.447 346.994C101.072 347.076 100.762 347.292 100.517 347.64C100.271 347.988 100.069 348.478 99.9113 349.108C99.7533 349.739 99.7005 350.266 99.7528 350.689C99.8052 351.112 99.9759 351.453 100.265 351.712C100.556 351.962 100.982 352.157 101.543 352.298Z" fill="#F2675A"/>
<path d="M111.613 356.282C110.647 356.147 109.855 355.84 109.238 355.362C108.629 354.885 108.199 354.277 107.946 353.54C107.694 352.793 107.633 351.955 107.763 351.024C107.893 350.085 108.181 349.295 108.626 348.655C109.071 348.015 109.651 347.549 110.367 347.257C111.091 346.966 111.936 346.888 112.903 347.023C113.869 347.158 114.656 347.464 115.264 347.941C115.882 348.419 116.317 349.027 116.57 349.765C116.823 350.502 116.884 351.341 116.753 352.28C116.623 353.21 116.335 354 115.889 354.649C115.444 355.289 114.86 355.755 114.135 356.046C113.42 356.338 112.579 356.416 111.613 356.282ZM111.886 354.322C112.458 354.402 112.926 354.381 113.29 354.259C113.655 354.127 113.941 353.875 114.147 353.503C114.354 353.13 114.503 352.622 114.592 351.978C114.682 351.334 114.678 350.805 114.581 350.39C114.484 349.975 114.277 349.659 113.961 349.441C113.646 349.215 113.202 349.062 112.63 348.982C112.057 348.902 111.588 348.928 111.224 349.059C110.86 349.182 110.575 349.429 110.368 349.801C110.161 350.174 110.013 350.682 109.923 351.326C109.833 351.97 109.837 352.5 109.934 352.915C110.031 353.329 110.238 353.65 110.553 353.876C110.869 354.094 111.313 354.242 111.886 354.322Z" fill="#F2675A"/>
<path d="M125.871 357.299C125.374 357.286 124.948 357.179 124.592 356.98C124.236 356.781 123.967 356.512 123.786 356.173C123.605 355.825 123.521 355.425 123.533 354.974C123.545 354.522 123.65 354.132 123.848 353.803C124.047 353.465 124.329 353.206 124.695 353.026C125.061 352.846 125.493 352.762 125.989 352.775C126.495 352.788 126.921 352.894 127.268 353.093C127.625 353.292 127.893 353.566 128.074 353.914C128.255 354.253 128.339 354.648 128.327 355.1C128.316 355.551 128.21 355.946 128.012 356.284C127.813 356.613 127.531 356.868 127.165 357.048C126.808 357.228 126.377 357.312 125.871 357.299ZM120.16 352.297C119.664 352.284 119.237 352.178 118.881 351.979C118.534 351.78 118.27 351.511 118.089 351.172C117.908 350.824 117.824 350.424 117.836 349.973C117.848 349.521 117.953 349.131 118.151 348.802C118.35 348.464 118.628 348.204 118.985 348.024C119.351 347.835 119.782 347.747 120.279 347.76C120.785 347.773 121.211 347.884 121.558 348.091C121.914 348.291 122.183 348.564 122.363 348.912C122.544 349.251 122.629 349.646 122.617 350.098C122.605 350.549 122.5 350.944 122.301 351.282C122.103 351.611 121.821 351.866 121.455 352.046C121.097 352.227 120.666 352.31 120.16 352.297ZM120.195 350.97C120.556 350.979 120.806 350.913 120.946 350.772C121.085 350.632 121.159 350.394 121.168 350.06C121.176 349.726 121.115 349.485 120.983 349.337C120.852 349.18 120.606 349.096 120.244 349.087C119.901 349.078 119.655 349.148 119.507 349.298C119.368 349.439 119.294 349.677 119.285 350.011C119.276 350.345 119.338 350.586 119.469 350.734C119.61 350.882 119.852 350.961 120.195 350.97ZM125.906 355.971C126.258 355.981 126.503 355.915 126.643 355.774C126.791 355.633 126.869 355.396 126.878 355.062C126.887 354.728 126.821 354.486 126.68 354.338C126.549 354.181 126.307 354.098 125.955 354.089C125.603 354.079 125.352 354.15 125.204 354.299C125.065 354.44 124.991 354.678 124.982 355.012C124.973 355.346 125.035 355.587 125.166 355.735C125.307 355.883 125.554 355.962 125.906 355.971ZM120.092 356.998L118.128 356.946L126.072 348.074L128.035 348.126L120.092 356.998Z" fill="#F2675A"/>
<path d="M134.962 356.717L132.943 356.95L131.907 347.932L134.061 347.684L137.781 351.579L139.237 353.334L139.385 353.317L139.083 351.511L138.583 347.163L140.602 346.931L141.638 355.949L139.484 356.197L135.665 352.272L134.326 350.708L134.192 350.724L134.463 352.37L134.962 356.717Z" fill="#F2675A"/>
<path d="M145.325 355.241L143.107 355.754L144.934 346.015L147.759 345.361L153.694 353.305L151.423 353.831L147.688 348.729L146.83 347.481L146.684 347.515L146.46 349.013L145.325 355.241ZM150.999 351.871L144.768 353.312L144.357 351.53L150.587 350.089L150.999 351.871Z" fill="#F2675A"/>
<path d="M159.897 351.142L157.979 351.814L154.985 343.244L156.903 342.573L159.897 351.142ZM160.691 343.184L152.405 346.086L151.801 344.359L160.087 341.458L160.691 343.184Z" fill="#F2675A"/>
<path d="M168.706 347.612C167.816 348.033 167.006 348.241 166.275 348.237C165.544 348.233 164.902 348.037 164.349 347.649C163.797 347.261 163.347 346.699 163 345.964L160.746 341.185L162.583 340.316L164.774 344.96C164.994 345.426 165.236 345.771 165.502 345.995C165.772 346.207 166.095 346.299 166.471 346.271C166.851 346.231 167.315 346.082 167.862 345.823C168.426 345.557 168.84 345.291 169.104 345.026C169.365 344.753 169.495 344.447 169.495 344.107C169.49 343.759 169.378 343.353 169.159 342.887L166.968 338.243L168.805 337.374L171.06 342.153C171.406 342.888 171.554 343.593 171.502 344.267C171.451 344.941 171.194 345.561 170.733 346.129C170.28 346.693 169.604 347.187 168.706 347.612Z" fill="#F2675A"/>
<path d="M176.202 343.547L174.466 344.604L169.753 336.846L174.034 334.238C174.675 333.849 175.275 333.61 175.835 333.523C176.39 333.428 176.889 333.484 177.331 333.69C177.774 333.896 178.145 334.247 178.445 334.741C178.703 335.165 178.842 335.577 178.863 335.977C178.884 336.377 178.789 336.768 178.578 337.151C178.361 337.525 178.024 337.884 177.567 338.226L177.623 338.319C178.026 338.2 178.369 338.182 178.651 338.264C178.934 338.346 179.23 338.477 179.541 338.658L181.929 340.059L179.916 341.285L177.627 339.918C177.398 339.783 177.19 339.693 177.003 339.648C176.817 339.603 176.618 339.613 176.404 339.68C176.194 339.734 175.939 339.852 175.638 340.035L174.492 340.733L176.202 343.547ZM172.438 337.352L173.697 339.425L176.231 337.881C176.64 337.632 176.899 337.38 177.007 337.123C177.111 336.859 177.039 336.523 176.79 336.113C176.556 335.727 176.298 335.52 176.016 335.491C175.729 335.454 175.381 335.56 174.972 335.809L172.438 337.352Z" fill="#F2675A"/>
<path d="M184.66 338.102L182.857 339.492L180.47 329.872L182.766 328.102L191.464 332.86L189.618 334.282L184.101 331.195L182.803 330.417L182.685 330.508L183.103 331.964L184.66 338.102ZM188.418 332.676L183.352 336.579L182.237 335.129L187.303 331.226L188.418 332.676Z" fill="#F2675A"/>
<path d="M193.988 330.428L192.514 331.827L186.273 325.235L187.747 323.836L193.988 330.428ZM197.908 326.706L192.926 331.435L191.669 330.107L196.651 325.378L197.908 326.706Z" fill="#F2675A"/>
<path d="M202.36 321.754L201.063 323.319L194.08 317.52L195.376 315.955L202.36 321.754ZM203.228 315.396L198.821 320.717L197.424 319.557L201.831 314.236L203.228 315.396ZM200.387 312.773L195.85 318.25L194.443 317.082L198.98 311.604L200.387 312.773Z" fill="#F2675A"/>
<path d="M208.223 314.22L207.086 315.904L199.569 310.815L202.375 306.661C202.795 306.039 203.241 305.573 203.714 305.26C204.179 304.942 204.656 304.785 205.144 304.788C205.632 304.792 206.116 304.956 206.594 305.28C207.006 305.558 207.304 305.875 207.49 306.229C207.675 306.584 207.751 306.979 207.719 307.415C207.678 307.846 207.521 308.313 207.248 308.814L207.337 308.875C207.655 308.599 207.959 308.44 208.249 308.397C208.54 308.353 208.864 308.349 209.222 308.384L211.977 308.663L210.658 310.616L208.008 310.327C207.743 310.3 207.516 310.305 207.328 310.341C207.14 310.378 206.963 310.471 206.797 310.62C206.628 310.757 206.445 310.971 206.248 311.263L205.497 312.374L208.223 314.22ZM202.221 310.156L204.23 311.516L205.89 309.057C206.158 308.66 206.288 308.323 206.28 308.045C206.264 307.761 206.058 307.485 205.662 307.217C205.288 306.964 204.967 306.883 204.698 306.974C204.422 307.059 204.15 307.301 203.882 307.697L202.221 310.156Z" fill="#F2675A"/>
<path d="M214.992 303.463C214.529 304.332 214.003 304.983 213.414 305.416C212.826 305.849 212.194 306.075 211.519 306.093C210.844 306.112 210.148 305.929 209.431 305.546L204.77 303.058L205.725 301.264L210.254 303.683C210.709 303.925 211.109 304.057 211.456 304.078C211.799 304.087 212.113 303.968 212.398 303.721C212.68 303.462 212.963 303.065 213.247 302.531C213.54 301.981 213.714 301.521 213.768 301.15C213.814 300.776 213.735 300.452 213.532 300.18C213.321 299.904 212.989 299.644 212.535 299.402L208.005 296.983L208.96 295.189L213.621 297.678C214.339 298.061 214.877 298.538 215.238 299.11C215.599 299.681 215.764 300.332 215.733 301.063C215.706 301.786 215.459 302.586 214.992 303.463Z" fill="#F2675A"/>
<path d="M218.548 295.775L217.727 297.634L209.426 293.962L210.247 292.102L218.548 295.775Z" fill="#F2675A"/>
<path d="M221.089 289.247L220.4 291.159L211.862 288.075L212.551 286.163L221.089 289.247ZM215.415 283.611L212.439 291.87L210.719 291.249L213.695 282.989L215.415 283.611Z" fill="#F2675A"/>
<path d="M26.6471 253.874C25.9877 253.874 25.4006 253.757 24.8858 253.522C24.38 253.278 23.9826 252.944 23.6935 252.52C23.4045 252.095 23.26 251.607 23.26 251.056H25.089C25.1161 251.463 25.2697 251.788 25.5497 252.032C25.8297 252.267 26.2045 252.384 26.6742 252.384C27.1619 252.384 27.5413 252.271 27.8122 252.045C28.0832 251.811 28.2187 251.49 28.2187 251.083C28.2187 250.686 28.0606 250.374 27.7445 250.149C27.4284 249.923 26.9903 249.81 26.4303 249.81H25.4413V248.32H26.3219C26.638 248.32 26.9045 248.27 27.1213 248.171C27.338 248.071 27.5051 247.931 27.6226 247.751C27.74 247.57 27.7987 247.358 27.7987 247.114C27.7987 246.752 27.6858 246.468 27.46 246.26C27.2342 246.052 26.9271 245.949 26.5387 245.949C26.1593 245.949 25.8522 246.066 25.6174 246.301C25.3916 246.527 25.2742 246.838 25.2651 247.236H23.4361C23.4452 246.703 23.5897 246.229 23.8697 245.813C24.1497 245.389 24.529 245.059 25.0077 244.824C25.4955 244.58 26.0374 244.458 26.6335 244.458C27.2748 244.458 27.8258 244.567 28.2864 244.783C28.7561 245 29.1129 245.298 29.3567 245.678C29.6096 246.048 29.7361 246.482 29.7361 246.978C29.7361 247.394 29.6187 247.769 29.3838 248.103C29.149 248.428 28.8103 248.708 28.3677 248.943C28.9458 249.123 29.3884 249.394 29.6955 249.756C30.0025 250.108 30.1561 250.532 30.1561 251.029C30.1561 251.598 30.0071 252.095 29.709 252.52C29.4109 252.944 29 253.278 28.4761 253.522C27.9613 253.757 27.3516 253.874 26.6471 253.874ZM34.4003 253.874C33.741 253.874 33.1539 253.757 32.639 253.522C32.1332 253.278 31.7358 252.944 31.4468 252.52C31.1578 252.095 31.0132 251.607 31.0132 251.056H32.8423C32.8694 251.463 33.0229 251.788 33.3029 252.032C33.5829 252.267 33.9577 252.384 34.4274 252.384C34.9152 252.384 35.2945 252.271 35.5655 252.045C35.8364 251.811 35.9719 251.49 35.9719 251.083C35.9719 250.686 35.8139 250.374 35.4977 250.149C35.1816 249.923 34.7435 249.81 34.1835 249.81H33.1945V248.32H34.0752C34.3913 248.32 34.6577 248.27 34.8745 248.171C35.0913 248.071 35.2584 247.931 35.3758 247.751C35.4932 247.57 35.5519 247.358 35.5519 247.114C35.5519 246.752 35.439 246.468 35.2132 246.26C34.9874 246.052 34.6803 245.949 34.2919 245.949C33.9126 245.949 33.6055 246.066 33.3706 246.301C33.1448 246.527 33.0274 246.838 33.0184 247.236H31.1894C31.1984 246.703 31.3429 246.229 31.6229 245.813C31.9029 245.389 32.2823 245.059 32.761 244.824C33.2487 244.58 33.7906 244.458 34.3868 244.458C35.0281 244.458 35.579 244.567 36.0397 244.783C36.5093 245 36.8661 245.298 37.11 245.678C37.3629 246.048 37.4893 246.482 37.4893 246.978C37.4893 247.394 37.3719 247.769 37.1371 248.103C36.9022 248.428 36.5635 248.708 36.121 248.943C36.699 249.123 37.1416 249.394 37.4487 249.756C37.7558 250.108 37.9093 250.532 37.9093 251.029C37.9093 251.598 37.7603 252.095 37.4622 252.52C37.1642 252.944 36.7532 253.278 36.2293 253.522C35.7145 253.757 35.1048 253.874 34.4003 253.874ZM39.0088 249.187C39.0088 247.669 39.3159 246.504 39.9301 245.691C40.5442 244.869 41.4159 244.458 42.5449 244.458C43.6739 244.458 44.5455 244.869 45.1597 245.691C45.7829 246.504 46.0945 247.669 46.0945 249.187C46.0945 250.695 45.7874 251.856 45.1733 252.669C44.5681 253.481 43.692 253.888 42.5449 253.888C41.4068 253.888 40.5307 253.481 39.9165 252.669C39.3113 251.856 39.0088 250.695 39.0088 249.187ZM40.9462 249.187C40.9462 250.171 41.0817 250.921 41.3526 251.436C41.6236 251.951 42.021 252.208 42.5449 252.208C43.0687 252.208 43.4662 251.951 43.7371 251.436C44.0171 250.921 44.1571 250.171 44.1571 249.187C44.1571 248.193 44.0171 247.439 43.7371 246.924C43.4662 246.4 43.0687 246.138 42.5449 246.138C42.03 246.138 41.6326 246.4 41.3526 246.924C41.0817 247.448 40.9462 248.202 40.9462 249.187Z" fill="#03403F"/>
<path d="M29.89 272.63H28.0068V265.395H29.741V266.425C30.0029 266.055 30.31 265.77 30.6622 265.571C31.0145 265.364 31.43 265.26 31.9087 265.26C32.4055 265.26 32.8345 265.373 33.1958 265.599C33.5661 265.815 33.8416 266.131 34.0222 266.547C34.3113 266.15 34.6455 265.838 35.0248 265.612C35.4042 265.377 35.8648 265.26 36.4067 265.26C37.1384 265.26 37.73 265.495 38.1816 265.964C38.6332 266.425 38.859 267.089 38.859 267.956V272.63H36.9893V268.552C36.9893 268.037 36.8809 267.64 36.6642 267.36C36.4564 267.071 36.1448 266.926 35.7293 266.926C35.4855 266.926 35.2596 266.994 35.0519 267.13C34.8442 267.256 34.6771 267.441 34.5506 267.685C34.4332 267.929 34.3745 268.231 34.3745 268.593V272.63H32.5048V268.552C32.5048 268.037 32.3964 267.64 32.1797 267.36C31.9719 267.071 31.6603 266.926 31.2448 266.926C30.9919 266.926 30.7616 266.994 30.5539 267.13C30.3461 267.256 30.1835 267.441 30.0661 267.685C29.9487 267.929 29.89 268.231 29.89 268.593V272.63ZM42.367 272.63H40.4702V262.902H42.367V272.63Z" fill="#03403F"/>
<path d="M205.959 250.027H210.267L210.809 251.666H205.363L205.959 250.027ZM210.714 253.752L208.113 246.274L205.458 253.752H203.385L207.043 244.025H209.292L212.923 253.752H210.714ZM215.842 253.752H213.945V244.025H215.842V253.752ZM220.579 253.888C219.884 253.888 219.27 253.73 218.737 253.414C218.213 253.098 217.802 252.655 217.504 252.086C217.206 251.517 217.057 250.867 217.057 250.135C217.057 249.412 217.206 248.771 217.504 248.211C217.811 247.642 218.231 247.195 218.764 246.87C219.297 246.545 219.902 246.382 220.579 246.382C221.202 246.382 221.767 246.518 222.273 246.789C222.779 247.051 223.19 247.425 223.506 247.913C223.822 248.392 224.016 248.956 224.088 249.607H222.11C222.065 249.128 221.902 248.749 221.622 248.469C221.351 248.189 221.004 248.049 220.579 248.049C220.254 248.049 219.97 248.134 219.726 248.306C219.491 248.478 219.306 248.717 219.17 249.024C219.044 249.331 218.981 249.701 218.981 250.135C218.981 250.56 219.044 250.93 219.17 251.246C219.306 251.562 219.491 251.806 219.726 251.978C219.97 252.14 220.254 252.221 220.579 252.221C221.013 252.221 221.361 252.086 221.622 251.815C221.893 251.535 222.056 251.151 222.11 250.663H224.088C224.025 251.323 223.835 251.896 223.519 252.384C223.203 252.863 222.797 253.233 222.3 253.495C221.803 253.757 221.23 253.888 220.579 253.888ZM227.347 252.547C227.347 252.917 227.23 253.224 226.995 253.468C226.76 253.703 226.457 253.82 226.087 253.82C225.717 253.82 225.41 253.703 225.166 253.468C224.931 253.224 224.813 252.917 224.813 252.547C224.813 252.167 224.931 251.86 225.166 251.625C225.41 251.381 225.717 251.26 226.087 251.26C226.457 251.26 226.76 251.381 226.995 251.625C227.23 251.86 227.347 252.167 227.347 252.547Z" fill="#03403F"/>
<path d="M211.977 270.828H210.69V272.63H208.821V270.828H204.472V269.433L209.2 263.471H210.69V269.189H211.977V270.828ZM206.531 269.189H208.821V266.168L206.531 269.189ZM215.618 269.08C215.049 269.08 214.539 268.954 214.087 268.701C213.645 268.439 213.292 268.091 213.03 267.658C212.777 267.224 212.651 266.75 212.651 266.235C212.651 265.711 212.777 265.237 213.03 264.813C213.292 264.379 213.645 264.036 214.087 263.783C214.539 263.521 215.049 263.39 215.618 263.39C216.187 263.39 216.693 263.521 217.135 263.783C217.587 264.036 217.939 264.379 218.192 264.813C218.454 265.237 218.585 265.711 218.585 266.235C218.585 266.75 218.454 267.224 218.192 267.658C217.939 268.091 217.587 268.439 217.135 268.701C216.693 268.954 216.187 269.08 215.618 269.08ZM215.618 267.753C215.88 267.753 216.119 267.699 216.336 267.59C216.553 267.473 216.725 267.301 216.851 267.075C216.977 266.84 217.041 266.56 217.041 266.235C217.041 265.892 216.977 265.612 216.851 265.395C216.725 265.17 216.553 265.002 216.336 264.894C216.119 264.777 215.88 264.718 215.618 264.718C215.365 264.718 215.126 264.777 214.9 264.894C214.683 265.002 214.507 265.17 214.372 265.395C214.245 265.612 214.182 265.892 214.182 266.235C214.182 266.56 214.245 266.84 214.372 267.075C214.507 267.301 214.683 267.473 214.9 267.59C215.126 267.699 215.365 267.753 215.618 267.753ZM217.867 272.63H216.363L221.566 263.471H223.07L217.867 272.63ZM224.045 272.752C223.476 272.752 222.966 272.626 222.514 272.373C222.072 272.111 221.719 271.763 221.457 271.329C221.205 270.896 221.078 270.422 221.078 269.907C221.078 269.383 221.205 268.909 221.457 268.484C221.719 268.051 222.072 267.708 222.514 267.455C222.966 267.193 223.476 267.062 224.045 267.062C224.614 267.062 225.12 267.193 225.563 267.455C226.014 267.708 226.366 268.051 226.619 268.484C226.881 268.909 227.012 269.383 227.012 269.907C227.012 270.422 226.881 270.896 226.619 271.329C226.366 271.763 226.014 272.111 225.563 272.373C225.12 272.626 224.614 272.752 224.045 272.752ZM224.045 271.411C224.307 271.411 224.546 271.357 224.763 271.248C224.98 271.131 225.152 270.959 225.278 270.733C225.414 270.508 225.481 270.232 225.481 269.907C225.481 269.564 225.414 269.284 225.278 269.067C225.152 268.841 224.98 268.674 224.763 268.566C224.546 268.448 224.307 268.389 224.045 268.389C223.792 268.389 223.553 268.448 223.327 268.566C223.11 268.674 222.934 268.841 222.799 269.067C222.672 269.284 222.609 269.564 222.609 269.907C222.609 270.232 222.672 270.508 222.799 270.733C222.934 270.959 223.11 271.131 223.327 271.248C223.553 271.357 223.792 271.411 224.045 271.411Z" fill="#03403F"/>
<path d="M100.691 279.625C100.691 280.731 100.406 281.715 99.8373 282.576C99.2682 283.422 98.4551 284.089 97.3982 284.576C96.3575 285.064 95.0973 285.308 93.6176 285.308C92.1542 285.308 90.8777 285.064 89.7882 284.576C88.715 284.072 87.8695 283.365 87.2516 282.454C86.6337 281.544 86.2759 280.471 86.1784 279.235H89.9346C89.9834 280.21 90.3086 280.983 90.9102 281.552C91.5281 282.121 92.4062 282.406 93.5444 282.406C94.1786 282.406 94.7315 282.316 95.203 282.137C95.6908 281.958 96.073 281.698 96.3494 281.357C96.6258 281.015 96.764 280.617 96.764 280.162C96.764 279.609 96.5608 279.17 96.1543 278.845C95.7478 278.503 95.1705 278.259 94.4225 278.113L91.5444 277.552C90.8777 277.438 90.2598 277.251 89.6907 276.991C89.1215 276.731 88.6256 276.405 88.2028 276.015C87.78 275.625 87.4467 275.153 87.2028 274.601C86.9589 274.048 86.8369 273.414 86.8369 272.698C86.8369 271.657 87.1134 270.731 87.6662 269.917C88.2353 269.104 89.0077 268.47 89.9834 268.015C90.9753 267.56 92.1054 267.332 93.3737 267.332C94.6908 267.332 95.8616 267.576 96.886 268.064C97.9104 268.552 98.7397 269.243 99.3739 270.137C100.008 271.015 100.358 272.064 100.423 273.283H96.6665C96.634 272.666 96.4714 272.129 96.1787 271.674C95.9022 271.202 95.5282 270.844 95.0567 270.6C94.5851 270.34 94.0404 270.21 93.4225 270.21C92.8208 270.21 92.3086 270.316 91.8859 270.527C91.4793 270.722 91.1623 270.991 90.9346 271.332C90.707 271.657 90.5931 272.031 90.5931 272.454C90.5931 272.844 90.6988 273.17 90.9102 273.43C91.1379 273.69 91.4306 273.901 91.7883 274.064C92.146 274.21 92.5363 274.324 92.9591 274.405L95.9591 275.015C97.5039 275.324 98.6747 275.853 99.4714 276.601C100.284 277.332 100.691 278.34 100.691 279.625ZM113.768 285.064L111.304 276.601L108.865 285.064H105.475L101.767 272.04H105.06L107.28 280.284L109.67 272.04H113.012L115.329 280.284L117.524 272.04H120.866L117.134 285.064H113.768ZM127.894 285.284C126.593 285.284 125.447 285.007 124.455 284.454C123.479 283.885 122.723 283.089 122.186 282.064C121.65 281.04 121.382 279.853 121.382 278.503C121.382 277.202 121.658 276.048 122.211 275.04C122.764 274.031 123.528 273.243 124.504 272.674C125.479 272.088 126.593 271.796 127.845 271.796C128.87 271.796 129.796 271.991 130.626 272.381C131.471 272.755 132.179 273.292 132.748 273.991C133.317 274.69 133.723 275.503 133.967 276.43C134.211 277.34 134.252 278.324 134.089 279.381H123.382V277.235H130.504C130.471 276.324 130.203 275.609 129.699 275.088C129.211 274.552 128.569 274.283 127.772 274.283C127.138 274.283 126.601 274.446 126.162 274.771C125.723 275.097 125.382 275.576 125.138 276.21C124.91 276.828 124.796 277.593 124.796 278.503C124.796 279.397 124.91 280.154 125.138 280.771C125.365 281.389 125.707 281.861 126.162 282.186C126.617 282.511 127.17 282.674 127.821 282.674C128.569 282.674 129.187 282.495 129.674 282.137C130.162 281.78 130.504 281.284 130.699 280.65H134.065C133.691 282.113 132.967 283.251 131.894 284.064C130.821 284.877 129.487 285.284 127.894 285.284ZM141.781 285.284C140.48 285.284 139.333 285.007 138.341 284.454C137.366 283.885 136.61 283.089 136.073 282.064C135.537 281.04 135.268 279.853 135.268 278.503C135.268 277.202 135.545 276.048 136.097 275.04C136.65 274.031 137.415 273.243 138.39 272.674C139.366 272.088 140.48 271.796 141.732 271.796C142.756 271.796 143.683 271.991 144.512 272.381C145.358 272.755 146.065 273.292 146.634 273.991C147.204 274.69 147.61 275.503 147.854 276.43C148.098 277.34 148.138 278.324 147.976 279.381H137.268V277.235H144.39C144.358 276.324 144.09 275.609 143.586 275.088C143.098 274.552 142.455 274.283 141.659 274.283C141.024 274.283 140.488 274.446 140.049 274.771C139.61 275.097 139.268 275.576 139.024 276.21C138.797 276.828 138.683 277.593 138.683 278.503C138.683 279.397 138.797 280.154 139.024 280.771C139.252 281.389 139.594 281.861 140.049 282.186C140.504 282.511 141.057 282.674 141.707 282.674C142.455 282.674 143.073 282.495 143.561 282.137C144.049 281.78 144.39 281.284 144.586 280.65H147.952C147.578 282.113 146.854 283.251 145.781 284.064C144.708 284.877 143.374 285.284 141.781 285.284ZM158.249 281.771V284.723C157.843 284.934 157.428 285.081 157.005 285.162C156.599 285.259 156.143 285.308 155.639 285.308C154.761 285.308 153.989 285.146 153.322 284.82C152.672 284.479 152.168 283.975 151.81 283.308C151.452 282.625 151.273 281.804 151.273 280.845V274.942H148.639V272.04H151.273V268.186H154.639V272.04H158.371V274.942H154.639V280.064C154.639 280.812 154.802 281.357 155.127 281.698C155.469 282.024 155.94 282.186 156.542 282.186C156.867 282.186 157.176 282.154 157.469 282.089C157.761 282.007 158.022 281.902 158.249 281.771Z" fill="#03403F"/>
<path d="M94.3933 307.981H102.15L103.125 310.933H93.3201L94.3933 307.981ZM102.955 314.689L98.2715 301.225L93.4908 314.689H89.759L96.3446 297.176H100.393L106.93 314.689H102.955ZM121.771 308.176C121.771 309.461 121.527 310.616 121.04 311.64C120.568 312.648 119.901 313.453 119.04 314.055C118.194 314.64 117.178 314.933 115.991 314.933C115.226 314.933 114.519 314.77 113.869 314.445C113.218 314.12 112.649 313.64 112.161 313.006V319.396H108.771V301.664H111.893V303.567C112.397 302.867 112.999 302.339 113.698 301.981C114.397 301.607 115.161 301.42 115.991 301.42C117.161 301.42 118.178 301.721 119.04 302.323C119.901 302.908 120.568 303.713 121.04 304.737C121.527 305.745 121.771 306.892 121.771 308.176ZM118.283 308.176C118.283 306.957 117.983 306.03 117.381 305.396C116.779 304.745 116.064 304.42 115.235 304.42C114.698 304.42 114.194 304.567 113.722 304.859C113.251 305.152 112.877 305.575 112.6 306.128C112.324 306.664 112.186 307.347 112.186 308.176C112.186 308.989 112.324 309.681 112.6 310.25C112.877 310.803 113.243 311.217 113.698 311.494C114.17 311.77 114.682 311.908 115.235 311.908C116.064 311.908 116.779 311.599 117.381 310.981C117.983 310.347 118.283 309.412 118.283 308.176ZM136.944 308.176C136.944 309.461 136.7 310.616 136.213 311.64C135.741 312.648 135.074 313.453 134.212 314.055C133.367 314.64 132.351 314.933 131.164 314.933C130.399 314.933 129.692 314.77 129.042 314.445C128.391 314.12 127.822 313.64 127.334 313.006V319.396H123.944V301.664H127.066V303.567C127.57 302.867 128.172 302.339 128.871 301.981C129.57 301.607 130.334 301.42 131.164 301.42C132.334 301.42 133.351 301.721 134.212 302.323C135.074 302.908 135.741 303.713 136.213 304.737C136.7 305.745 136.944 306.892 136.944 308.176ZM133.456 308.176C133.456 306.957 133.156 306.03 132.554 305.396C131.952 304.745 131.237 304.42 130.407 304.42C129.871 304.42 129.367 304.567 128.895 304.859C128.424 305.152 128.05 305.575 127.773 306.128C127.497 306.664 127.359 307.347 127.359 308.176C127.359 308.989 127.497 309.681 127.773 310.25C128.05 310.803 128.416 311.217 128.871 311.494C129.342 311.77 129.855 311.908 130.407 311.908C131.237 311.908 131.952 311.599 132.554 310.981C133.156 310.347 133.456 309.412 133.456 308.176ZM142.532 314.689H139.117V297.176H142.532V314.689ZM151.23 314.908C149.93 314.908 148.783 314.632 147.791 314.079C146.816 313.51 146.06 312.713 145.523 311.689C144.986 310.664 144.718 309.477 144.718 308.128C144.718 306.827 144.995 305.672 145.547 304.664C146.1 303.656 146.865 302.867 147.84 302.298C148.816 301.713 149.93 301.42 151.182 301.42C152.206 301.42 153.133 301.615 153.962 302.006C154.808 302.38 155.515 302.916 156.084 303.615C156.653 304.315 157.06 305.128 157.304 306.054C157.548 306.965 157.588 307.949 157.426 309.006H146.718V306.859H153.84C153.808 305.949 153.54 305.233 153.035 304.713C152.548 304.176 151.905 303.908 151.109 303.908C150.474 303.908 149.938 304.071 149.499 304.396C149.06 304.721 148.718 305.201 148.474 305.835C148.247 306.453 148.133 307.217 148.133 308.128C148.133 309.022 148.247 309.778 148.474 310.396C148.702 311.014 149.043 311.485 149.499 311.811C149.954 312.136 150.507 312.299 151.157 312.299C151.905 312.299 152.523 312.12 153.011 311.762C153.499 311.404 153.84 310.908 154.035 310.274H157.401C157.027 311.738 156.304 312.876 155.231 313.689C154.157 314.502 152.824 314.908 151.23 314.908Z" fill="#03403F"/>
</svg>
