<svg width="251" height="382" viewBox="0 0 251 382" fill="none" xmlns="http://www.w3.org/2000/svg">
<path d="M125.665 381.098C56.7444 381.098 0.684372 324.969 0.684372 255.963V125.279C0.684372 56.2735 56.7444 0.144684 125.665 0.144684C194.587 0.144684 250.647 56.2735 250.647 125.279V255.963C250.647 324.969 194.587 381.098 125.665 381.098Z" fill="white"/>
<path d="M237.273 125.299C237.273 63.5845 187.309 13.5549 125.675 13.5549C64.0416 13.5549 14.0778 63.5845 14.0778 125.299V255.963C14.0778 317.678 64.0416 367.708 125.675 367.708C187.309 367.708 237.273 317.678 237.273 255.963V125.299Z" fill="#E3E3FF"/>
<path d="M34.1389 131.915V234.179" stroke="#8A79F3" stroke-width="1.97498" stroke-linecap="round" stroke-linejoin="round"/>
<path d="M217.212 131.915V234.179" stroke="#8A79F3" stroke-width="1.97498" stroke-linecap="round" stroke-linejoin="round"/>
<path d="M43.4298 208.88C48.8346 202.027 55.9359 194.502 64.3587 198.334C70.375 201.059 68.9744 205.621 87.2206 206.984C68.4813 211.23 64.7137 217.155 64.2403 230.526C75.405 222.448 76.5885 224.166 90.5345 224.107C105.664 224.048 111.049 215.101 106.492 203.39C94.736 173.192 46.3492 176.194 43.4298 208.88Z" fill="#048C3D" stroke="#03403F" stroke-width="0.987488" stroke-linecap="round" stroke-linejoin="round"/>
<path d="M48.4795 200.447C52.2076 194.107 59.9992 190.967 67.3371 191.283C74.675 191.599 81.579 194.917 87.6545 199.025C92.1519 202.066 96.4126 205.641 99.4109 210.183C89.2128 211.289 79.35 215.121 71.0455 221.164" stroke="#03403F" stroke-width="0.987488" stroke-linecap="round" stroke-linejoin="round"/>
<path d="M139.888 137.623C127.244 150.381 145.036 168.985 159.83 159.861C181.903 146.253 156.023 121.329 139.888 137.623Z" fill="#F3D579" stroke="#03403F" stroke-width="0.987488" stroke-linecap="round" stroke-linejoin="round"/>
<path d="M149.455 157.471C155.609 159.091 162.059 155.476 163.815 149.236" stroke="#03403F" stroke-width="0.987488" stroke-linecap="round" stroke-linejoin="round"/>
<path d="M151.664 154.292C154.11 155.121 157.068 153.976 158.351 151.724" stroke="#03403F" stroke-width="0.987488" stroke-linecap="round" stroke-linejoin="round"/>
<path d="M137.915 148.623C136.85 145.266 138.29 141.276 141.249 139.38" stroke="#03403F" stroke-width="0.987488" stroke-linecap="round" stroke-linejoin="round"/>
<path d="M144.286 136.714C145.647 136.082 147.087 135.608 148.547 135.351" stroke="#03403F" stroke-width="0.987488" stroke-linecap="round" stroke-linejoin="round"/>
<path d="M163.755 153.561C146.022 156.346 149.356 181.882 166.675 183.304C192.515 185.437 186.4 150.006 163.755 153.561Z" fill="#F3D579" stroke="#03403F" stroke-width="0.987488" stroke-linecap="round" stroke-linejoin="round"/>
<path d="M159.751 175.206C163.756 180.163 171.094 181.072 176.202 177.083" stroke="#03403F" stroke-width="0.987488" stroke-linecap="round" stroke-linejoin="round"/>
<path d="M163.4 173.962C164.88 176.075 167.937 176.925 170.304 175.858" stroke="#03403F" stroke-width="0.987488" stroke-linecap="round" stroke-linejoin="round"/>
<path d="M155.668 161.244C156.792 157.906 160.303 155.556 163.815 155.753" stroke="#03403F" stroke-width="0.987488" stroke-linecap="round" stroke-linejoin="round"/>
<path d="M167.839 155.417C169.298 155.714 170.738 156.188 172.08 156.839" stroke="#03403F" stroke-width="0.987488" stroke-linecap="round" stroke-linejoin="round"/>
<g opacity="0.2">
<path d="M157.483 136.773C154.327 136.24 151.427 137.188 148.922 139.123C147.364 140.328 149.356 142.283 150.855 141.632C156.299 139.242 158.134 144.061 160.738 144.871C165.117 146.253 166.044 138.195 157.483 136.773Z" fill="white"/>
<path d="M167.129 158.656C165.432 158.853 164.663 161.559 166.695 161.934C179.004 164.225 173.263 168.926 177.544 170.842C183.935 173.725 184.211 156.701 167.129 158.656Z" fill="white"/>
</g>
<path d="M78.3045 156.8C71.2822 172.501 71.1046 179.729 76.2136 193.712C78.9949 201.276 82.4666 208.801 88.0686 214.588C99.115 226.023 116.73 228.807 132.392 226.122C147.955 223.455 152.433 216.187 151.289 202.126C147.522 156.227 101.64 104.601 78.3045 156.78V156.8Z" fill="#9691F2" stroke="#03403F" stroke-width="0.987488" stroke-linecap="round" stroke-linejoin="round"/>
<path d="M159.554 206.628C172.198 175.72 150.184 133.218 113.613 131.737C93.0197 130.908 85.7803 146.372 86.7074 167.129C89.5282 230.585 146.969 237.418 159.554 206.628Z" fill="#F27E73" stroke="#03403F" stroke-width="0.987488" stroke-linecap="round" stroke-linejoin="round"/>
<path d="M93.5522 148.347C88.1079 161.223 84.9321 213.955 128.131 219.327C170.758 224.62 163.341 166.971 137.363 144.397C123.811 132.606 102.271 127.708 93.5522 148.347Z" fill="#FFF5CF" stroke="#03403F" stroke-width="0.987488" stroke-linecap="round" stroke-linejoin="round"/>
<path d="M95.939 154.765C95.0514 157.352 92.7238 166.813 94.3413 171.651C95.6432 175.503 95.8996 174.16 95.584 178.919C95.0119 187.57 100.22 192.171 101.107 193.909C102.074 195.786 102.35 201.75 110.812 206.826C113.159 208.228 124.265 213.225 126.395 211.98C126.908 211.684 127.244 211.171 127.737 210.855C129.394 209.749 131.485 211.23 133.437 211.645C136.298 212.237 139.394 209.907 139.611 206.984C143.261 209.946 148.705 206.786 147.955 202.145C151.23 202.086 155.629 198.155 152.472 189.999C157.779 182.869 154.899 172.58 146.653 169.262C147.147 163.534 141.722 158.024 135.982 158.439C136.258 149.314 130.656 149.117 128.881 150.736C129.275 146.727 124.995 143.824 121.424 145.74C121.701 144.021 120.261 140.466 116.059 140.585C111.463 140.723 99.608 144.061 95.939 154.765Z" fill="#F2BD57" stroke="#03403F" stroke-width="0.987488" stroke-linecap="round" stroke-linejoin="round"/>
<path d="M106.118 143.489C104.244 144.831 102.094 147.794 103.119 149.512C105.21 153.008 117.164 152.889 121.425 145.74" stroke="#03403F" stroke-width="0.987488" stroke-linecap="round" stroke-linejoin="round"/>
<path d="M95.7025 176.076C100.89 176.708 118.446 186.76 117.105 191.342C116.02 195.036 105.092 193.337 99.7463 191.994" stroke="#03403F" stroke-width="0.987488" stroke-linecap="round" stroke-linejoin="round"/>
<path d="M128.881 150.756C127.894 156.82 123.003 165.036 119.728 165.648C117.913 165.984 113.633 164.483 116.158 156.168C116.611 154.667 117.302 150.954 117.756 149.453" stroke="#03403F" stroke-width="0.987488" stroke-linecap="round" stroke-linejoin="round"/>
<path d="M95.1305 157.59C96.8466 159.348 99.8054 162.211 102.094 163.179C105.743 164.7 111.226 163.772 113.278 160.454C117.223 154.153 107.755 152.593 98.7994 149.453" stroke="#03403F" stroke-width="0.987488" stroke-linecap="round" stroke-linejoin="round"/>
<path d="M102.133 163.495C102.705 167.188 107.775 171.059 111.049 171.987C114.402 172.916 117.164 171.474 117.598 170.407C118.111 169.104 116.059 164.344 112.39 161.599" stroke="#03403F" stroke-width="0.987488" stroke-linecap="round" stroke-linejoin="round"/>
<path d="M126.06 158.616C126.691 161.599 127.559 164.067 130.794 163.653C133.201 163.337 133.891 161.934 135.962 158.439" stroke="#03403F" stroke-width="0.987488" stroke-linecap="round" stroke-linejoin="round"/>
<path d="M127.973 162.981C120.991 177.833 127.204 182.672 132.234 176.293C136.298 171.138 140.203 164.245 135.962 158.459" stroke="#03403F" stroke-width="0.987488" stroke-linecap="round" stroke-linejoin="round"/>
<path d="M118.564 165.608C115.665 171.849 120.182 178.702 125.192 170.941" stroke="#03403F" stroke-width="0.987488" stroke-linecap="round" stroke-linejoin="round"/>
<path d="M94.1243 170.941C96.2743 163.791 115.408 173.666 115.822 178.781C116.059 181.645 113.771 185.082 109.905 182.929" stroke="#03403F" stroke-width="0.987488" stroke-linecap="round" stroke-linejoin="round"/>
<path d="M102.626 169.064C103.376 168.985 104.066 168.511 104.382 167.84" stroke="#03403F" stroke-width="0.987488" stroke-linecap="round" stroke-linejoin="round"/>
<path d="M134.7 172.915C135.43 183.798 144.444 190.137 146.654 169.262" stroke="#03403F" stroke-width="0.987488" stroke-linecap="round" stroke-linejoin="round"/>
<path d="M102.133 196.753C108.307 195.252 125.587 201.335 127.106 211.408" stroke="#03403F" stroke-width="0.987488" stroke-linecap="round" stroke-linejoin="round"/>
<path d="M116.118 192.606C117.716 196.951 124.147 204.179 126.987 205.562C136.672 210.242 130.774 189.821 115.526 187.649" stroke="#03403F" stroke-width="0.987488" stroke-linecap="round" stroke-linejoin="round"/>
<path d="M115.527 187.629C119.511 188.498 121.267 180.243 115.349 177.419" stroke="#03403F" stroke-width="0.987488" stroke-linecap="round" stroke-linejoin="round"/>
<path d="M139.611 206.984C122.43 192.231 136.988 174.496 147.955 202.145" stroke="#03403F" stroke-width="0.987488" stroke-linecap="round" stroke-linejoin="round"/>
<path d="M152.453 190.019C149.001 185.595 141.347 185.417 143.576 193.594" stroke="#03403F" stroke-width="0.987488" stroke-linecap="round" stroke-linejoin="round"/>
<path d="M149.238 187.53C145.253 185.713 143.576 181.724 144.622 178.801" stroke="#03403F" stroke-width="0.987488" stroke-linecap="round" stroke-linejoin="round"/>
<path d="M133.733 188.182C129.67 184.489 133.28 179.156 136.949 180.519" stroke="#03403F" stroke-width="0.987488" stroke-linecap="round" stroke-linejoin="round"/>
<path d="M123.614 190.868C120.793 187.175 124.048 180.677 131.978 185.101" stroke="#03403F" stroke-width="0.987488" stroke-linecap="round" stroke-linejoin="round"/>
<path d="M130.064 206.174C129.394 207.478 129.334 209.512 131.149 210.914" stroke="#03403F" stroke-width="0.987488" stroke-linecap="round" stroke-linejoin="round"/>
<path d="M122.647 203.903C123.18 204.081 123.811 203.626 123.693 202.975" stroke="#03403F" stroke-width="0.987488" stroke-linecap="round" stroke-linejoin="round"/>
<path d="M119.807 174.18C116.611 183.383 123.476 185.319 126.731 178.703" stroke="#03403F" stroke-width="0.987488" stroke-linecap="round" stroke-linejoin="round"/>
<path d="M131.978 185.101C129.631 183.739 127.638 181.566 127.283 178.959" stroke="#03403F" stroke-width="0.987488" stroke-linecap="round" stroke-linejoin="round"/>
<path d="M100.299 188.459C103.277 190.434 107.064 191.145 110.556 190.394" stroke="#03403F" stroke-width="0.987488" stroke-linecap="round" stroke-linejoin="round"/>
<path d="M111.246 204.081C113.574 206.352 116.927 207.537 120.162 207.221" stroke="#03403F" stroke-width="0.987488" stroke-linecap="round" stroke-linejoin="round"/>
<path d="M112.134 196.023C113.179 196.26 114.225 196.497 115.27 196.734" stroke="#03403F" stroke-width="0.987488" stroke-linecap="round" stroke-linejoin="round"/>
<path d="M121.523 196.734C122.431 199.42 124.877 201.513 127.658 202.007" stroke="#03403F" stroke-width="0.987488" stroke-linecap="round" stroke-linejoin="round"/>
<path d="M139.809 203.923C141.683 206.707 146.397 205.048 146.141 201.099" stroke="#03403F" stroke-width="0.987488" stroke-linecap="round" stroke-linejoin="round"/>
<path d="M148.567 199.005C149.573 199.735 152.078 196.911 151.269 193.909" stroke="#03403F" stroke-width="0.987488" stroke-linecap="round" stroke-linejoin="round"/>
<path d="M140.756 188.498C142.077 189.446 143.576 186.424 143.714 184.667" stroke="#03403F" stroke-width="0.987488" stroke-linecap="round" stroke-linejoin="round"/>
<path d="M150.165 174.89C153.143 176.806 153.163 180.697 152.256 184.153" stroke="#03403F" stroke-width="0.987488" stroke-linecap="round" stroke-linejoin="round"/>
<path d="M142.294 164.759C145.272 167.643 145.568 172.323 143.004 175.582" stroke="#03403F" stroke-width="0.987488" stroke-linecap="round" stroke-linejoin="round"/>
<path d="M134.917 163.317C136.12 166.892 134.759 171.158 131.721 173.39" stroke="#03403F" stroke-width="0.987488" stroke-linecap="round" stroke-linejoin="round"/>
<path d="M133.516 153.166C134.384 155.082 134.128 157.452 132.865 159.13" stroke="#03403F" stroke-width="0.987488" stroke-linecap="round" stroke-linejoin="round"/>
<path d="M121.208 171.553C122.766 172.047 124.778 168.452 125.429 167.03" stroke="#03403F" stroke-width="0.987488" stroke-linecap="round" stroke-linejoin="round"/>
<path d="M119.432 162.389C122.194 162.981 124.995 157.017 125.902 154.449" stroke="#03403F" stroke-width="0.987488" stroke-linecap="round" stroke-linejoin="round"/>
<path d="M112.824 153.778C114.087 154.173 115.586 153.62 116.296 152.494" stroke="#03403F" stroke-width="0.987488" stroke-linecap="round" stroke-linejoin="round"/>
<path d="M110.733 149.532C113.238 149.394 115.665 148.248 117.361 146.412" stroke="#03403F" stroke-width="0.987488" stroke-linecap="round" stroke-linejoin="round"/>
<path d="M103.257 161.046C105.802 163.436 109.057 160.908 111.246 158.637" stroke="#03403F" stroke-width="0.987488" stroke-linecap="round" stroke-linejoin="round"/>
<path d="M109.846 169.479C111.325 170.19 113.14 170.111 114.54 169.281" stroke="#03403F" stroke-width="0.987488" stroke-linecap="round" stroke-linejoin="round"/>
<path d="M114.718 174.752C115.763 175.305 117.183 174.95 117.854 173.982" stroke="#03403F" stroke-width="0.987488" stroke-linecap="round" stroke-linejoin="round"/>
<path d="M131.208 208.702C132.451 210.144 134.897 210.322 136.337 209.078" stroke="#03403F" stroke-width="0.987488" stroke-linecap="round" stroke-linejoin="round"/>
<path d="M126.948 185.042C128.9 185.635 130.577 187.037 131.524 188.854" stroke="#03403F" stroke-width="0.987488" stroke-linecap="round" stroke-linejoin="round"/>
<path d="M120.241 187.432C120.754 185.95 121.799 184.647 123.121 183.817" stroke="#03403F" stroke-width="0.987488" stroke-linecap="round" stroke-linejoin="round"/>
<path d="M115.29 185.496C116.434 185.24 117.322 184.094 117.282 182.929" stroke="#03403F" stroke-width="0.987488" stroke-linecap="round" stroke-linejoin="round"/>
<path d="M109.668 181.19C110.457 181.921 112.075 181.704 112.785 178.722" stroke="#03403F" stroke-width="0.987488" stroke-linecap="round" stroke-linejoin="round"/>
<path d="M96.2548 166.635C97.7736 167.09 99.5292 166.774 100.792 165.786" stroke="#03403F" stroke-width="0.987488" stroke-linecap="round" stroke-linejoin="round"/>
<path d="M130.794 180.5C132.037 180.282 133.142 179.473 133.733 178.367" stroke="#03403F" stroke-width="0.987488" stroke-linecap="round" stroke-linejoin="round"/>
<path d="M121.385 180.954C122.963 181.546 123.95 179.789 124.502 178.367" stroke="#03403F" stroke-width="0.987488" stroke-linecap="round" stroke-linejoin="round"/>
<path d="M131.978 206.905C133.043 207.754 134.798 207.557 135.646 206.49" stroke="#03403F" stroke-width="0.987488" stroke-linecap="round" stroke-linejoin="round"/>
<path d="M139.533 186.444C140.282 186.128 140.874 185.457 141.071 184.667" stroke="#03403F" stroke-width="0.987488" stroke-linecap="round" stroke-linejoin="round"/>
<path d="M140.893 201.711C141.84 201.869 142.846 201.375 143.32 200.545" stroke="#03403F" stroke-width="0.987488" stroke-linecap="round" stroke-linejoin="round"/>
<path d="M149.356 177.103C150.263 178.011 150.697 179.374 150.48 180.658" stroke="#03403F" stroke-width="0.987488" stroke-linecap="round" stroke-linejoin="round"/>
<path d="M140.992 166.813C141.525 167.958 141.801 169.242 141.781 170.506" stroke="#03403F" stroke-width="0.987488" stroke-linecap="round" stroke-linejoin="round"/>
<path d="M124.502 147.3C125.587 147.833 126.316 149.038 126.277 150.263" stroke="#03403F" stroke-width="0.987488" stroke-linecap="round" stroke-linejoin="round"/>
<path opacity="0.2" d="M92.8422 205.621C90.4554 195.806 81.638 185.931 83.0188 161.244C83.1174 159.348 80.4742 159.229 79.8825 160.809C65.9168 199.124 96.2744 219.683 92.8422 205.602V205.621Z" fill="white"/>
<path d="M153.597 198.729C151.822 197.662 150.105 198.156 147.876 192.705C144.129 183.6 148.034 189.13 140.341 177.675C139.197 175.977 140.243 175.068 141.781 175.582C145.45 176.806 145.352 180.184 151.328 179.433C165.117 177.735 165.136 182.968 167.977 181.625C169.575 180.855 171.074 175.147 178.826 170.96C181.43 169.558 184.369 168.551 186.361 166.359C186.992 165.648 187.998 164.779 188.728 165.411C190.306 166.813 187.762 171.355 187.406 173.271C186.696 177.142 189.497 180.993 187.406 186.898C185.868 191.184 187.564 192.33 192.16 193.929C203.621 197.899 202.082 201.217 206.599 203.152C210.347 204.752 208.099 206.609 206.816 206.747C204.43 206.984 202.023 206.253 199.636 206.352C194.961 206.549 191.194 212.198 183.461 208.584C188.708 221.125 182.337 221.401 183.54 230.15C183.718 231.434 184.014 233.409 182.455 233.844C180.66 234.337 179.832 231.671 179.497 230.98C176.735 225.252 170.225 227.622 166.28 218.004C165.491 216.069 161.191 219.13 160.244 219.505C157.424 220.611 154.287 218.814 151.269 218.972C149.099 219.091 147.107 220.197 145.075 220.987C141.939 222.211 140.854 219.92 142.334 218.143C142.965 217.372 143.892 216.879 144.622 216.207C146.851 214.153 147.107 210.796 148.192 207.952C150.816 201.099 155.352 199.795 153.636 198.748L153.597 198.729Z" fill="#BFE375" stroke="#03403F" stroke-width="0.987488" stroke-linecap="round" stroke-linejoin="round"/>
<path d="M143.931 179.552C168.431 196.892 171.409 199.558 173.046 204.377C175.236 210.816 177.879 217.53 179.201 224.186" stroke="#03403F" stroke-width="0.987488" stroke-linecap="round" stroke-linejoin="round"/>
<path d="M146.555 216.918C157.897 213.916 164.801 201.197 176.261 198.729C183.954 197.07 191.746 200.447 199.577 201.079" stroke="#03403F" stroke-width="0.987488" stroke-linecap="round" stroke-linejoin="round"/>
<path d="M184.665 171.217C183.363 178.564 174.684 186.444 171.034 200.625" stroke="#03403F" stroke-width="0.987488" stroke-linecap="round" stroke-linejoin="round"/>
<path d="M186.046 194.699C184.093 194.225 183.008 192.093 183.797 190.236" stroke="#03403F" stroke-width="0.987488" stroke-linecap="round" stroke-linejoin="round"/>
<path d="M186.144 193.278C185.473 192.863 185.158 191.974 185.414 191.224" stroke="#03403F" stroke-width="0.987488" stroke-linecap="round" stroke-linejoin="round"/>
<path d="M165.846 184.805C167.859 186.563 169.476 186.247 170.206 185.397" stroke="#03403F" stroke-width="0.987488" stroke-linecap="round" stroke-linejoin="round"/>
<path d="M167.03 183.738C167.503 184.054 168.135 184.094 168.648 183.837" stroke="#03403F" stroke-width="0.987488" stroke-linecap="round" stroke-linejoin="round"/>
<path d="M155.747 200.704C156.93 200.131 157.108 198.472 156.043 197.682" stroke="#03403F" stroke-width="0.987488" stroke-linecap="round" stroke-linejoin="round"/>
<path d="M158.015 200.526C158.529 200.012 158.608 199.104 158.213 198.491" stroke="#03403F" stroke-width="0.987488" stroke-linecap="round" stroke-linejoin="round"/>
<path d="M164.9 214.686C165.768 214.192 167.05 214.686 167.365 215.614" stroke="#03403F" stroke-width="0.987488" stroke-linecap="round" stroke-linejoin="round"/>
<path d="M165.432 212.889C166.221 212.553 167.227 212.771 167.78 213.422" stroke="#03403F" stroke-width="0.987488" stroke-linecap="round" stroke-linejoin="round"/>
<path d="M182.061 208.939C180.522 207.201 182.179 205.503 183.264 206.194" stroke="#03403F" stroke-width="0.987488" stroke-linecap="round" stroke-linejoin="round"/>
<path d="M180.148 207.458C179.043 206.668 179.812 204.91 181.134 205.167" stroke="#03403F" stroke-width="0.987488" stroke-linecap="round" stroke-linejoin="round"/>
<g opacity="0.2">
<path d="M162.809 183.995C157.542 179.057 153.597 181.763 155.984 183.442C160.382 186.562 161.152 187.964 162.809 186.562C163.46 186.009 163.538 184.686 162.809 183.995Z" fill="white"/>
<path d="M178.037 175.957C175.256 174.574 173.145 179.334 173.835 182.296C174.052 183.244 175.394 183.363 175.867 182.553C177.603 179.591 180.483 177.162 178.037 175.937V175.957Z" fill="white"/>
<path d="M158.074 204.574C156.615 200.368 151.545 207.734 150.914 209.927C149.612 214.43 159.08 207.478 158.074 204.574Z" fill="white"/>
<path d="M172.849 190.256C172.415 189.327 170.778 188.794 169.377 191.974C168.845 193.179 169.772 193.376 166.655 191.421C165.412 190.651 163.893 192.527 165.057 193.495C167.858 195.825 169.239 197.464 170.837 196.536C171.764 196.003 173.658 192.033 172.829 190.236L172.849 190.256Z" fill="white"/>
<path d="M179.753 192.981C179.477 192.705 180.759 191.184 180.857 188.755C180.897 187.925 179.753 186.345 177.129 190.73C171.547 200.032 183.205 196.497 179.753 192.981Z" fill="white"/>
<path d="M173.894 208.228C172.158 201.631 168.805 202.283 166.182 207.774C165.432 209.334 167.444 210.46 168.45 209.097C170.344 206.569 169.594 207.576 170.699 211.309C171.764 214.923 175.906 215.851 173.894 208.228Z" fill="white"/>
<path d="M190.365 203.172C188.728 201.474 185.434 200.921 179.556 199.894C177.484 199.538 176.557 202.599 178.668 203.113C179.773 203.389 194.823 207.774 190.365 203.172Z" fill="white"/>
<path d="M155.431 189.149C154.228 188.122 153.123 186.997 152.098 185.772C150.934 184.37 148.626 186.187 149.592 187.708C155.964 197.741 161.901 194.62 155.431 189.149Z" fill="white"/>
</g>
<path d="M113.417 86.6733C113.417 87.4101 113.227 88.0657 112.848 88.64C112.468 89.2035 111.927 89.6478 111.222 89.9729C110.529 90.2979 109.689 90.4605 108.703 90.4605C107.728 90.4605 106.877 90.2979 106.151 89.9729C105.436 89.6369 104.872 89.1656 104.461 88.5587C104.049 87.9519 103.81 87.2368 103.745 86.4132H106.249C106.281 87.0634 106.498 87.5781 106.899 87.9573C107.31 88.3366 107.896 88.5262 108.654 88.5262C109.077 88.5262 109.445 88.4666 109.759 88.3474C110.084 88.2282 110.339 88.0549 110.523 87.8273C110.708 87.5998 110.8 87.3343 110.8 87.0309C110.8 86.6624 110.664 86.3699 110.393 86.1531C110.122 85.9256 109.738 85.7631 109.239 85.6655L107.321 85.2917C106.877 85.2158 106.465 85.0912 106.086 84.9178C105.707 84.7445 105.376 84.5277 105.094 84.2677C104.813 84.0076 104.591 83.6934 104.428 83.3249C104.266 82.9565 104.184 82.5339 104.184 82.0571C104.184 81.3636 104.368 80.746 104.737 80.2042C105.116 79.6624 105.631 79.2398 106.281 78.9364C106.942 78.6329 107.695 78.4812 108.54 78.4812C109.418 78.4812 110.198 78.6438 110.881 78.9689C111.564 79.2939 112.116 79.7545 112.539 80.3505C112.961 80.9356 113.194 81.6345 113.238 82.4472H110.735C110.713 82.0355 110.605 81.6779 110.41 81.3745C110.225 81.0602 109.976 80.8218 109.662 80.6593C109.348 80.4859 108.985 80.3992 108.573 80.3992C108.172 80.3992 107.831 80.4696 107.549 80.6105C107.278 80.7406 107.067 80.9193 106.915 81.1469C106.763 81.3636 106.687 81.6129 106.687 81.8946C106.687 82.1547 106.758 82.3714 106.899 82.5447C107.05 82.7181 107.245 82.859 107.484 82.9674C107.722 83.0649 107.982 83.1407 108.264 83.1949L110.263 83.6013C111.293 83.8071 112.073 84.1593 112.604 84.6578C113.146 85.1454 113.417 85.8172 113.417 86.6733ZM117.303 90.2979H115.043V81.6183H117.303V90.2979ZM117.66 79.6028C117.66 79.982 117.519 80.3017 117.238 80.5618C116.967 80.811 116.604 80.9356 116.149 80.9356C115.704 80.9356 115.341 80.811 115.06 80.5618C114.789 80.3017 114.653 79.982 114.653 79.6028C114.653 79.2018 114.789 78.8768 115.06 78.6275C115.341 78.3675 115.704 78.2374 116.149 78.2374C116.604 78.2374 116.967 78.3675 117.238 78.6275C117.519 78.8768 117.66 79.2018 117.66 79.6028ZM118.744 85.9581C118.744 85.1021 118.901 84.3327 119.216 83.65C119.541 82.9674 119.99 82.431 120.565 82.0409C121.15 81.6508 121.827 81.4557 122.597 81.4557C123.117 81.4557 123.593 81.5641 124.027 81.7808C124.46 81.9975 124.84 82.3172 125.165 82.7398V78.6275H127.408V90.2979H125.343V89.0464C124.997 89.4906 124.59 89.8374 124.124 90.0866C123.669 90.3359 123.16 90.4605 122.597 90.4605C121.827 90.4605 121.15 90.2654 120.565 89.8753C119.99 89.4744 119.541 88.9326 119.216 88.2499C118.901 87.5673 118.744 86.8033 118.744 85.9581ZM121.069 85.9581C121.069 86.7708 121.269 87.3885 121.67 87.8111C122.071 88.2337 122.548 88.445 123.1 88.445C123.48 88.445 123.821 88.3474 124.124 88.1524C124.439 87.9573 124.688 87.6756 124.872 87.3072C125.056 86.9279 125.148 86.4674 125.148 85.9256C125.148 85.3838 125.051 84.9287 124.856 84.5603C124.672 84.1918 124.422 83.9155 124.108 83.7313C123.805 83.5471 123.469 83.455 123.1 83.455C122.548 83.455 122.071 83.6663 121.67 84.0889C121.269 84.5007 121.069 85.1237 121.069 85.9581ZM131.684 86.0881V90.2979H129.424V81.6183H131.505V83.2924C131.83 82.7398 132.301 82.3064 132.919 81.9921C133.537 81.6779 134.192 81.5207 134.886 81.5207V83.8613C134.257 83.818 133.699 83.8505 133.212 83.9589C132.735 84.0564 132.361 84.2785 132.09 84.6253C131.819 84.9612 131.684 85.4488 131.684 86.0881ZM139.767 90.4442C138.9 90.4442 138.136 90.26 137.475 89.8916C136.825 89.5123 136.321 88.9814 135.963 88.2987C135.606 87.616 135.427 86.825 135.427 85.9256C135.427 85.0587 135.611 84.2894 135.98 83.6175C136.348 82.9457 136.857 82.4201 137.507 82.0409C138.158 81.6508 138.9 81.4557 139.734 81.4557C140.417 81.4557 141.035 81.5858 141.587 81.8458C142.151 82.0951 142.622 82.4526 143.001 82.9186C143.381 83.3845 143.652 83.9263 143.814 84.544C143.977 85.1508 144.004 85.8064 143.895 86.5107H136.76V85.0804H141.506C141.484 84.4736 141.306 83.9968 140.97 83.65C140.645 83.2924 140.216 83.1136 139.686 83.1136C139.263 83.1136 138.905 83.222 138.613 83.4387C138.32 83.6554 138.093 83.9751 137.93 84.3977C137.778 84.8095 137.703 85.3188 137.703 85.9256C137.703 86.5216 137.778 87.0254 137.93 87.4372C138.082 87.849 138.309 88.1632 138.613 88.38C138.916 88.5967 139.285 88.705 139.718 88.705C140.216 88.705 140.628 88.5858 140.953 88.3474C141.278 88.1091 141.506 87.7786 141.636 87.3559H143.879C143.63 88.3312 143.148 89.0897 142.432 89.6315C141.717 90.1733 140.829 90.4442 139.767 90.4442Z" fill="#03403F"/>
<path d="M85.4004 106.479C85.4004 107.378 85.0645 108.093 84.3926 108.624C83.7317 109.155 82.7835 109.42 81.5482 109.42C80.3237 109.42 79.3647 109.144 78.6712 108.592C77.9886 108.028 77.6039 107.264 77.5172 106.3H79.679C79.6898 106.744 79.8686 107.102 80.2154 107.372C80.5729 107.633 81.0281 107.763 81.5807 107.763C82.025 107.763 82.3934 107.692 82.686 107.551C82.9785 107.4 83.1248 107.172 83.1248 106.869C83.1248 106.598 83.0327 106.392 82.8485 106.251C82.6643 106.11 82.3609 106.002 81.9383 105.926L80.3779 105.633C79.5977 105.492 78.9855 105.211 78.5412 104.788C78.0969 104.365 77.8748 103.818 77.8748 103.146C77.8748 102.605 78.0211 102.128 78.3136 101.716C78.6062 101.304 79.018 100.985 79.5489 100.757C80.0799 100.53 80.703 100.416 81.4182 100.416C82.1442 100.416 82.7835 100.54 83.3361 100.79C83.8996 101.028 84.3439 101.375 84.669 101.83C85.0049 102.285 85.1999 102.821 85.2541 103.439H83.0923C83.0598 103.016 82.8919 102.686 82.5884 102.448C82.285 102.198 81.8949 102.074 81.4182 102.074C81.0064 102.074 80.6705 102.15 80.4104 102.301C80.1612 102.442 80.0366 102.653 80.0366 102.935C80.0366 103.195 80.1287 103.39 80.3129 103.52C80.4971 103.639 80.7843 103.737 81.1743 103.813L82.8485 104.122C83.6937 104.284 84.3276 104.561 84.7502 104.951C85.1837 105.341 85.4004 105.85 85.4004 106.479ZM90.7138 109.404C89.8469 109.404 89.083 109.22 88.422 108.852C87.7718 108.472 87.268 107.941 86.9104 107.259C86.5528 106.576 86.374 105.785 86.374 104.886C86.374 104.019 86.5582 103.249 86.9266 102.578C87.2951 101.906 87.8043 101.38 88.4545 101.001C89.1047 100.611 89.8469 100.416 90.6813 100.416C91.364 100.416 91.9816 100.546 92.5343 100.806C93.0978 101.055 93.5691 101.413 93.9484 101.879C94.3276 102.345 94.5985 102.886 94.7611 103.504C94.9236 104.111 94.9507 104.766 94.8424 105.471H87.7068V104.04H92.453C92.4313 103.434 92.2525 102.957 91.9166 102.61C91.5915 102.252 91.1635 102.074 90.6326 102.074C90.2099 102.074 89.8524 102.182 89.5598 102.399C89.2672 102.615 89.0397 102.935 88.8771 103.358C88.7254 103.769 88.6496 104.279 88.6496 104.886C88.6496 105.482 88.7254 105.985 88.8771 106.397C89.0288 106.809 89.2564 107.123 89.5598 107.34C89.8632 107.557 90.2316 107.665 90.6651 107.665C91.1635 107.665 91.5753 107.546 91.9004 107.307C92.2255 107.069 92.453 106.739 92.583 106.316H94.8261C94.5769 107.291 94.0947 108.05 93.3795 108.592C92.6643 109.133 91.7758 109.404 90.7138 109.404ZM98.6149 109.258H96.3556V100.578H98.4361V101.814C98.7504 101.369 99.1188 101.028 99.5414 100.79C99.964 100.54 100.462 100.416 101.037 100.416C101.633 100.416 102.147 100.551 102.581 100.822C103.025 101.082 103.356 101.461 103.572 101.96C103.919 101.483 104.32 101.109 104.775 100.838C105.23 100.557 105.783 100.416 106.433 100.416C107.311 100.416 108.021 100.697 108.562 101.261C109.104 101.814 109.375 102.61 109.375 103.65V109.258H107.132V104.365C107.132 103.748 107.002 103.271 106.742 102.935C106.493 102.588 106.119 102.415 105.62 102.415C105.328 102.415 105.057 102.496 104.808 102.659C104.559 102.811 104.358 103.033 104.206 103.325C104.065 103.618 103.995 103.981 103.995 104.414V109.258H101.752V104.365C101.752 103.748 101.622 103.271 101.362 102.935C101.113 102.588 100.739 102.415 100.24 102.415C99.9369 102.415 99.6606 102.496 99.4114 102.659C99.1622 102.811 98.9671 103.033 98.8262 103.325C98.6854 103.618 98.6149 103.981 98.6149 104.414V109.258ZM113.567 109.258H111.308V100.578H113.567V109.258ZM113.925 98.5628C113.925 98.942 113.784 99.2617 113.502 99.5218C113.231 99.771 112.868 99.8956 112.413 99.8956C111.969 99.8956 111.606 99.771 111.324 99.5218C111.053 99.2617 110.918 98.942 110.918 98.5628C110.918 98.1619 111.053 97.8368 111.324 97.5875C111.606 97.3275 111.969 97.1974 112.413 97.1974C112.868 97.1974 113.231 97.3275 113.502 97.5875C113.784 97.8368 113.925 98.1619 113.925 98.5628ZM119.983 105.796H115.025V103.78H119.983V105.796ZM128.766 106.479C128.766 107.378 128.43 108.093 127.758 108.624C127.097 109.155 126.149 109.42 124.913 109.42C123.689 109.42 122.73 109.144 122.037 108.592C121.354 108.028 120.969 107.264 120.882 106.3H123.044C123.055 106.744 123.234 107.102 123.581 107.372C123.938 107.633 124.393 107.763 124.946 107.763C125.39 107.763 125.759 107.692 126.051 107.551C126.344 107.4 126.49 107.172 126.49 106.869C126.49 106.598 126.398 106.392 126.214 106.251C126.03 106.11 125.726 106.002 125.304 105.926L123.743 105.633C122.963 105.492 122.351 105.211 121.906 104.788C121.462 104.365 121.24 103.818 121.24 103.146C121.24 102.605 121.386 102.128 121.679 101.716C121.972 101.304 122.383 100.985 122.914 100.757C123.445 100.53 124.068 100.416 124.783 100.416C125.509 100.416 126.149 100.54 126.701 100.79C127.265 101.028 127.709 101.375 128.034 101.83C128.37 102.285 128.565 102.821 128.619 103.439H126.458C126.425 103.016 126.257 102.686 125.954 102.448C125.65 102.198 125.26 102.074 124.783 102.074C124.372 102.074 124.036 102.15 123.776 102.301C123.526 102.442 123.402 102.653 123.402 102.935C123.402 103.195 123.494 103.39 123.678 103.52C123.862 103.639 124.15 103.737 124.54 103.813L126.214 104.122C127.059 104.284 127.693 104.561 128.116 104.951C128.549 105.341 128.766 105.85 128.766 106.479ZM137.205 109.258L135.564 103.618L133.938 109.258H131.679L129.208 100.578H131.403L132.882 106.072L134.475 100.578H136.701L138.245 106.072L139.708 100.578H141.935L139.448 109.258H137.205ZM146.619 109.404C145.752 109.404 144.988 109.22 144.327 108.852C143.677 108.472 143.173 107.941 142.815 107.259C142.458 106.576 142.279 105.785 142.279 104.886C142.279 104.019 142.463 103.249 142.832 102.578C143.2 101.906 143.709 101.38 144.36 101.001C145.01 100.611 145.752 100.416 146.586 100.416C147.269 100.416 147.887 100.546 148.439 100.806C149.003 101.055 149.474 101.413 149.853 101.879C150.233 102.345 150.504 102.886 150.666 103.504C150.829 104.111 150.856 104.766 150.747 105.471H143.612V104.04H148.358C148.336 103.434 148.158 102.957 147.822 102.61C147.497 102.252 147.069 102.074 146.538 102.074C146.115 102.074 145.757 102.182 145.465 102.399C145.172 102.615 144.945 102.935 144.782 103.358C144.63 103.769 144.555 104.279 144.555 104.886C144.555 105.482 144.63 105.985 144.782 106.397C144.934 106.809 145.161 107.123 145.465 107.34C145.768 107.557 146.137 107.665 146.57 107.665C147.069 107.665 147.48 107.546 147.805 107.307C148.13 107.069 148.358 106.739 148.488 106.316H150.731C150.482 107.291 150 108.05 149.285 108.592C148.569 109.133 147.681 109.404 146.619 109.404ZM155.873 109.404C155.006 109.404 154.242 109.22 153.581 108.852C152.931 108.472 152.427 107.941 152.069 107.259C151.712 106.576 151.533 105.785 151.533 104.886C151.533 104.019 151.717 103.249 152.086 102.578C152.454 101.906 152.963 101.38 153.614 101.001C154.264 100.611 155.006 100.416 155.84 100.416C156.523 100.416 157.141 100.546 157.693 100.806C158.257 101.055 158.728 101.413 159.107 101.879C159.487 102.345 159.758 102.886 159.92 103.504C160.083 104.111 160.11 104.766 160.001 105.471H152.866V104.04H157.612C157.59 103.434 157.412 102.957 157.076 102.61C156.751 102.252 156.323 102.074 155.792 102.074C155.369 102.074 155.011 102.182 154.719 102.399C154.426 102.615 154.199 102.935 154.036 103.358C153.884 103.769 153.809 104.279 153.809 104.886C153.809 105.482 153.884 105.985 154.036 106.397C154.188 106.809 154.415 107.123 154.719 107.34C155.022 107.557 155.391 107.665 155.824 107.665C156.323 107.665 156.734 107.546 157.059 107.307C157.385 107.069 157.612 106.739 157.742 106.316H159.985C159.736 107.291 159.254 108.05 158.539 108.592C157.823 109.133 156.935 109.404 155.873 109.404ZM166.848 107.064V109.03C166.577 109.171 166.3 109.269 166.019 109.323C165.748 109.388 165.444 109.42 165.108 109.42C164.523 109.42 164.008 109.312 163.564 109.095C163.131 108.868 162.795 108.532 162.556 108.088C162.318 107.633 162.199 107.085 162.199 106.446V102.513H160.443V100.578H162.199V98.0101H164.442V100.578H166.929V102.513H164.442V105.926C164.442 106.424 164.55 106.787 164.767 107.015C164.995 107.232 165.309 107.34 165.71 107.34C165.926 107.34 166.132 107.318 166.327 107.275C166.522 107.221 166.696 107.15 166.848 107.064Z" fill="#03403F"/>
<path d="M51.159 114.696L50.0083 120.269L25.1166 115.117L26.2673 109.544L51.159 114.696ZM44.9551 97.8367L41.0425 116.786L36.0642 115.756L39.9767 96.8062L44.9551 97.8367ZM34.4819 95.0878L30.4543 114.594L25.4388 113.556L29.4664 94.0497L34.4819 95.0878Z" fill="#8A79F3"/>
<path d="M57.7924 92.5766L54.9204 97.4896L32.9893 84.6378L40.0736 72.519C41.133 70.7067 42.2948 69.3207 43.5589 68.3612C44.8011 67.3888 46.1047 66.8628 47.4696 66.7832C48.8346 66.7036 50.2153 67.073 51.6119 67.8914C52.8121 68.5948 53.7037 69.4251 54.2868 70.3823C54.8698 71.3396 55.1551 72.4302 55.1427 73.6543C55.1085 74.8655 54.7548 76.1973 54.0815 77.6496L54.3434 77.8031C55.1797 76.9739 56.0001 76.4726 56.8046 76.2992C57.6092 76.1257 58.5146 76.0553 59.5209 76.088L67.2701 76.3636L63.9385 82.0627L56.4815 81.7384C55.7354 81.7116 55.103 81.7661 54.5842 81.9018C54.0654 82.0375 53.5873 82.329 53.15 82.7764C52.7037 83.1891 52.2316 83.8212 51.7338 84.6728L49.8383 87.9154L57.7924 92.5766ZM40.2802 82.3143L46.1395 85.7479L50.3326 78.5749C51.0091 77.4176 51.3105 76.4509 51.2369 75.6748C51.1413 74.886 50.5153 74.1527 49.3587 73.4749C48.2676 72.8355 47.3552 72.6673 46.6215 72.9702C45.8659 73.2603 45.1499 73.984 44.4734 75.1413L40.2802 82.3143Z" fill="#8A79F3"/>
<path d="M77.6604 67.9837C75.5514 69.7593 73.506 70.9028 71.5243 71.414C69.5425 71.9253 67.665 71.8528 65.8918 71.1966C64.1186 70.5404 62.4999 69.3407 61.036 67.5976L51.52 56.2672L55.8735 52.602L65.121 63.6128C66.0482 64.7168 66.9512 65.4774 67.8301 65.8947C68.7121 66.2763 69.6524 66.2947 70.651 65.9499C71.6527 65.5694 72.8017 64.8335 74.0981 63.7421C75.4331 62.6181 76.3641 61.6028 76.8909 60.6964C77.4015 59.7706 77.5351 58.8481 77.2916 57.9289C77.0318 56.9904 76.4384 55.9691 75.5112 54.8651L66.2637 43.8543L70.6171 40.189L80.133 51.5195C81.597 53.2626 82.4997 55.065 82.8411 56.9267C83.1826 58.7883 82.9317 60.6527 82.0886 62.5197C81.2648 64.3705 79.7888 66.1918 77.6604 67.9837Z" fill="#8A79F3"/>
<path d="M95.0518 56.5351L89.9534 59.0635L78.682 36.2798L83.7804 33.7514L95.0518 56.5351Z" fill="#8A79F3"/>
<path d="M111.347 51.3693L105.806 52.6664L100.025 27.9131L105.566 26.6159L111.347 51.3693ZM115.929 29.4503L91.9919 35.054L90.8272 30.0664L114.765 24.4626L115.929 29.4503Z" fill="#8A79F3"/>
<path d="M141.505 52.1133C138.783 51.5366 136.53 50.5162 134.745 49.0521C132.991 47.5686 131.771 45.7588 131.085 43.6226C130.429 41.467 130.375 39.09 130.925 36.4916C131.474 33.8933 132.482 31.7542 133.949 30.0742C135.445 28.3747 137.293 27.215 139.493 26.5951C141.722 25.9558 144.197 25.9244 146.919 26.5012C149.517 27.0517 151.67 27.9346 153.378 29.1497C155.11 30.37 156.337 31.8451 157.057 33.5748C157.777 35.3045 157.912 37.2334 157.462 39.3616L157.345 39.9184L151.146 38.605L151.264 38.0482C151.609 36.4149 151.358 35.0949 150.511 34.088C149.689 33.0864 148.152 32.3471 145.9 31.8699C144.094 31.4872 142.582 31.4253 141.364 31.6843C140.176 31.9237 139.219 32.5355 138.494 33.5194C137.774 34.4786 137.218 35.8862 136.826 37.7422C136.439 39.5734 136.378 41.0858 136.642 42.2795C136.907 43.4732 137.532 44.4329 138.516 45.1585C139.53 45.8646 140.94 46.409 142.746 46.7918C144.998 47.2689 146.702 47.2164 147.859 46.6343C149.041 46.0574 149.805 44.9523 150.15 43.3191L150.268 42.7623L156.466 44.0757L156.348 44.6325C155.904 46.7359 154.999 48.4446 153.636 49.7587C152.278 51.048 150.56 51.8991 148.482 52.3119C146.429 52.7301 144.103 52.6639 141.505 52.1133Z" fill="#8A79F3"/>
<path d="M161.154 58.9398L156.045 56.4327L167.221 33.602L172.33 36.109L161.154 58.9398Z" fill="#8A79F3"/>
<path d="M173.864 67.6408L165.68 60.7501L168.974 56.8281L177.158 63.7187C178.493 64.8427 179.688 65.5837 180.741 65.9417C181.83 66.2966 182.909 66.2124 183.976 65.6891C185.078 65.1627 186.28 64.1247 187.582 62.5753C188.899 61.0065 189.714 59.6427 190.027 58.4841C190.359 57.3417 190.248 56.2735 189.696 55.2795C189.179 54.2823 188.253 53.2218 186.918 52.0977L178.734 45.2071L182.028 41.285L190.212 48.1757C192.302 49.935 193.776 51.8373 194.634 53.8827C195.512 55.9443 195.757 58.0516 195.369 60.2047C194.981 62.3578 193.933 64.4512 192.225 66.4849C190.517 68.5185 188.637 69.9114 186.585 70.6636C184.533 71.4157 182.418 71.5357 180.239 71.0236C178.079 70.5277 175.954 69.4001 173.864 67.6408ZM168.843 63.4135L164.49 59.7483L180.838 40.2832L185.191 43.9484L168.843 63.4135Z" fill="#8A79F3"/>
<path d="M187.763 82.758L184.848 77.8702L206.666 64.8274L209.581 69.7152L187.763 82.758ZM195.866 96.3461L185.664 79.2388L190.061 76.6108L200.262 93.718L195.866 96.3461ZM204.367 90.6012L194.457 73.9828L198.82 71.3742L208.73 87.9927L204.367 90.6012ZM213.288 85.9313L203.086 68.824L207.482 66.196L217.684 83.3033L213.288 85.9313Z" fill="#8A79F3"/>
<path d="M197.854 103.667L196.659 98.1025L221.51 92.7549L224.456 106.48C224.896 108.532 224.974 110.34 224.688 111.902C224.428 113.458 223.82 114.727 222.867 115.709C221.914 116.69 220.646 117.351 219.063 117.691C217.703 117.984 216.485 117.975 215.409 117.663C214.334 117.351 213.387 116.74 212.571 115.829C211.779 114.912 211.142 113.691 210.659 112.165L210.363 112.229C210.305 113.406 210.038 114.33 209.561 115.002C209.084 115.673 208.464 116.337 207.699 116.993L201.795 122.028L200.41 115.574L206.131 110.772C206.699 110.288 207.129 109.82 207.421 109.369C207.712 108.919 207.868 108.381 207.889 107.755C207.94 107.149 207.862 106.364 207.655 105.399L206.866 101.727L197.854 103.667ZM217.697 99.3965L211.058 100.825L212.802 108.949C213.083 110.259 213.512 111.176 214.09 111.699C214.693 112.216 215.649 112.333 216.96 112.051C218.196 111.785 218.983 111.292 219.32 110.573C219.682 109.848 219.722 108.831 219.441 107.52L217.697 99.3965Z" fill="#8A79F3"/>
<path d="M29.8722 288.396L29.1497 286.497L37.6313 283.263L38.6091 285.833L35.1879 289.414L33.5039 290.97L33.5569 291.109L35.8382 291.124L40.7479 291.456L41.7306 294.039L33.2489 297.273L32.5264 295.374L36.8305 293.732L38.1838 293.289L38.1308 293.15L36.6137 293.163L32.1416 292.838L31.2649 290.533L34.3883 287.312L35.5296 286.311L35.4766 286.172L34.1763 286.755L29.8722 288.396Z" fill="#8A79F3"/>
<path d="M35 300.674L33.9286 298.666L43.8017 297.888L45.1665 300.446L39.0433 308.253L37.9464 306.197L41.8982 301.256L42.8792 300.102L42.8091 299.97L41.3051 300.145L35 300.674ZM39.7273 305.275L36.7172 299.633L38.33 298.77L41.3402 304.413L39.7273 305.275Z" fill="#8A79F3"/>
<path d="M42.4236 313.24L40.2559 310.094L41.7609 309.054L43.9286 312.2C44.2822 312.714 44.6235 313.082 44.9525 313.305C45.2941 313.53 45.6733 313.602 46.0903 313.523C46.5198 313.446 47.0318 313.202 47.6263 312.791C48.2283 312.376 48.6378 311.983 48.8549 311.614C49.0771 311.251 49.14 310.873 49.0437 310.479C48.9599 310.086 48.7413 309.634 48.3877 309.121L46.2199 305.974L47.7249 304.935L49.8926 308.081C50.4461 308.884 50.774 309.679 50.8765 310.464C50.984 311.257 50.8693 312.006 50.5323 312.711C50.1953 313.416 49.6366 314.037 48.8562 314.576C48.0759 315.115 47.2969 315.418 46.5191 315.483C45.7414 315.548 45.0014 315.389 44.2993 315.007C43.6023 314.632 42.9771 314.043 42.4236 313.24ZM41.0938 311.31L39.9408 309.636L47.4097 304.478L48.5628 306.151L41.0938 311.31Z" fill="#8A79F3"/>
<path d="M47.6386 320.181L46.3213 318.633L53.2264 312.741L54.5437 314.288L47.6386 320.181ZM51.3006 324.483L46.6901 319.066L48.0814 317.879L52.6919 323.295L51.3006 324.483ZM53.9515 321.953L49.4728 316.692L50.8538 315.513L55.3326 320.775L53.9515 321.953ZM56.8144 319.778L52.2039 314.361L53.5952 313.174L58.2057 318.59L56.8144 319.778Z" fill="#8A79F3"/>
<path d="M58.1783 331.21L55.8917 329.235L60.1964 320.959L61.919 322.447L59.3892 327.064L58.3251 328.777L58.4379 328.874L60.0557 327.64L64.5645 324.731L66.851 326.706L64.6289 331.589L63.6468 333.373L63.7596 333.47L65.2954 332.165L69.4863 328.982L71.1679 330.434L63.6127 335.903L61.3262 333.929L63.2632 329.604L64.4879 327.207L64.3752 327.11L62.1865 328.675L58.1783 331.21Z" fill="#8A79F3"/>
<path d="M68.411 339.263L66.751 338.09L71.9793 330.67L73.6392 331.842L68.411 339.263Z" fill="#8A79F3"/>
<path d="M74.3356 343.068L72.5982 342.014L77.299 334.248L79.0364 335.303L74.3356 343.068ZM80.9733 338.618L73.4678 334.063L74.415 332.498L81.9204 337.053L80.9733 338.618Z" fill="#8A79F3"/>
<path d="M86.6938 349.404L84.8563 348.536L88.726 340.324L90.5635 341.192L86.6938 349.404ZM80.5688 346.51L78.7313 345.642L82.6009 337.431L84.4385 338.299L80.5688 346.51ZM87.3532 345.684L80.7994 342.588L81.5791 340.934L88.1329 344.03L87.3532 345.684Z" fill="#8A79F3"/>
<path d="M95.0068 352.37L93.0836 351.713L95.1989 345.506L92.9937 344.753L93.4438 343.432L93.8028 343.555C94.2814 343.718 94.7065 343.787 95.0779 343.761C95.4522 343.727 95.819 343.533 96.1784 343.178L97.9349 343.778L95.0068 352.37Z" fill="#8A79F3"/>
<path d="M101.125 354.235C100.179 353.998 99.4245 353.608 98.8617 353.067C98.3076 352.527 97.9442 351.878 97.7712 351.117C97.6005 350.348 97.6291 349.508 97.8571 348.597C98.0872 347.677 98.4575 346.922 98.9679 346.333C99.4784 345.744 100.105 345.342 100.847 345.128C101.599 344.916 102.448 344.929 103.394 345.166C104.34 345.403 105.09 345.792 105.644 346.331C106.207 346.872 106.575 347.523 106.748 348.284C106.921 349.044 106.892 349.884 106.662 350.804C106.434 351.716 106.064 352.47 105.551 353.068C105.041 353.657 104.41 354.057 103.658 354.269C102.916 354.484 102.071 354.472 101.125 354.235ZM101.605 352.316C102.166 352.457 102.634 352.485 103.008 352.402C103.385 352.311 103.696 352.091 103.941 351.742C104.187 351.394 104.388 350.905 104.546 350.274C104.704 349.643 104.757 349.116 104.704 348.693C104.652 348.27 104.48 347.934 104.188 347.684C103.899 347.425 103.474 347.226 102.914 347.085C102.353 346.944 101.884 346.92 101.508 347.012C101.133 347.095 100.823 347.31 100.578 347.658C100.332 348.007 100.131 348.496 99.9728 349.127C99.815 349.758 99.7624 350.285 99.8149 350.708C99.8674 351.131 100.038 351.471 100.327 351.73C100.619 351.98 101.045 352.175 101.605 352.316Z" fill="#8A79F3"/>
<path d="M111.636 356.282C110.67 356.147 109.879 355.84 109.261 355.362C108.653 354.885 108.222 354.277 107.969 353.54C107.718 352.793 107.657 351.955 107.786 351.024C107.917 350.085 108.205 349.295 108.65 348.655C109.094 348.015 109.675 347.549 110.39 347.257C111.115 346.966 111.96 346.888 112.926 347.023C113.892 347.158 114.679 347.464 115.288 347.941C115.905 348.419 116.34 349.027 116.593 349.765C116.846 350.502 116.907 351.341 116.776 352.28C116.647 353.21 116.359 354 115.913 354.649C115.468 355.289 114.883 355.755 114.159 356.046C113.443 356.338 112.602 356.417 111.636 356.282ZM111.909 354.323C112.482 354.402 112.95 354.381 113.313 354.259C113.678 354.127 113.964 353.875 114.171 353.503C114.378 353.131 114.526 352.622 114.616 351.978C114.706 351.334 114.702 350.805 114.605 350.39C114.507 349.975 114.301 349.659 113.984 349.441C113.669 349.215 113.226 349.062 112.653 348.982C112.081 348.902 111.612 348.928 111.247 349.059C110.884 349.182 110.598 349.429 110.391 349.801C110.185 350.174 110.036 350.682 109.946 351.326C109.857 351.97 109.86 352.5 109.958 352.915C110.055 353.329 110.261 353.65 110.576 353.876C110.892 354.094 111.337 354.243 111.909 354.323Z" fill="#8A79F3"/>
<path d="M125.914 357.299C125.418 357.286 124.991 357.18 124.635 356.98C124.279 356.781 124.01 356.512 123.829 356.173C123.649 355.825 123.564 355.425 123.576 354.974C123.588 354.522 123.693 354.132 123.891 353.803C124.09 353.465 124.372 353.206 124.738 353.026C125.105 352.846 125.536 352.762 126.033 352.775C126.538 352.788 126.965 352.894 127.312 353.093C127.668 353.292 127.936 353.566 128.117 353.914C128.298 354.253 128.382 354.648 128.371 355.1C128.359 355.551 128.254 355.946 128.055 356.284C127.857 356.613 127.574 356.868 127.208 357.048C126.851 357.228 126.42 357.312 125.914 357.299ZM120.204 352.297C119.707 352.284 119.281 352.178 118.924 351.979C118.577 351.78 118.313 351.511 118.132 351.172C117.952 350.824 117.867 350.424 117.879 349.973C117.891 349.521 117.996 349.131 118.194 348.802C118.393 348.464 118.671 348.204 119.028 348.024C119.394 347.835 119.826 347.747 120.322 347.76C120.828 347.773 121.254 347.884 121.601 348.091C121.957 348.291 122.226 348.564 122.406 348.912C122.587 349.251 122.672 349.647 122.66 350.098C122.648 350.549 122.543 350.944 122.344 351.282C122.146 351.611 121.864 351.866 121.498 352.046C121.141 352.227 120.709 352.31 120.204 352.297ZM120.238 350.97C120.6 350.979 120.85 350.913 120.989 350.772C121.128 350.632 121.202 350.394 121.211 350.06C121.22 349.726 121.158 349.485 121.027 349.337C120.895 349.18 120.649 349.097 120.288 349.087C119.945 349.078 119.699 349.148 119.55 349.298C119.411 349.439 119.337 349.677 119.328 350.011C119.32 350.345 119.381 350.586 119.513 350.734C119.653 350.882 119.895 350.961 120.238 350.97ZM125.949 355.971C126.301 355.981 126.547 355.915 126.686 355.774C126.834 355.633 126.913 355.396 126.921 355.062C126.93 354.728 126.864 354.486 126.723 354.338C126.592 354.181 126.35 354.098 125.998 354.089C125.646 354.08 125.396 354.15 125.247 354.299C125.108 354.44 125.034 354.678 125.025 355.012C125.017 355.346 125.078 355.587 125.21 355.735C125.35 355.883 125.597 355.962 125.949 355.971ZM120.135 356.998L118.171 356.947L126.115 348.074L128.079 348.126L120.135 356.998Z" fill="#8A79F3"/>
<path d="M134.985 356.717L132.967 356.95L131.931 347.932L134.084 347.684L137.805 351.579L139.261 353.334L139.409 353.317L139.106 351.511L138.607 347.163L140.626 346.931L141.661 355.949L139.508 356.197L135.689 352.272L134.35 350.708L134.215 350.724L134.486 352.37L134.985 356.717Z" fill="#8A79F3"/>
<path d="M145.349 355.241L143.131 355.754L144.958 346.015L147.782 345.361L153.717 353.306L151.447 353.831L147.711 348.729L146.853 347.481L146.708 347.515L146.484 349.013L145.349 355.241ZM151.022 351.871L144.792 353.312L144.381 351.53L150.611 350.089L151.022 351.871Z" fill="#8A79F3"/>
<path d="M159.921 351.142L158.003 351.814L155.009 343.244L156.927 342.573L159.921 351.142ZM160.714 343.184L152.428 346.086L151.825 344.36L160.111 341.458L160.714 343.184Z" fill="#8A79F3"/>
<path d="M168.73 347.612C167.84 348.033 167.029 348.241 166.298 348.237C165.567 348.233 164.925 348.037 164.373 347.649C163.82 347.261 163.371 346.699 163.024 345.964L160.77 341.185L162.607 340.316L164.797 344.96C165.017 345.426 165.26 345.771 165.525 345.995C165.795 346.207 166.118 346.299 166.494 346.271C166.875 346.231 167.339 346.082 167.886 345.823C168.449 345.557 168.863 345.291 169.128 345.026C169.388 344.753 169.518 344.447 169.518 344.107C169.514 343.759 169.402 343.353 169.182 342.887L166.992 338.243L168.829 337.374L171.083 342.153C171.43 342.888 171.577 343.593 171.526 344.267C171.474 344.941 171.218 345.561 170.757 346.129C170.303 346.693 169.628 347.187 168.73 347.612Z" fill="#8A79F3"/>
<path d="M176.225 343.547L174.49 344.604L169.777 336.846L174.058 334.239C174.698 333.849 175.298 333.61 175.858 333.523C176.414 333.428 176.913 333.484 177.355 333.69C177.797 333.896 178.169 334.247 178.469 334.741C178.727 335.165 178.866 335.577 178.887 335.977C178.908 336.377 178.813 336.768 178.601 337.151C178.385 337.525 178.048 337.884 177.59 338.226L177.647 338.319C178.05 338.2 178.393 338.182 178.675 338.264C178.957 338.346 179.254 338.477 179.564 338.658L181.953 340.059L179.94 341.285L177.651 339.918C177.421 339.783 177.213 339.693 177.027 339.648C176.841 339.603 176.641 339.613 176.428 339.68C176.218 339.734 175.962 339.852 175.661 340.035L174.516 340.733L176.225 343.547ZM172.462 337.352L173.721 339.425L176.255 337.881C176.664 337.632 176.923 337.38 177.031 337.123C177.135 336.859 177.062 336.523 176.814 336.113C176.579 335.727 176.321 335.52 176.039 335.491C175.753 335.454 175.405 335.56 174.996 335.809L172.462 337.352Z" fill="#8A79F3"/>
<path d="M184.683 338.102L182.88 339.492L180.493 329.872L182.79 328.102L191.488 332.86L189.642 334.282L184.125 331.195L182.826 330.417L182.708 330.508L183.127 331.964L184.683 338.102ZM188.441 332.676L183.376 336.579L182.261 335.129L187.327 331.226L188.441 332.676Z" fill="#8A79F3"/>
<path d="M194.011 330.428L192.537 331.827L186.296 325.235L187.77 323.836L194.011 330.428ZM197.932 326.706L192.95 331.435L191.692 330.107L196.674 325.378L197.932 326.706Z" fill="#8A79F3"/>
<path d="M202.383 321.754L201.087 323.319L194.103 317.52L195.4 315.955L202.383 321.754ZM203.252 315.396L198.844 320.717L197.447 319.557L201.855 314.236L203.252 315.396ZM200.411 312.773L195.873 318.25L194.466 317.082L199.003 311.604L200.411 312.773Z" fill="#8A79F3"/>
<path d="M208.247 314.22L207.109 315.904L199.593 310.815L202.399 306.661C202.818 306.039 203.264 305.573 203.737 305.26C204.202 304.942 204.679 304.785 205.167 304.788C205.656 304.792 206.139 304.956 206.618 305.28C207.029 305.558 207.327 305.875 207.513 306.229C207.698 306.584 207.775 306.979 207.742 307.415C207.702 307.846 207.545 308.313 207.271 308.814L207.361 308.875C207.678 308.599 207.982 308.44 208.273 308.397C208.563 308.353 208.888 308.349 209.246 308.384L212.001 308.663L210.681 310.616L208.031 310.327C207.766 310.3 207.539 310.305 207.351 310.341C207.163 310.378 206.986 310.471 206.82 310.62C206.651 310.757 206.469 310.971 206.271 311.263L205.521 312.374L208.247 314.22ZM202.245 310.156L204.253 311.516L205.914 309.057C206.182 308.66 206.311 308.323 206.303 308.045C206.288 307.761 206.082 307.485 205.685 307.217C205.311 306.964 204.99 306.883 204.721 306.974C204.445 307.059 204.174 307.301 203.906 307.697L202.245 310.156Z" fill="#8A79F3"/>
<path d="M215.015 303.463C214.553 304.332 214.027 304.983 213.438 305.416C212.849 305.849 212.217 306.075 211.542 306.093C210.867 306.112 210.171 305.929 209.454 305.547L204.793 303.058L205.748 301.264L210.278 303.683C210.732 303.925 211.133 304.057 211.479 304.078C211.822 304.088 212.137 303.969 212.422 303.721C212.703 303.462 212.986 303.065 213.27 302.531C213.563 301.981 213.737 301.521 213.791 301.151C213.837 300.776 213.759 300.452 213.556 300.18C213.345 299.904 213.012 299.644 212.558 299.402L208.028 296.983L208.984 295.19L213.645 297.678C214.362 298.061 214.901 298.538 215.262 299.11C215.623 299.681 215.787 300.332 215.756 301.063C215.729 301.786 215.482 302.586 215.015 303.463Z" fill="#8A79F3"/>
<path d="M218.571 295.775L217.751 297.634L209.45 293.962L210.27 292.102L218.571 295.775Z" fill="#8A79F3"/>
<path d="M221.112 289.247L220.423 291.159L211.886 288.075L212.575 286.163L221.112 289.247ZM215.439 283.611L212.462 291.87L210.742 291.249L213.719 282.989L215.439 283.611Z" fill="#8A79F3"/>
<path d="M26.6707 253.874C26.0113 253.874 25.4242 253.757 24.9094 253.522C24.4036 253.278 24.0062 252.944 23.7171 252.52C23.4281 252.095 23.2836 251.607 23.2836 251.056H25.1126C25.1397 251.463 25.2933 251.788 25.5733 252.032C25.8533 252.267 26.2281 252.384 26.6978 252.384C27.1855 252.384 27.5649 252.271 27.8358 252.045C28.1068 251.81 28.2423 251.49 28.2423 251.083C28.2423 250.686 28.0842 250.374 27.7681 250.149C27.452 249.923 27.0139 249.81 26.4539 249.81H25.4649V248.32H26.3455C26.6616 248.32 26.9281 248.27 27.1449 248.17C27.3616 248.071 27.5287 247.931 27.6462 247.75C27.7636 247.57 27.8223 247.358 27.8223 247.114C27.8223 246.752 27.7094 246.468 27.4836 246.26C27.2578 246.052 26.9507 245.949 26.5623 245.949C26.1829 245.949 25.8758 246.066 25.641 246.301C25.4152 246.527 25.2978 246.838 25.2888 247.236H23.4597C23.4688 246.703 23.6133 246.229 23.8933 245.813C24.1733 245.389 24.5526 245.059 25.0313 244.824C25.5191 244.58 26.061 244.458 26.6571 244.458C27.2984 244.458 27.8494 244.567 28.31 244.783C28.7797 245 29.1365 245.298 29.3803 245.678C29.6332 246.048 29.7597 246.481 29.7597 246.978C29.7597 247.394 29.6423 247.769 29.4074 248.103C29.1726 248.428 28.8339 248.708 28.3913 248.943C28.9694 249.123 29.412 249.394 29.7191 249.756C30.0262 250.108 30.1797 250.532 30.1797 251.029C30.1797 251.598 30.0307 252.095 29.7326 252.52C29.4345 252.944 29.0236 253.278 28.4997 253.522C27.9849 253.757 27.3752 253.874 26.6707 253.874ZM34.4239 253.874C33.7646 253.874 33.1775 253.757 32.6626 253.522C32.1568 253.278 31.7594 252.944 31.4704 252.52C31.1814 252.095 31.0368 251.607 31.0368 251.056H32.8659C32.893 251.463 33.0465 251.788 33.3265 252.032C33.6065 252.267 33.9813 252.384 34.451 252.384C34.9388 252.384 35.3181 252.271 35.5891 252.045C35.86 251.81 35.9955 251.49 35.9955 251.083C35.9955 250.686 35.8375 250.374 35.5213 250.149C35.2052 249.923 34.7672 249.81 34.2072 249.81H33.2181V248.32H34.0988C34.4149 248.32 34.6813 248.27 34.8981 248.17C35.1149 248.071 35.282 247.931 35.3994 247.75C35.5168 247.57 35.5755 247.358 35.5755 247.114C35.5755 246.752 35.4626 246.468 35.2368 246.26C35.011 246.052 34.7039 245.949 34.3155 245.949C33.9362 245.949 33.6291 246.066 33.3943 246.301C33.1684 246.527 33.051 246.838 33.042 247.236H31.213C31.222 246.703 31.3665 246.229 31.6465 245.813C31.9265 245.389 32.3059 245.059 32.7846 244.824C33.2723 244.58 33.8143 244.458 34.4104 244.458C35.0517 244.458 35.6026 244.567 36.0633 244.783C36.5329 245 36.8897 245.298 37.1336 245.678C37.3865 246.048 37.5129 246.481 37.5129 246.978C37.5129 247.394 37.3955 247.769 37.1607 248.103C36.9259 248.428 36.5871 248.708 36.1446 248.943C36.7226 249.123 37.1652 249.394 37.4723 249.756C37.7794 250.108 37.9329 250.532 37.9329 251.029C37.9329 251.598 37.7839 252.095 37.4858 252.52C37.1878 252.944 36.7768 253.278 36.253 253.522C35.7381 253.757 35.1284 253.874 34.4239 253.874ZM39.0324 249.187C39.0324 247.669 39.3395 246.504 39.9537 245.691C40.5678 244.869 41.4395 244.458 42.5685 244.458C43.6975 244.458 44.5691 244.869 45.1833 245.691C45.8065 246.504 46.1181 247.669 46.1181 249.187C46.1181 250.695 45.8111 251.856 45.1969 252.669C44.5917 253.481 43.7156 253.888 42.5685 253.888C41.4304 253.888 40.5543 253.481 39.9401 252.669C39.335 251.856 39.0324 250.695 39.0324 249.187ZM40.9698 249.187C40.9698 250.171 41.1053 250.921 41.3762 251.436C41.6472 251.95 42.0446 252.208 42.5685 252.208C43.0924 252.208 43.4898 251.95 43.7607 251.436C44.0407 250.921 44.1807 250.171 44.1807 249.187C44.1807 248.193 44.0407 247.439 43.7607 246.924C43.4898 246.4 43.0924 246.138 42.5685 246.138C42.0536 246.138 41.6562 246.4 41.3762 246.924C41.1053 247.448 40.9698 248.202 40.9698 249.187Z" fill="#03403F"/>
<path d="M29.9137 272.63H28.0305V265.395H29.7647V266.425C30.0266 266.055 30.3337 265.77 30.686 265.571C31.0382 265.364 31.4537 265.26 31.9324 265.26C32.4292 265.26 32.8582 265.373 33.2195 265.599C33.5899 265.815 33.8653 266.131 34.046 266.547C34.335 266.149 34.6692 265.838 35.0486 265.612C35.4279 265.377 35.8886 265.26 36.4305 265.26C37.1621 265.26 37.7537 265.495 38.2053 265.964C38.6569 266.425 38.8827 267.089 38.8827 267.956V272.63H37.0131V268.552C37.0131 268.037 36.9047 267.64 36.6879 267.36C36.4802 267.071 36.1686 266.926 35.7531 266.926C35.5092 266.926 35.2834 266.994 35.0757 267.129C34.8679 267.256 34.7008 267.441 34.5744 267.685C34.4569 267.929 34.3982 268.231 34.3982 268.593V272.63H32.5286V268.552C32.5286 268.037 32.4202 267.64 32.2034 267.36C31.9957 267.071 31.6841 266.926 31.2686 266.926C31.0157 266.926 30.7853 266.994 30.5776 267.129C30.3699 267.256 30.2073 267.441 30.0899 267.685C29.9724 267.929 29.9137 268.231 29.9137 268.593V272.63ZM42.3907 272.63H40.4939V262.902H42.3907V272.63Z" fill="#03403F"/>
<path d="M205.982 250.027H210.291L210.833 251.666H205.386L205.982 250.027ZM210.738 253.752L208.137 246.274L205.481 253.752H203.408L207.066 244.025H209.315L212.946 253.752H210.738ZM215.866 253.752H213.969V244.025H215.866V253.752ZM220.603 253.888C219.907 253.888 219.293 253.73 218.76 253.414C218.236 253.098 217.825 252.655 217.527 252.086C217.229 251.517 217.08 250.867 217.08 250.135C217.08 249.412 217.229 248.771 217.527 248.211C217.834 247.642 218.254 247.195 218.787 246.87C219.32 246.545 219.925 246.382 220.603 246.382C221.226 246.382 221.79 246.518 222.296 246.789C222.802 247.051 223.213 247.425 223.529 247.913C223.845 248.392 224.039 248.956 224.112 249.607H222.134C222.088 249.128 221.926 248.749 221.646 248.469C221.375 248.189 221.027 248.049 220.603 248.049C220.278 248.049 219.993 248.134 219.749 248.306C219.514 248.478 219.329 248.717 219.194 249.024C219.067 249.331 219.004 249.701 219.004 250.135C219.004 250.56 219.067 250.93 219.194 251.246C219.329 251.562 219.514 251.806 219.749 251.978C219.993 252.14 220.278 252.221 220.603 252.221C221.036 252.221 221.384 252.086 221.646 251.815C221.917 251.535 222.079 251.151 222.134 250.663H224.112C224.048 251.323 223.859 251.896 223.543 252.384C223.227 252.863 222.82 253.233 222.323 253.495C221.827 253.757 221.253 253.888 220.603 253.888ZM227.37 252.547C227.37 252.917 227.253 253.224 227.018 253.468C226.783 253.703 226.481 253.82 226.11 253.82C225.74 253.82 225.433 253.703 225.189 253.468C224.954 253.224 224.837 252.917 224.837 252.547C224.837 252.167 224.954 251.86 225.189 251.625C225.433 251.381 225.74 251.26 226.11 251.26C226.481 251.26 226.783 251.381 227.018 251.625C227.253 251.86 227.37 252.167 227.37 252.547Z" fill="#03403F"/>
<path d="M212.899 270.828H211.611V272.63H209.742V270.828H205.393V269.433L210.121 263.471H211.611V269.189H212.899V270.828ZM207.452 269.189H209.742V266.168L207.452 269.189ZM216.539 269.08C215.97 269.08 215.46 268.954 215.008 268.701C214.566 268.439 214.214 268.091 213.952 267.658C213.699 267.224 213.572 266.75 213.572 266.235C213.572 265.711 213.699 265.237 213.952 264.813C214.214 264.379 214.566 264.036 215.008 263.783C215.46 263.521 215.97 263.39 216.539 263.39C217.108 263.39 217.614 263.521 218.057 263.783C218.508 264.036 218.861 264.379 219.114 264.813C219.375 265.237 219.506 265.711 219.506 266.235C219.506 266.75 219.375 267.224 219.114 267.658C218.861 268.091 218.508 268.439 218.057 268.701C217.614 268.954 217.108 269.08 216.539 269.08ZM216.539 267.753C216.801 267.753 217.041 267.699 217.257 267.59C217.474 267.473 217.646 267.301 217.772 267.075C217.899 266.84 217.962 266.56 217.962 266.235C217.962 265.892 217.899 265.612 217.772 265.395C217.646 265.169 217.474 265.002 217.257 264.894C217.041 264.777 216.801 264.718 216.539 264.718C216.286 264.718 216.047 264.777 215.821 264.894C215.605 265.002 215.428 265.169 215.293 265.395C215.166 265.612 215.103 265.892 215.103 266.235C215.103 266.56 215.166 266.84 215.293 267.075C215.428 267.301 215.605 267.473 215.821 267.59C216.047 267.699 216.286 267.753 216.539 267.753ZM218.788 272.63H217.285L222.487 263.471H223.991L218.788 272.63ZM224.966 272.752C224.397 272.752 223.887 272.626 223.435 272.373C222.993 272.111 222.641 271.763 222.379 271.329C222.126 270.896 221.999 270.422 221.999 269.907C221.999 269.383 222.126 268.909 222.379 268.484C222.641 268.051 222.993 267.708 223.435 267.455C223.887 267.193 224.397 267.062 224.966 267.062C225.535 267.062 226.041 267.193 226.484 267.455C226.935 267.708 227.288 268.051 227.541 268.484C227.803 268.909 227.934 269.383 227.934 269.907C227.934 270.422 227.803 270.896 227.541 271.329C227.288 271.763 226.935 272.111 226.484 272.373C226.041 272.626 225.535 272.752 224.966 272.752ZM224.966 271.411C225.228 271.411 225.468 271.357 225.684 271.248C225.901 271.131 226.073 270.959 226.199 270.733C226.335 270.508 226.403 270.232 226.403 269.907C226.403 269.564 226.335 269.284 226.199 269.067C226.073 268.841 225.901 268.674 225.684 268.566C225.468 268.448 225.228 268.389 224.966 268.389C224.714 268.389 224.474 268.448 224.248 268.566C224.032 268.674 223.855 268.841 223.72 269.067C223.594 269.284 223.53 269.564 223.53 269.907C223.53 270.232 223.594 270.508 223.72 270.733C223.855 270.959 224.032 271.131 224.248 271.248C224.474 271.357 224.714 271.411 224.966 271.411Z" fill="#03403F"/>
<path d="M101.177 281.845V285.064H89.3963V267.552H101.006V270.771H93.1037V274.454H100.275V277.649H93.1037V281.845H101.177ZM106.314 285.064H102.533L106.923 278.43L102.826 272.04H106.728L109.387 276.527L112.07 272.04H115.631L111.582 278.552L115.948 285.064H112.094L109.167 280.381L106.314 285.064ZM122.848 285.308C121.904 285.308 121.026 285.137 120.213 284.796C119.417 284.454 118.717 283.975 118.116 283.357C117.53 282.739 117.067 282.024 116.725 281.21C116.4 280.381 116.238 279.495 116.238 278.552C116.238 277.593 116.4 276.706 116.725 275.893C117.067 275.08 117.53 274.365 118.116 273.747C118.717 273.129 119.417 272.649 120.213 272.308C121.026 271.966 121.904 271.796 122.848 271.796C123.791 271.796 124.661 271.966 125.457 272.308C126.27 272.649 126.97 273.129 127.555 273.747C128.157 274.365 128.62 275.08 128.945 275.893C129.287 276.706 129.457 277.593 129.457 278.552C129.457 279.495 129.287 280.381 128.945 281.21C128.62 282.024 128.157 282.739 127.555 283.357C126.97 283.975 126.27 284.454 125.457 284.796C124.661 285.137 123.791 285.308 122.848 285.308ZM122.848 282.308C123.417 282.308 123.937 282.162 124.409 281.869C124.88 281.576 125.254 281.154 125.531 280.601C125.823 280.032 125.97 279.349 125.97 278.552C125.97 277.739 125.823 277.056 125.531 276.503C125.254 275.95 124.88 275.536 124.409 275.259C123.937 274.966 123.417 274.82 122.848 274.82C122.295 274.82 121.774 274.966 121.287 275.259C120.815 275.536 120.433 275.95 120.14 276.503C119.864 277.056 119.726 277.739 119.726 278.552C119.726 279.349 119.864 280.032 120.14 280.601C120.433 281.154 120.815 281.576 121.287 281.869C121.774 282.162 122.295 282.308 122.848 282.308ZM139.481 281.771V284.723C139.074 284.934 138.659 285.081 138.237 285.162C137.83 285.259 137.375 285.308 136.871 285.308C135.993 285.308 135.22 285.146 134.554 284.82C133.903 284.479 133.399 283.975 133.041 283.308C132.684 282.625 132.505 281.804 132.505 280.845V274.942H129.871V272.04H132.505V268.186H135.871V272.04H139.603V274.942H135.871V280.064C135.871 280.812 136.033 281.357 136.359 281.698C136.7 282.024 137.172 282.186 137.773 282.186C138.098 282.186 138.407 282.154 138.7 282.089C138.993 282.007 139.253 281.902 139.481 281.771ZM145.063 285.064H141.673V272.04H145.063V285.064ZM145.6 269.015C145.6 269.584 145.388 270.064 144.966 270.454C144.559 270.828 144.014 271.015 143.331 271.015C142.665 271.015 142.12 270.828 141.697 270.454C141.291 270.064 141.087 269.584 141.087 269.015C141.087 268.413 141.291 267.926 141.697 267.552C142.12 267.161 142.665 266.966 143.331 266.966C144.014 266.966 144.559 267.161 144.966 267.552C145.388 267.926 145.6 268.413 145.6 269.015ZM153.568 285.308C152.316 285.308 151.21 285.024 150.251 284.454C149.308 283.885 148.568 283.089 148.031 282.064C147.495 281.04 147.226 279.869 147.226 278.552C147.226 277.251 147.495 276.097 148.031 275.088C148.584 274.064 149.34 273.259 150.3 272.674C151.259 272.088 152.349 271.796 153.568 271.796C154.69 271.796 155.706 272.04 156.617 272.527C157.528 272.999 158.267 273.674 158.837 274.552C159.406 275.414 159.755 276.43 159.885 277.601H156.324C156.243 276.739 155.95 276.056 155.446 275.552C154.958 275.048 154.332 274.796 153.568 274.796C152.983 274.796 152.471 274.95 152.032 275.259C151.609 275.568 151.275 275.999 151.031 276.552C150.804 277.105 150.69 277.771 150.69 278.552C150.69 279.316 150.804 279.983 151.031 280.552C151.275 281.121 151.609 281.56 152.032 281.869C152.471 282.162 152.983 282.308 153.568 282.308C154.349 282.308 154.975 282.064 155.446 281.576C155.934 281.072 156.227 280.381 156.324 279.503H159.885C159.772 280.69 159.43 281.723 158.861 282.601C158.292 283.463 157.56 284.129 156.666 284.601C155.771 285.072 154.739 285.308 153.568 285.308Z" fill="#03403F"/>
<path d="M112.611 314.689L108.025 303.054V314.689H104.659V297.176H109.099L114.172 310.152L119.27 297.176H123.709V314.689H120.343V302.957L115.709 314.689H112.611ZM130.385 314.689H126.995V301.664H130.385V314.689ZM130.922 298.64C130.922 299.209 130.711 299.688 130.288 300.079C129.881 300.453 129.337 300.64 128.654 300.64C127.987 300.64 127.442 300.453 127.02 300.079C126.613 299.688 126.41 299.209 126.41 298.64C126.41 298.038 126.613 297.55 127.02 297.176C127.442 296.786 127.987 296.591 128.654 296.591C129.337 296.591 129.881 296.786 130.288 297.176C130.711 297.55 130.922 298.038 130.922 298.64ZM135.964 314.689H132.183L136.573 308.055L132.476 301.664H136.378L139.037 306.152L141.72 301.664H145.281L141.232 308.176L145.598 314.689H141.744L138.817 310.006L135.964 314.689Z" fill="#03403F"/>
</svg>
