<?xml version="1.0" standalone="no"?>
<!DOCTYPE svg PUBLIC "-//W3C//DTD SVG 20010904//EN"
 "http://www.w3.org/TR/2001/REC-SVG-20010904/DTD/svg10.dtd">
<svg version="1.0" xmlns="http://www.w3.org/2000/svg"
 width="400.000000pt" height="636.000000pt" viewBox="0 0 400.000000 636.000000"
 preserveAspectRatio="xMidYMid meet">

<g transform="translate(0.000000,636.000000) scale(0.100000,-0.100000)"
fill="#000000" stroke="none">
<path d="M2073 5883 c26 -2 67 -2 90 0 23 2 2 3 -48 3 -49 0 -68 -1 -42 -3z"/>
<path d="M1938 1013 c7 -3 16 -2 19 1 4 3 -2 6 -13 5 -11 0 -14 -3 -6 -6z"/>
<path d="M1949 706 c-3 -3 -101 -7 -219 -10 -118 -3 -233 -9 -255 -14 l-40 -9
70 -8 c92 -12 978 -12 1080 -1 69 8 76 10 50 17 -59 17 -672 39 -686 25z"/>
<path d="M1658 563 c-65 -2 -118 -8 -118 -12 0 -16 245 -23 625 -19 341 3 399
7 383 24 -7 6 -730 13 -890 7z"/>
</g>
</svg>
