<svg width="251" height="382" viewBox="0 0 251 382" fill="none" xmlns="http://www.w3.org/2000/svg">
<path d="M125.445 381.098C56.5239 381.098 0.463872 324.969 0.463872 255.963V125.279C0.444147 56.2736 56.5239 0.144775 125.445 0.144775C194.366 0.144775 250.426 56.2736 250.426 125.279V255.963C250.426 324.969 194.366 381.098 125.445 381.098Z" fill="white"/>
<path d="M237.033 125.279C237.033 63.5647 187.069 13.5352 125.435 13.5352C63.8017 13.5352 13.8378 63.5647 13.8378 125.279V255.944C13.8378 317.658 63.8017 367.688 125.435 367.688C187.069 367.688 237.033 317.658 237.033 255.944V125.279Z" fill="#E6FFDE"/>
<path d="M33.8986 131.915V234.179" stroke="#048C3D" stroke-width="1.97498" stroke-linecap="round" stroke-linejoin="round"/>
<path d="M216.972 131.915V234.179" stroke="#048C3D" stroke-width="1.97498" stroke-linecap="round" stroke-linejoin="round"/>
<path d="M152.528 140.447C147.439 141.316 142.724 143.627 137.872 145.365C114.241 153.877 82.8771 150.302 81.2793 196.279C78.6164 272.77 167.322 246.148 172.175 196.793C172.885 189.643 168.506 183.462 168.013 176.214C167.105 162.527 176.988 136.26 152.528 140.447Z" fill="#BFE375" stroke="#03403F" stroke-width="0.987488" stroke-linecap="round" stroke-linejoin="round"/>
<path d="M109.684 236.845C115.03 239.038 121.125 238.978 126.747 237.537C132.349 236.115 137.557 233.389 142.527 230.427" stroke="#03403F" stroke-width="0.987488" stroke-linecap="round" stroke-linejoin="round"/>
<path d="M116.016 232.718C121.263 233.35 126.688 232.382 131.382 229.973" stroke="#03403F" stroke-width="0.987488" stroke-linecap="round" stroke-linejoin="round"/>
<path d="M89.4656 178.9C90.9647 168.255 100.354 159.229 111.045 158.163" stroke="#03403F" stroke-width="0.987488" stroke-linecap="round" stroke-linejoin="round"/>
<path d="M116.687 155.773C118.995 155.536 121.283 154.963 123.453 154.114" stroke="#03403F" stroke-width="0.987488" stroke-linecap="round" stroke-linejoin="round"/>
<path d="M170.656 128.755C169.078 128.005 166.593 129.644 165.034 130.059C147.755 134.779 148.208 132.685 140.515 128.755C122.171 119.394 113.649 138.966 106.232 140.901C111.42 150.539 125.563 153.008 136.393 143.903C142.014 139.183 141.719 137.84 150.063 136.181C182.117 129.841 153.554 131.54 149.747 158.992C147.597 174.436 135.111 184.489 147.005 202.363C153.593 212.277 166.198 217.688 167.46 217.155C169.551 216.266 176.061 192.547 161.424 175.661C155.842 169.222 144.5 162.764 157.578 143.113C158.249 142.126 165.291 136.122 164.147 138.512C163.358 140.131 154.797 148.525 160.497 148.643C163.101 148.702 163.436 145.503 164.62 143.804C171.8 133.396 174.739 130.671 170.656 128.735V128.755Z" fill="#048C3D" stroke="#03403F" stroke-width="0.987488" stroke-linecap="round" stroke-linejoin="round"/>
<path d="M109.546 141.059C122.703 141.395 132.428 132.093 147.991 134.186" stroke="#03403F" stroke-width="0.987488" stroke-linecap="round" stroke-linejoin="round"/>
<path d="M166.592 212.83C154.343 205.621 154.58 181.368 151.108 169.755" stroke="#03403F" stroke-width="0.987488" stroke-linecap="round" stroke-linejoin="round"/>
<path d="M115.858 137.939C118.285 137.761 120.809 137.978 123.176 138.531C122.23 140.625 120.592 142.383 118.659 143.587" stroke="#03403F" stroke-width="0.987488" stroke-linecap="round" stroke-linejoin="round"/>
<path d="M121.993 133.673C125.583 133.14 129.528 133.811 132.783 135.431C130.633 139.025 128.088 142.718 124.321 144.515" stroke="#03403F" stroke-width="0.987488" stroke-linecap="round" stroke-linejoin="round"/>
<path d="M131.106 129.545C136.471 130.197 141.304 133.455 141.423 133.949C141.541 134.403 138.01 139.124 133.138 142.619" stroke="#03403F" stroke-width="0.987488" stroke-linecap="round" stroke-linejoin="round"/>
<path d="M157.539 209.848C155.743 207.023 156.73 203.251 157.637 200.269C160.34 201.533 162.667 203.863 164.285 206.372" stroke="#03403F" stroke-width="0.987488" stroke-linecap="round" stroke-linejoin="round"/>
<path d="M150.891 203.942C149.747 198.886 151.207 193.119 154.836 189.426C158.978 191.559 162.825 194.739 165.823 198.333" stroke="#03403F" stroke-width="0.987488" stroke-linecap="round" stroke-linejoin="round"/>
<path d="M147.557 193.929C147.064 188.222 149.037 182.119 152.864 177.873C157.657 180.697 162.766 184.074 164.758 189.446" stroke="#03403F" stroke-width="0.987488" stroke-linecap="round" stroke-linejoin="round"/>
<path d="M163.989 137.978C166.987 136.319 169.729 136.122 172.037 132.725" stroke="#03403F" stroke-width="0.987488" stroke-linecap="round" stroke-linejoin="round"/>
<g opacity="0.2">
<path d="M116.963 165.075C95.4622 156.246 74.9081 206.687 100.867 228.353C102.484 229.696 105.483 228.491 104.694 226.121C101.538 216.641 102.425 205.502 104.792 195.904C109.231 177.951 114.162 181.23 119.744 171.908C121.441 169.084 119.665 166.181 116.963 165.075Z" fill="white"/>
<path d="M146.236 149.749C143.001 145.681 135.485 151.25 134.42 155.002C132.093 163.139 151.522 156.405 146.236 149.749Z" fill="white"/>
</g>
<path d="M113.176 86.6534C113.176 87.3903 112.986 88.0459 112.607 88.6202C112.228 89.1836 111.686 89.6279 110.982 89.953C110.288 90.2781 109.448 90.4406 108.462 90.4406C107.487 90.4406 106.636 90.2781 105.91 89.953C105.195 89.6171 104.632 89.1457 104.22 88.5389C103.808 87.9321 103.57 87.2169 103.505 86.3934H106.008C106.04 87.0435 106.257 87.5582 106.658 87.9375C107.07 88.3168 107.655 88.5064 108.413 88.5064C108.836 88.5064 109.204 88.4468 109.519 88.3276C109.844 88.2084 110.098 88.035 110.283 87.8075C110.467 87.5799 110.559 87.3144 110.559 87.011C110.559 86.6426 110.423 86.35 110.153 86.1333C109.882 85.9057 109.497 85.7432 108.999 85.6457L107.081 85.2718C106.636 85.196 106.225 85.0714 105.845 84.898C105.466 84.7246 105.136 84.5079 104.854 84.2478C104.572 83.9878 104.35 83.6735 104.187 83.3051C104.025 82.9367 103.944 82.5141 103.944 82.0373C103.944 81.3438 104.128 80.7261 104.496 80.1843C104.875 79.6425 105.39 79.2199 106.04 78.9165C106.701 78.6131 107.454 78.4614 108.3 78.4614C109.177 78.4614 109.958 78.6239 110.64 78.949C111.323 79.2741 111.876 79.7346 112.298 80.3306C112.721 80.9157 112.954 81.6147 112.997 82.4274H110.494C110.472 82.0156 110.364 81.658 110.169 81.3546C109.985 81.0404 109.735 80.802 109.421 80.6394C109.107 80.466 108.744 80.3794 108.332 80.3794C107.931 80.3794 107.59 80.4498 107.308 80.5907C107.037 80.7207 106.826 80.8995 106.674 81.127C106.523 81.3438 106.447 81.593 106.447 81.8747C106.447 82.1348 106.517 82.3515 106.658 82.5249C106.81 82.6983 107.005 82.8391 107.243 82.9475C107.482 83.045 107.742 83.1209 108.023 83.1751L110.023 83.5814C111.052 83.7873 111.832 84.1395 112.363 84.6379C112.905 85.1255 113.176 85.7974 113.176 86.6534ZM117.062 90.2781H114.803V81.5984H117.062V90.2781ZM117.42 79.5829C117.42 79.9622 117.279 80.2818 116.997 80.5419C116.726 80.7911 116.363 80.9157 115.908 80.9157C115.464 80.9157 115.101 80.7911 114.819 80.5419C114.548 80.2818 114.413 79.9622 114.413 79.5829C114.413 79.182 114.548 78.8569 114.819 78.6077C115.101 78.3476 115.464 78.2176 115.908 78.2176C116.363 78.2176 116.726 78.3476 116.997 78.6077C117.279 78.8569 117.42 79.182 117.42 79.5829ZM118.504 85.9382C118.504 85.0822 118.661 84.3128 118.975 83.6302C119.3 82.9475 119.75 82.4111 120.324 82.021C120.909 81.6309 121.586 81.4359 122.356 81.4359C122.876 81.4359 123.353 81.5442 123.786 81.761C124.22 81.9777 124.599 82.2973 124.924 82.7199V78.6077H127.167V90.2781H125.103V89.0265C124.756 89.4708 124.35 89.8175 123.884 90.0668C123.429 90.316 122.919 90.4406 122.356 90.4406C121.586 90.4406 120.909 90.2456 120.324 89.8555C119.75 89.4545 119.3 88.9127 118.975 88.2301C118.661 87.5474 118.504 86.7835 118.504 85.9382ZM120.828 85.9382C120.828 86.7509 121.028 87.3686 121.429 87.7912C121.83 88.2138 122.307 88.4251 122.86 88.4251C123.239 88.4251 123.58 88.3276 123.884 88.1325C124.198 87.9375 124.447 87.6558 124.631 87.2873C124.816 86.9081 124.908 86.4475 124.908 85.9057C124.908 85.3639 124.81 84.9088 124.615 84.5404C124.431 84.172 124.182 83.8957 123.867 83.7114C123.564 83.5272 123.228 83.4351 122.86 83.4351C122.307 83.4351 121.83 83.6464 121.429 84.069C121.028 84.4808 120.828 85.1039 120.828 85.9382ZM131.443 86.0683V90.2781H129.184V81.5984H131.264V83.2726C131.589 82.7199 132.061 82.2865 132.678 81.9723C133.296 81.658 133.952 81.5009 134.645 81.5009V83.8415C134.017 83.7981 133.458 83.8306 132.971 83.939C132.494 84.0365 132.12 84.2587 131.849 84.6054C131.578 84.9413 131.443 85.429 131.443 86.0683ZM139.526 90.4244C138.659 90.4244 137.895 90.2402 137.234 89.8717C136.584 89.4925 136.08 88.9615 135.723 88.2788C135.365 87.5962 135.186 86.8051 135.186 85.9057C135.186 85.0389 135.37 84.2695 135.739 83.5977C136.107 82.9258 136.617 82.4003 137.267 82.021C137.917 81.6309 138.659 81.4359 139.494 81.4359C140.176 81.4359 140.794 81.5659 141.347 81.826C141.91 82.0752 142.381 82.4328 142.761 82.8987C143.14 83.3647 143.411 83.9065 143.573 84.5241C143.736 85.131 143.763 85.7865 143.655 86.4909H136.519V85.0605H141.265C141.244 84.4537 141.065 83.9769 140.729 83.6302C140.404 83.2726 139.976 83.0938 139.445 83.0938C139.022 83.0938 138.665 83.2021 138.372 83.4189C138.079 83.6356 137.852 83.9553 137.689 84.3779C137.538 84.7896 137.462 85.2989 137.462 85.9057C137.462 86.5017 137.538 87.0056 137.689 87.4174C137.841 87.8291 138.069 88.1434 138.372 88.3601C138.675 88.5768 139.044 88.6852 139.477 88.6852C139.976 88.6852 140.388 88.566 140.713 88.3276C141.038 88.0892 141.265 87.7587 141.395 87.3361H143.638C143.389 88.3113 142.907 89.0699 142.192 89.6117C141.477 90.1535 140.588 90.4244 139.526 90.4244Z" fill="#03403F"/>
<path d="M87.2415 104.898C87.2415 104.042 87.3987 103.273 87.7129 102.59C88.038 101.907 88.4877 101.371 89.062 100.981C89.6471 100.591 90.3244 100.396 91.0937 100.396C91.6139 100.396 92.0907 100.504 92.5241 100.721C92.9575 100.937 93.3368 101.257 93.6619 101.68V97.5674H95.9049V109.238H93.8407V107.986C93.4939 108.431 93.0876 108.777 92.6216 109.026C92.1665 109.276 91.6572 109.4 91.0937 109.4C90.3244 109.4 89.6471 109.205 89.062 108.815C88.4877 108.414 88.038 107.872 87.7129 107.19C87.3987 106.507 87.2415 105.743 87.2415 104.898ZM89.5659 104.898C89.5659 105.711 89.7663 106.328 90.1673 106.751C90.5682 107.174 91.045 107.385 91.5976 107.385C91.9769 107.385 92.3182 107.287 92.6216 107.092C92.9359 106.897 93.1851 106.615 93.3693 106.247C93.5535 105.868 93.6456 105.407 93.6456 104.865C93.6456 104.324 93.5481 103.869 93.3531 103.5C93.1688 103.132 92.9196 102.855 92.6054 102.671C92.302 102.487 91.966 102.395 91.5976 102.395C91.045 102.395 90.5682 102.606 90.1673 103.029C89.7663 103.441 89.5659 104.064 89.5659 104.898ZM101.693 109.384C100.826 109.384 100.062 109.2 99.4007 108.831C98.7505 108.452 98.2467 107.921 97.8891 107.239C97.5315 106.556 97.3527 105.765 97.3527 104.865C97.3527 103.999 97.5369 103.229 97.9053 102.557C98.2738 101.886 98.7831 101.36 99.4332 100.981C100.083 100.591 100.826 100.396 101.66 100.396C102.343 100.396 102.96 100.526 103.513 100.786C104.076 101.035 104.548 101.393 104.927 101.858C105.306 102.324 105.577 102.866 105.74 103.484C105.902 104.091 105.929 104.746 105.821 105.451H98.6855V104.02H103.432C103.41 103.413 103.231 102.937 102.895 102.59C102.57 102.232 102.142 102.054 101.611 102.054C101.189 102.054 100.831 102.162 100.538 102.379C100.246 102.595 100.018 102.915 99.8558 103.338C99.7041 103.749 99.6283 104.259 99.6283 104.865C99.6283 105.461 99.7041 105.965 99.8558 106.377C100.008 106.789 100.235 107.103 100.538 107.32C100.842 107.537 101.21 107.645 101.644 107.645C102.142 107.645 102.554 107.526 102.879 107.287C103.204 107.049 103.432 106.718 103.562 106.296H105.805C105.556 107.271 105.073 108.03 104.358 108.571C103.643 109.113 102.754 109.384 101.693 109.384ZM109.594 109.238H107.334V100.558H109.415V101.793C109.729 101.349 110.098 101.008 110.52 100.769C110.943 100.52 111.441 100.396 112.015 100.396C112.611 100.396 113.126 100.531 113.56 100.802C114.004 101.062 114.334 101.441 114.551 101.94C114.898 101.463 115.299 101.089 115.754 100.818C116.209 100.536 116.762 100.396 117.412 100.396C118.29 100.396 118.999 100.677 119.541 101.241C120.083 101.793 120.354 102.59 120.354 103.63V109.238H118.111V104.345C118.111 103.728 117.981 103.251 117.721 102.915C117.471 102.568 117.098 102.395 116.599 102.395C116.307 102.395 116.036 102.476 115.786 102.639C115.537 102.79 115.337 103.012 115.185 103.305C115.044 103.598 114.974 103.961 114.974 104.394V109.238H112.731V104.345C112.731 103.728 112.601 103.251 112.341 102.915C112.091 102.568 111.718 102.395 111.219 102.395C110.916 102.395 110.639 102.476 110.39 102.639C110.141 102.79 109.946 103.012 109.805 103.305C109.664 103.598 109.594 103.961 109.594 104.394V109.238ZM124.546 109.238H122.287V100.558H124.546V109.238ZM124.904 98.5426C124.904 98.9219 124.763 99.2416 124.481 99.5016C124.21 99.7508 123.847 99.8755 123.392 99.8755C122.948 99.8755 122.585 99.7508 122.303 99.5016C122.032 99.2416 121.897 98.9219 121.897 98.5426C121.897 98.1417 122.032 97.8166 122.303 97.5674C122.585 97.3073 122.948 97.1773 123.392 97.1773C123.847 97.1773 124.21 97.3073 124.481 97.5674C124.763 97.8166 124.904 98.1417 124.904 98.5426ZM130.961 105.776H126.004V103.76H130.961V105.776ZM139.744 106.458C139.744 107.358 139.408 108.073 138.737 108.604C138.076 109.135 137.127 109.4 135.892 109.4C134.668 109.4 133.709 109.124 133.015 108.571C132.333 108.008 131.948 107.244 131.861 106.28H134.023C134.034 106.724 134.213 107.081 134.559 107.352C134.917 107.612 135.372 107.742 135.925 107.742C136.369 107.742 136.737 107.672 137.03 107.531C137.323 107.379 137.469 107.152 137.469 106.848C137.469 106.578 137.377 106.372 137.193 106.231C137.008 106.09 136.705 105.982 136.282 105.906L134.722 105.613C133.942 105.472 133.329 105.191 132.885 104.768C132.441 104.345 132.219 103.798 132.219 103.126C132.219 102.584 132.365 102.108 132.658 101.696C132.95 101.284 133.362 100.964 133.893 100.737C134.424 100.509 135.047 100.396 135.762 100.396C136.488 100.396 137.127 100.52 137.68 100.769C138.244 101.008 138.688 101.355 139.013 101.81C139.349 102.265 139.544 102.801 139.598 103.419H137.436C137.404 102.996 137.236 102.666 136.932 102.427C136.629 102.178 136.239 102.054 135.762 102.054C135.35 102.054 135.014 102.129 134.754 102.281C134.505 102.422 134.381 102.633 134.381 102.915C134.381 103.175 134.473 103.37 134.657 103.5C134.841 103.619 135.128 103.717 135.518 103.793L137.193 104.102C138.038 104.264 138.672 104.54 139.094 104.93C139.528 105.321 139.744 105.83 139.744 106.458ZM145.058 109.384C144.191 109.384 143.427 109.2 142.766 108.831C142.116 108.452 141.612 107.921 141.254 107.239C140.897 106.556 140.718 105.765 140.718 104.865C140.718 103.999 140.902 103.229 141.271 102.557C141.639 101.886 142.148 101.36 142.799 100.981C143.449 100.591 144.191 100.396 145.025 100.396C145.708 100.396 146.326 100.526 146.878 100.786C147.442 101.035 147.913 101.393 148.292 101.858C148.672 102.324 148.943 102.866 149.105 103.484C149.268 104.091 149.295 104.746 149.186 105.451H142.051V104.02H146.797C146.775 103.413 146.597 102.937 146.261 102.59C145.936 102.232 145.508 102.054 144.977 102.054C144.554 102.054 144.196 102.162 143.904 102.379C143.611 102.595 143.384 102.915 143.221 103.338C143.069 103.749 142.994 104.259 142.994 104.865C142.994 105.461 143.069 105.965 143.221 106.377C143.373 106.789 143.6 107.103 143.904 107.32C144.207 107.537 144.576 107.645 145.009 107.645C145.508 107.645 145.919 107.526 146.244 107.287C146.569 107.049 146.797 106.718 146.927 106.296H149.17C148.921 107.271 148.439 108.03 147.723 108.571C147.008 109.113 146.12 109.384 145.058 109.384ZM154.198 109.4C153.364 109.4 152.627 109.211 151.988 108.831C151.359 108.452 150.866 107.921 150.508 107.239C150.151 106.556 149.972 105.776 149.972 104.898C149.972 104.031 150.151 103.262 150.508 102.59C150.877 101.907 151.381 101.371 152.02 100.981C152.659 100.591 153.385 100.396 154.198 100.396C154.946 100.396 155.623 100.558 156.23 100.883C156.837 101.197 157.33 101.647 157.709 102.232C158.088 102.807 158.321 103.484 158.408 104.264H156.035C155.981 103.69 155.786 103.235 155.45 102.899C155.125 102.563 154.707 102.395 154.198 102.395C153.808 102.395 153.467 102.498 153.174 102.704C152.892 102.91 152.67 103.197 152.508 103.565C152.356 103.934 152.28 104.378 152.28 104.898C152.28 105.407 152.356 105.852 152.508 106.231C152.67 106.61 152.892 106.903 153.174 107.109C153.467 107.304 153.808 107.401 154.198 107.401C154.718 107.401 155.135 107.239 155.45 106.913C155.775 106.578 155.97 106.117 156.035 105.532H158.408C158.332 106.323 158.104 107.011 157.725 107.596C157.346 108.17 156.858 108.615 156.262 108.929C155.666 109.243 154.978 109.4 154.198 109.4Z" fill="#03403F"/>
<path d="M50.9187 114.676L49.768 120.249L24.8762 115.097L26.027 109.524L50.9187 114.676ZM44.7147 97.8171L40.8022 116.766L35.8239 115.736L39.7364 96.7867L44.7147 97.8171ZM34.2415 95.0682L30.2139 114.575L25.1984 113.537L29.226 94.0301L34.2415 95.0682Z" fill="#048C3D"/>
<path d="M57.5521 92.5568L54.68 97.4698L32.7489 84.618L39.8332 72.4992C40.8927 70.6868 42.0545 69.3009 43.3185 68.3413C44.5608 67.369 45.8644 66.843 47.2293 66.7634C48.5942 66.6838 49.975 67.0532 51.3716 67.8716C52.5718 68.5749 53.4634 69.4052 54.0464 70.3625C54.6294 71.3198 54.9147 72.4104 54.9023 73.6344C54.8681 74.8456 54.5144 76.1774 53.8412 77.6298L54.103 77.7833C54.9393 76.9541 55.7597 76.4528 56.5643 76.2793C57.3688 76.1058 58.2742 76.0355 59.2805 76.0681L67.0297 76.3438L63.6982 82.0429L56.2411 81.7186C55.4951 81.6918 54.8626 81.7463 54.3438 81.882C53.825 82.0177 53.347 82.3092 52.9097 82.7565C52.4634 83.1692 51.9913 83.8014 51.4935 84.653L49.5979 87.8956L57.5521 92.5568ZM40.0399 82.2945L45.8991 85.728L50.0923 78.555C50.7688 77.3977 51.0702 76.4311 50.9965 75.655C50.901 74.8661 50.275 74.1328 49.1184 73.4551C48.0273 72.8157 47.1149 72.6474 46.3812 72.9504C45.6256 73.2405 44.9096 73.9642 44.2331 75.1215L40.0399 82.2945Z" fill="#048C3D"/>
<path d="M77.4201 67.9833C75.3111 69.7589 73.2657 70.9024 71.2839 71.4137C69.3022 71.9249 67.4247 71.8525 65.6514 71.1963C63.8782 70.54 62.2596 69.3404 60.7956 67.5972L51.2797 56.2668L55.6331 52.6016L64.8807 63.6124C65.8079 64.7164 66.7109 65.477 67.5898 65.8943C68.4718 66.2759 69.4121 66.2943 70.4107 65.9495C71.4124 65.5691 72.5614 64.8331 73.8577 63.7417C75.1928 62.6177 76.1237 61.6025 76.6506 60.696C77.1612 59.7702 77.2947 58.8477 77.0513 57.9285C76.7915 56.99 76.198 55.9687 75.2709 54.8647L66.0233 43.8539L70.3768 40.1887L79.8927 51.5191C81.3567 53.2622 82.2594 55.0646 82.6008 56.9263C82.9422 58.788 82.6914 60.6523 81.8483 62.5194C81.0245 64.3701 79.5484 66.1915 77.4201 67.9833Z" fill="#048C3D"/>
<path d="M94.8113 56.5352L89.7129 59.0636L78.4416 36.2798L83.54 33.7514L94.8113 56.5352Z" fill="#048C3D"/>
<path d="M111.107 51.3691L105.566 52.6662L99.7853 27.9129L105.326 26.6157L111.107 51.3691ZM115.689 29.4501L91.7518 35.0538L90.5871 30.0662L114.525 24.4625L115.689 29.4501Z" fill="#048C3D"/>
<path d="M141.265 52.1134C138.543 51.5367 136.29 50.5163 134.505 49.0522C132.751 47.5687 131.531 45.7588 130.845 43.6227C130.189 41.467 130.135 39.0901 130.685 36.4917C131.234 33.8934 132.242 31.7542 133.709 30.0742C135.205 28.3748 137.053 27.2151 139.252 26.5952C141.482 25.9558 143.957 25.9245 146.679 26.5013C149.277 27.0518 151.43 27.9346 153.138 29.1497C154.87 30.3701 156.097 31.8451 156.817 33.5749C157.537 35.3046 157.672 37.2335 157.222 39.3617L157.105 39.9185L150.906 38.605L151.024 38.0482C151.369 36.415 151.118 35.095 150.271 34.0881C149.449 33.0865 147.912 32.3471 145.66 31.87C143.854 31.4873 142.342 31.4254 141.124 31.6843C139.936 31.9238 138.979 32.5355 138.254 33.5195C137.534 34.4787 136.978 35.8863 136.586 37.7422C136.199 39.5734 136.138 41.0859 136.402 42.2796C136.667 43.4733 137.291 44.4329 138.275 45.1586C139.29 45.8647 140.7 46.4091 142.506 46.7919C144.758 47.269 146.462 47.2165 147.619 46.6344C148.801 46.0575 149.565 44.9524 149.91 43.3191L150.028 42.7624L156.226 44.0758L156.108 44.6326C155.663 46.736 154.759 48.4447 153.396 49.7588C152.037 51.048 150.319 51.8991 148.242 52.312C146.188 52.7302 143.863 52.664 141.265 52.1134Z" fill="#048C3D"/>
<path d="M160.914 58.9203L155.805 56.4133L166.981 33.5826L172.089 36.0896L160.914 58.9203Z" fill="#048C3D"/>
<path d="M173.624 67.641L165.44 60.7503L168.734 56.8283L176.918 63.7189C178.253 64.8429 179.448 65.5839 180.501 65.9419C181.59 66.2968 182.668 66.2126 183.735 65.6893C184.838 65.1629 186.04 64.1249 187.341 62.5755C188.659 61.0067 189.474 59.6429 189.787 58.4843C190.118 57.342 190.008 56.2737 189.456 55.2797C188.939 54.2825 188.013 53.222 186.678 52.098L178.494 45.2073L181.788 41.2853L189.972 48.1759C192.062 49.9352 193.536 51.8375 194.394 53.8829C195.272 55.9445 195.517 58.0519 195.129 60.2049C194.741 62.358 193.693 64.4514 191.985 66.4851C190.277 68.5187 188.397 69.9116 186.345 70.6638C184.293 71.4159 182.178 71.5359 179.998 71.0238C177.839 70.5279 175.714 69.4003 173.624 67.641ZM168.603 63.4137L164.25 59.7485L180.598 40.2834L184.951 43.9487L168.603 63.4137Z" fill="#048C3D"/>
<path d="M187.523 82.7382L184.608 77.8504L206.426 64.8076L209.341 69.6954L187.523 82.7382ZM195.626 96.3262L185.424 79.219L189.82 76.591L200.022 93.6982L195.626 96.3262ZM204.127 90.5814L194.216 73.9629L198.58 71.3544L208.49 87.9729L204.127 90.5814ZM213.048 85.9115L202.846 68.8042L207.242 66.1762L217.444 83.2834L213.048 85.9115Z" fill="#048C3D"/>
<path d="M197.613 103.667L196.419 98.1025L221.269 92.7549L224.216 106.48C224.656 108.532 224.734 110.34 224.448 111.902C224.187 113.458 223.58 114.727 222.627 115.709C221.673 116.69 220.405 117.351 218.823 117.691C217.463 117.984 216.245 117.975 215.169 117.663C214.093 117.351 213.147 116.74 212.331 115.829C211.539 114.912 210.902 113.691 210.419 112.165L210.122 112.229C210.064 113.406 209.797 114.33 209.321 115.002C208.844 115.673 208.223 116.337 207.459 116.993L201.555 122.028L200.169 115.574L205.89 110.772C206.459 110.288 206.889 109.82 207.18 109.369C207.472 108.919 207.628 108.381 207.649 107.755C207.7 107.149 207.622 106.364 207.415 105.399L206.626 101.727L197.613 103.667ZM217.457 99.3965L210.817 100.825L212.561 108.949C212.843 110.26 213.272 111.176 213.85 111.699C214.452 112.216 215.409 112.333 216.72 112.051C217.956 111.785 218.743 111.292 219.08 110.573C219.442 109.848 219.482 108.831 219.2 107.52L217.457 99.3965Z" fill="#048C3D"/>
<path d="M29.6319 288.376L28.9093 286.477L37.391 283.243L38.3688 285.813L34.9476 289.394L33.2635 290.95L33.3165 291.089L35.5978 291.104L40.5076 291.436L41.4902 294.019L33.0086 297.253L32.286 295.354L36.5901 293.713L37.9434 293.269L37.8905 293.13L36.3734 293.143L31.9013 292.818L31.0246 290.513L34.1479 287.292L35.2893 286.292L35.2363 286.152L33.936 286.735L29.6319 288.376Z" fill="#048C3D"/>
<path d="M34.7595 300.674L33.6881 298.666L43.5612 297.887L44.926 300.445L38.8028 308.253L37.7059 306.197L41.6577 301.256L42.6387 300.101L42.5686 299.97L41.0646 300.144L34.7595 300.674ZM39.4868 305.275L36.4767 299.633L38.0895 298.77L41.0997 304.412L39.4868 305.275Z" fill="#048C3D"/>
<path d="M42.1833 313.24L40.0156 310.094L41.5205 309.055L43.6882 312.201C44.0418 312.714 44.3832 313.082 44.7122 313.305C45.0537 313.53 45.433 313.603 45.8499 313.523C46.2794 313.446 46.7914 313.202 47.386 312.792C47.988 312.376 48.3975 311.983 48.6146 311.614C48.8368 311.252 48.8997 310.874 48.8034 310.479C48.7196 310.087 48.5009 309.634 48.1473 309.121L45.9796 305.975L47.4846 304.935L49.6523 308.081C50.2057 308.885 50.5337 309.679 50.6361 310.465C50.7437 311.257 50.629 312.006 50.292 312.711C49.9549 313.416 49.3962 314.038 48.6159 314.577C47.8356 315.116 47.0565 315.418 46.2788 315.483C45.501 315.548 44.7611 315.39 44.059 315.007C43.362 314.633 42.7368 314.044 42.1833 313.24ZM40.8535 311.31L39.7004 309.637L47.1694 304.478L48.3224 306.151L40.8535 311.31Z" fill="#048C3D"/>
<path d="M47.3983 320.181L46.081 318.633L52.9861 312.741L54.3034 314.289L47.3983 320.181ZM51.0603 324.483L46.4498 319.067L47.8412 317.88L52.4517 323.296L51.0603 324.483ZM53.7113 321.954L49.2325 316.692L50.6135 315.514L55.0923 320.775L53.7113 321.954ZM56.5741 319.778L51.9636 314.362L53.3549 313.175L57.9654 318.591L56.5741 319.778Z" fill="#048C3D"/>
<path d="M57.938 331.21L55.6514 329.235L59.9561 320.959L61.6787 322.447L59.149 327.064L58.0849 328.777L58.1977 328.874L59.8155 327.64L64.3242 324.731L66.6108 326.706L64.3886 331.59L63.4066 333.373L63.5194 333.47L65.0551 332.165L69.246 328.982L70.9276 330.434L63.3725 335.903L61.0859 333.929L63.0229 329.604L64.2477 327.207L64.1349 327.11L61.9463 328.675L57.938 331.21Z" fill="#048C3D"/>
<path d="M68.1707 339.262L66.5107 338.09L71.739 330.669L73.3989 331.842L68.1707 339.262Z" fill="#048C3D"/>
<path d="M74.0953 343.069L72.3579 342.014L77.0587 334.249L78.7961 335.303L74.0953 343.069ZM80.733 338.618L73.2275 334.063L74.1747 332.499L81.6801 337.053L80.733 338.618Z" fill="#048C3D"/>
<path d="M86.4536 349.384L84.6161 348.516L88.4858 340.305L90.3233 341.173L86.4536 349.384ZM80.3285 346.491L78.491 345.623L82.3607 337.411L84.1982 338.279L80.3285 346.491ZM87.113 345.665L80.5592 342.569L81.3389 340.914L87.8927 344.011L87.113 345.665Z" fill="#048C3D"/>
<path d="M94.7664 352.371L92.8433 351.714L94.9585 345.507L92.7533 344.753L93.2035 343.432L93.5625 343.555C94.0411 343.719 94.4661 343.787 94.8376 343.762C95.2119 343.727 95.5787 343.533 95.9381 343.178L97.6945 343.778L94.7664 352.371Z" fill="#048C3D"/>
<path d="M100.845 354.217C99.8991 353.979 99.1447 353.59 98.582 353.048C98.0282 352.509 97.6649 351.859 97.4923 351.098C97.3218 350.329 97.3507 349.489 97.579 348.578C97.8094 347.658 98.18 346.903 98.6906 346.314C99.2013 345.726 99.8279 345.324 100.571 345.11C101.322 344.898 102.171 344.911 103.117 345.149C104.063 345.386 104.813 345.775 105.367 346.315C105.929 346.856 106.297 347.507 106.47 348.268C106.642 349.028 106.613 349.868 106.383 350.788C106.155 351.7 105.784 352.454 105.271 353.052C104.761 353.64 104.13 354.041 103.378 354.253C102.636 354.466 101.791 354.455 100.845 354.217ZM101.326 352.298C101.886 352.439 102.354 352.468 102.729 352.385C103.105 352.294 103.417 352.074 103.662 351.726C103.908 351.377 104.109 350.888 104.267 350.257C104.425 349.626 104.478 349.099 104.426 348.677C104.374 348.254 104.202 347.917 103.911 347.667C103.622 347.408 103.197 347.208 102.636 347.068C102.075 346.927 101.607 346.902 101.23 346.994C100.855 347.077 100.545 347.292 100.3 347.64C100.054 347.989 99.8526 348.478 99.6946 349.109C99.5365 349.74 99.4837 350.267 99.536 350.689C99.5884 351.112 99.7591 351.453 100.048 351.712C100.339 351.962 100.765 352.157 101.326 352.298Z" fill="#048C3D"/>
<path d="M111.396 356.282C110.43 356.147 109.638 355.84 109.021 355.362C108.412 354.885 107.982 354.277 107.729 353.54C107.477 352.793 107.416 351.955 107.546 351.025C107.677 350.085 107.964 349.296 108.409 348.656C108.854 348.015 109.434 347.549 110.15 347.257C110.874 346.966 111.72 346.888 112.686 347.023C113.652 347.158 114.439 347.464 115.047 347.941C115.665 348.419 116.1 349.027 116.353 349.765C116.606 350.502 116.667 351.341 116.536 352.28C116.406 353.21 116.119 354 115.672 354.649C115.228 355.289 114.643 355.755 113.918 356.046C113.203 356.338 112.362 356.417 111.396 356.282ZM111.669 354.323C112.241 354.403 112.709 354.381 113.073 354.259C113.438 354.127 113.724 353.875 113.931 353.503C114.138 353.131 114.286 352.622 114.376 351.978C114.465 351.334 114.462 350.805 114.364 350.39C114.267 349.975 114.06 349.659 113.744 349.442C113.429 349.215 112.985 349.062 112.413 348.982C111.84 348.902 111.372 348.928 111.007 349.059C110.643 349.182 110.358 349.429 110.151 349.802C109.944 350.174 109.796 350.682 109.706 351.326C109.616 351.97 109.62 352.5 109.717 352.915C109.815 353.33 110.021 353.65 110.336 353.877C110.652 354.094 111.096 354.243 111.669 354.323Z" fill="#048C3D"/>
<path d="M125.654 357.299C125.158 357.286 124.731 357.18 124.375 356.981C124.019 356.782 123.75 356.513 123.569 356.174C123.389 355.826 123.304 355.426 123.316 354.974C123.328 354.523 123.433 354.133 123.631 353.804C123.83 353.465 124.112 353.206 124.478 353.026C124.845 352.846 125.276 352.762 125.772 352.775C126.278 352.789 126.705 352.895 127.052 353.094C127.408 353.293 127.676 353.566 127.857 353.914C128.038 354.253 128.122 354.649 128.111 355.1C128.099 355.552 127.994 355.946 127.795 356.284C127.597 356.614 127.314 356.868 126.948 357.048C126.591 357.229 126.16 357.312 125.654 357.299ZM119.944 352.297C119.447 352.284 119.021 352.178 118.664 351.979C118.317 351.78 118.053 351.511 117.872 351.172C117.692 350.824 117.607 350.424 117.619 349.973C117.631 349.522 117.736 349.131 117.934 348.802C118.133 348.464 118.411 348.205 118.768 348.024C119.134 347.835 119.566 347.747 120.062 347.76C120.568 347.773 120.994 347.884 121.341 348.092C121.697 348.291 121.966 348.565 122.146 348.913C122.327 349.252 122.412 349.647 122.4 350.098C122.388 350.55 122.283 350.945 122.084 351.283C121.886 351.612 121.604 351.866 121.238 352.047C120.881 352.227 120.449 352.311 119.944 352.297ZM119.978 350.97C120.34 350.979 120.59 350.914 120.729 350.773C120.868 350.632 120.942 350.394 120.951 350.06C120.96 349.726 120.898 349.485 120.766 349.337C120.635 349.18 120.389 349.097 120.028 349.087C119.685 349.078 119.439 349.149 119.29 349.299C119.151 349.439 119.077 349.677 119.068 350.011C119.06 350.345 119.121 350.586 119.253 350.734C119.393 350.882 119.635 350.961 119.978 350.97ZM125.689 355.972C126.041 355.981 126.287 355.915 126.426 355.774C126.574 355.634 126.653 355.396 126.661 355.062C126.67 354.728 126.604 354.487 126.463 354.339C126.332 354.182 126.09 354.098 125.738 354.089C125.386 354.08 125.136 354.15 124.987 354.3C124.848 354.441 124.774 354.678 124.765 355.012C124.757 355.346 124.818 355.587 124.95 355.735C125.09 355.884 125.337 355.962 125.689 355.972ZM119.875 356.998L117.911 356.947L125.855 348.075L127.819 348.126L119.875 356.998Z" fill="#048C3D"/>
<path d="M134.745 356.717L132.726 356.95L131.69 347.932L133.844 347.684L137.564 351.578L139.021 353.334L139.169 353.317L138.866 351.51L138.366 347.163L140.385 346.93L141.421 355.949L139.268 356.197L135.448 352.272L134.11 350.708L133.975 350.723L134.246 352.37L134.745 356.717Z" fill="#048C3D"/>
<path d="M145.108 355.241L142.891 355.754L144.717 346.015L147.542 345.361L153.477 353.305L151.207 353.831L147.471 348.729L146.613 347.481L146.468 347.515L146.243 349.013L145.108 355.241ZM150.782 351.871L144.552 353.312L144.141 351.53L150.371 350.088L150.782 351.871Z" fill="#048C3D"/>
<path d="M159.681 351.142L157.763 351.814L154.769 343.244L156.687 342.573L159.681 351.142ZM160.474 343.184L152.188 346.086L151.585 344.359L159.871 341.457L160.474 343.184Z" fill="#048C3D"/>
<path d="M168.489 347.612C167.599 348.033 166.789 348.241 166.058 348.237C165.327 348.233 164.685 348.037 164.133 347.649C163.58 347.261 163.13 346.699 162.784 345.964L160.529 341.185L162.367 340.316L164.557 344.96C164.777 345.426 165.019 345.771 165.285 345.995C165.555 346.207 165.878 346.299 166.254 346.271C166.635 346.231 167.098 346.082 167.646 345.823C168.209 345.556 168.623 345.291 168.887 345.026C169.148 344.753 169.278 344.446 169.278 344.107C169.274 343.759 169.162 343.353 168.942 342.887L166.751 338.243L168.589 337.374L170.843 342.153C171.19 342.888 171.337 343.593 171.286 344.267C171.234 344.94 170.977 345.561 170.516 346.129C170.063 346.693 169.388 347.187 168.489 347.612Z" fill="#048C3D"/>
<path d="M175.985 343.547L174.249 344.604L169.536 336.846L173.818 334.239C174.458 333.849 175.058 333.61 175.618 333.523C176.173 333.428 176.672 333.484 177.115 333.69C177.557 333.897 177.928 334.247 178.229 334.741C178.486 335.166 178.626 335.578 178.647 335.978C178.668 336.377 178.572 336.768 178.361 337.151C178.145 337.526 177.808 337.884 177.35 338.227L177.406 338.319C177.81 338.201 178.152 338.182 178.435 338.264C178.717 338.346 179.013 338.477 179.324 338.658L181.713 340.059L179.699 341.285L177.411 339.919C177.181 339.784 176.973 339.694 176.787 339.648C176.601 339.603 176.401 339.614 176.188 339.68C175.978 339.734 175.722 339.853 175.421 340.036L174.276 340.733L175.985 343.547ZM172.222 337.352L173.481 339.425L176.015 337.882C176.424 337.633 176.682 337.38 176.791 337.124C176.895 336.86 176.822 336.523 176.574 336.114C176.339 335.728 176.081 335.52 175.799 335.491C175.512 335.454 175.165 335.56 174.756 335.809L172.222 337.352Z" fill="#048C3D"/>
<path d="M184.443 338.083L182.64 339.472L180.253 329.852L182.549 328.082L191.247 332.84L189.401 334.262L183.885 331.176L182.586 330.397L182.468 330.488L182.886 331.945L184.443 338.083ZM188.201 332.656L183.135 336.559L182.021 335.109L187.086 331.206L188.201 332.656Z" fill="#048C3D"/>
<path d="M193.771 330.428L192.297 331.827L186.056 325.235L187.53 323.836L193.771 330.428ZM197.692 326.706L192.71 331.435L191.452 330.107L196.434 325.378L197.692 326.706Z" fill="#048C3D"/>
<path d="M202.143 321.754L200.847 323.319L193.863 317.52L195.159 315.955L202.143 321.754ZM203.011 315.396L198.604 320.717L197.207 319.557L201.615 314.236L203.011 315.396ZM200.17 312.772L195.633 318.25L194.226 317.082L198.763 311.604L200.17 312.772Z" fill="#048C3D"/>
<path d="M208.007 314.22L206.869 315.905L199.353 310.815L202.159 306.661C202.578 306.04 203.024 305.573 203.497 305.26C203.962 304.943 204.439 304.786 204.927 304.789C205.415 304.792 205.899 304.956 206.378 305.28C206.789 305.559 207.087 305.875 207.273 306.23C207.458 306.585 207.535 306.98 207.502 307.416C207.462 307.847 207.305 308.313 207.031 308.815L207.121 308.876C207.438 308.6 207.742 308.44 208.033 308.397C208.323 308.354 208.648 308.35 209.005 308.385L211.76 308.663L210.441 310.617L207.791 310.328C207.526 310.301 207.299 310.306 207.111 310.342C206.923 310.378 206.746 310.471 206.58 310.62C206.411 310.757 206.228 310.971 206.031 311.263L205.28 312.375L208.007 314.22ZM202.005 310.156L204.013 311.516L205.674 309.057C205.941 308.661 206.071 308.323 206.063 308.045C206.047 307.762 205.841 307.486 205.445 307.217C205.071 306.964 204.75 306.883 204.481 306.974C204.205 307.06 203.933 307.301 203.665 307.698L202.005 310.156Z" fill="#048C3D"/>
<path d="M214.775 303.463C214.312 304.332 213.786 304.983 213.198 305.416C212.609 305.849 211.977 306.075 211.302 306.093C210.627 306.112 209.931 305.929 209.214 305.546L204.553 303.058L205.508 301.264L210.038 303.683C210.492 303.925 210.892 304.057 211.239 304.078C211.582 304.087 211.896 303.968 212.181 303.721C212.463 303.462 212.746 303.065 213.03 302.531C213.323 301.981 213.497 301.521 213.551 301.15C213.597 300.776 213.518 300.452 213.315 300.18C213.104 299.904 212.772 299.644 212.318 299.402L207.788 296.983L208.744 295.189L213.405 297.678C214.122 298.061 214.661 298.538 215.021 299.11C215.382 299.681 215.547 300.332 215.516 301.063C215.489 301.786 215.242 302.586 214.775 303.463Z" fill="#048C3D"/>
<path d="M218.331 295.775L217.511 297.635L209.209 293.962L210.03 292.103L218.331 295.775Z" fill="#048C3D"/>
<path d="M220.872 289.228L220.183 291.14L211.646 288.056L212.335 286.144L220.872 289.228ZM215.199 283.591L212.222 291.851L210.502 291.229L213.478 282.97L215.199 283.591Z" fill="#048C3D"/>
<path d="M27.3281 250.972C26.6688 250.972 26.0817 250.854 25.5668 250.62C25.061 250.376 24.6636 250.041 24.3746 249.617C24.0855 249.192 23.941 248.705 23.941 248.154H25.77C25.7971 248.56 25.9507 248.885 26.2307 249.129C26.5107 249.364 26.8855 249.481 27.3552 249.481C27.8429 249.481 28.2223 249.369 28.4933 249.143C28.7642 248.908 28.8997 248.587 28.8997 248.181C28.8997 247.783 28.7416 247.472 28.4255 247.246C28.1094 247.02 27.6713 246.907 27.1113 246.907H26.1223V245.417H27.0029C27.3191 245.417 27.5855 245.367 27.8023 245.268C28.0191 245.169 28.1862 245.029 28.3036 244.848C28.421 244.667 28.4797 244.455 28.4797 244.211C28.4797 243.85 28.3668 243.565 28.141 243.358C27.9152 243.15 27.6081 243.046 27.2197 243.046C26.8404 243.046 26.5333 243.163 26.2984 243.398C26.0726 243.624 25.9552 243.936 25.9462 244.333H24.1172C24.1262 243.8 24.2707 243.326 24.5507 242.911C24.8307 242.486 25.21 242.156 25.6888 241.922C26.1765 241.678 26.7184 241.556 27.3146 241.556C27.9558 241.556 28.5068 241.664 28.9675 241.881C29.4371 242.098 29.7939 242.396 30.0378 242.775C30.2907 243.145 30.4171 243.579 30.4171 244.076C30.4171 244.491 30.2997 244.866 30.0649 245.2C29.83 245.525 29.4913 245.805 29.0487 246.04C29.6268 246.221 30.0694 246.492 30.3765 246.853C30.6836 247.205 30.8371 247.63 30.8371 248.127C30.8371 248.696 30.6881 249.192 30.39 249.617C30.092 250.041 29.681 250.376 29.1571 250.62C28.6423 250.854 28.0326 250.972 27.3281 250.972ZM35.0814 250.972C34.422 250.972 33.8349 250.854 33.3201 250.62C32.8143 250.376 32.4168 250.041 32.1278 249.617C31.8388 249.192 31.6943 248.705 31.6943 248.154H33.5233C33.5504 248.56 33.7039 248.885 33.9839 249.129C34.2639 249.364 34.6388 249.481 35.1084 249.481C35.5962 249.481 35.9755 249.369 36.2465 249.143C36.5175 248.908 36.653 248.587 36.653 248.181C36.653 247.783 36.4949 247.472 36.1788 247.246C35.8626 247.02 35.4246 246.907 34.8646 246.907H33.8755V245.417H34.7562C35.0723 245.417 35.3388 245.367 35.5555 245.268C35.7723 245.169 35.9394 245.029 36.0568 244.848C36.1742 244.667 36.233 244.455 36.233 244.211C36.233 243.85 36.1201 243.565 35.8943 243.358C35.6684 243.15 35.3613 243.046 34.973 243.046C34.5936 243.046 34.2865 243.163 34.0517 243.398C33.8259 243.624 33.7085 243.936 33.6994 244.333H31.8704C31.8794 243.8 32.0239 243.326 32.3039 242.911C32.5839 242.486 32.9633 242.156 33.442 241.922C33.9297 241.678 34.4717 241.556 35.0678 241.556C35.7091 241.556 36.2601 241.664 36.7207 241.881C37.1904 242.098 37.5471 242.396 37.791 242.775C38.0439 243.145 38.1704 243.579 38.1704 244.076C38.1704 244.491 38.053 244.866 37.8181 245.2C37.5833 245.525 37.2446 245.805 36.802 246.04C37.3801 246.221 37.8226 246.492 38.1297 246.853C38.4368 247.205 38.5904 247.63 38.5904 248.127C38.5904 248.696 38.4413 249.192 38.1433 249.617C37.8452 250.041 37.4342 250.376 36.9104 250.62C36.3955 250.854 35.7859 250.972 35.0814 250.972ZM39.6898 246.284C39.6898 244.767 39.9969 243.601 40.6111 242.789C41.2253 241.967 42.0969 241.556 43.2259 241.556C44.3549 241.556 45.2265 241.967 45.8407 242.789C46.464 243.601 46.7756 244.767 46.7756 246.284C46.7756 247.792 46.4685 248.953 45.8543 249.766C45.2491 250.579 44.373 250.985 43.2259 250.985C42.0879 250.985 41.2117 250.579 40.5975 249.766C39.9924 248.953 39.6898 247.792 39.6898 246.284ZM41.6272 246.284C41.6272 247.269 41.7627 248.018 42.0337 248.533C42.3046 249.048 42.702 249.305 43.2259 249.305C43.7498 249.305 44.1472 249.048 44.4182 248.533C44.6982 248.018 44.8382 247.269 44.8382 246.284C44.8382 245.291 44.6982 244.536 44.4182 244.021C44.1472 243.498 43.7498 243.236 43.2259 243.236C42.7111 243.236 42.3137 243.498 42.0337 244.021C41.7627 244.545 41.6272 245.3 41.6272 246.284Z" fill="#03403F"/>
<path d="M31.0201 270.626H29.1369V263.392H30.8711V264.421C31.133 264.051 31.4401 263.766 31.7924 263.568C32.1447 263.36 32.5601 263.256 33.0388 263.256C33.5356 263.256 33.9646 263.369 34.3259 263.595C34.6963 263.812 34.9717 264.128 35.1524 264.543C35.4414 264.146 35.7756 263.834 36.155 263.608C36.5343 263.374 36.995 263.256 37.5369 263.256C38.2685 263.256 38.8601 263.491 39.3117 263.961C39.7633 264.421 39.9891 265.085 39.9891 265.952V270.626H38.1195V266.548C38.1195 266.034 38.0111 265.636 37.7943 265.356C37.5866 265.067 37.275 264.923 36.8595 264.923C36.6156 264.923 36.3898 264.99 36.1821 265.126C35.9743 265.252 35.8072 265.437 35.6808 265.681C35.5634 265.925 35.5046 266.228 35.5046 266.589V270.626H33.635V266.548C33.635 266.034 33.5266 265.636 33.3098 265.356C33.1021 265.067 32.7905 264.923 32.375 264.923C32.1221 264.923 31.8918 264.99 31.684 265.126C31.4763 265.252 31.3137 265.437 31.1963 265.681C31.0789 265.925 31.0201 266.228 31.0201 266.589V270.626ZM43.4971 270.626H41.6003V260.899H43.4971V270.626Z" fill="#03403F"/>
<path d="M205.293 247.124H209.602L210.143 248.763H204.697L205.293 247.124ZM210.049 250.85L207.447 243.371L204.792 250.85H202.719L206.377 241.122H208.626L212.257 250.85H210.049ZM215.176 250.85H213.279V241.122H215.176V250.85ZM219.913 250.985C219.218 250.985 218.604 250.827 218.071 250.511C217.547 250.195 217.136 249.752 216.838 249.183C216.54 248.614 216.391 247.964 216.391 247.232C216.391 246.51 216.54 245.869 216.838 245.309C217.145 244.74 217.565 244.292 218.098 243.967C218.631 243.642 219.236 243.48 219.913 243.48C220.537 243.48 221.101 243.615 221.607 243.886C222.113 244.148 222.524 244.523 222.84 245.011C223.156 245.489 223.35 246.054 223.422 246.704H221.444C221.399 246.225 221.237 245.846 220.957 245.566C220.686 245.286 220.338 245.146 219.913 245.146C219.588 245.146 219.304 245.232 219.06 245.403C218.825 245.575 218.64 245.814 218.504 246.121C218.378 246.429 218.315 246.799 218.315 247.232C218.315 247.657 218.378 248.027 218.504 248.343C218.64 248.66 218.825 248.903 219.06 249.075C219.304 249.238 219.588 249.319 219.913 249.319C220.347 249.319 220.695 249.183 220.957 248.912C221.228 248.632 221.39 248.249 221.444 247.761H223.422C223.359 248.42 223.169 248.994 222.853 249.481C222.537 249.96 222.131 250.331 221.634 250.592C221.137 250.854 220.564 250.985 219.913 250.985ZM226.681 249.644C226.681 250.014 226.564 250.321 226.329 250.565C226.094 250.8 225.791 250.918 225.421 250.918C225.051 250.918 224.744 250.8 224.5 250.565C224.265 250.321 224.148 250.014 224.148 249.644C224.148 249.265 224.265 248.958 224.5 248.723C224.744 248.479 225.051 248.357 225.421 248.357C225.791 248.357 226.094 248.479 226.329 248.723C226.564 248.958 226.681 249.265 226.681 249.644Z" fill="#03403F"/>
<path d="M208.019 270.762C207.369 270.762 206.782 270.635 206.258 270.383C205.743 270.13 205.332 269.786 205.025 269.353C204.718 268.91 204.555 268.405 204.537 267.836H206.42C206.474 268.233 206.642 268.54 206.922 268.757C207.211 268.974 207.572 269.082 208.005 269.082C208.376 269.082 208.674 269.014 208.9 268.879C209.125 268.734 209.288 268.554 209.387 268.337C209.487 268.111 209.536 267.876 209.536 267.632C209.536 267.388 209.482 267.158 209.374 266.941C209.265 266.725 209.094 266.544 208.859 266.399C208.624 266.255 208.322 266.183 207.951 266.183C207.59 266.183 207.274 266.259 207.003 266.413C206.732 266.566 206.529 266.797 206.393 267.104L204.849 266.603L205.648 261.468H210.945V263.148H207.016L206.732 265.017C206.958 264.864 207.202 264.756 207.464 264.692C207.725 264.62 207.992 264.584 208.263 264.584C208.994 264.584 209.595 264.728 210.065 265.017C210.544 265.306 210.9 265.686 211.135 266.156C211.37 266.625 211.487 267.117 211.487 267.632C211.487 268.021 211.415 268.405 211.271 268.784C211.126 269.154 210.905 269.488 210.607 269.786C210.318 270.085 209.956 270.324 209.523 270.505C209.098 270.676 208.597 270.762 208.019 270.762ZM207.423 285.077C206.854 285.077 206.344 284.95 205.892 284.697C205.449 284.436 205.097 284.088 204.835 283.654C204.582 283.221 204.456 282.746 204.456 282.232C204.456 281.708 204.582 281.234 204.835 280.809C205.097 280.376 205.449 280.032 205.892 279.779C206.344 279.517 206.854 279.387 207.423 279.387C207.992 279.387 208.498 279.517 208.94 279.779C209.392 280.032 209.744 280.376 209.997 280.809C210.259 281.234 210.39 281.708 210.39 282.232C210.39 282.746 210.259 283.221 209.997 283.654C209.744 284.088 209.392 284.436 208.94 284.697C208.498 284.95 207.992 285.077 207.423 285.077ZM207.423 283.749C207.685 283.749 207.924 283.695 208.141 283.586C208.358 283.469 208.529 283.297 208.656 283.072C208.782 282.837 208.845 282.557 208.845 282.232C208.845 281.888 208.782 281.608 208.656 281.392C208.529 281.166 208.358 280.999 208.141 280.89C207.924 280.773 207.685 280.714 207.423 280.714C207.17 280.714 206.931 280.773 206.705 280.89C206.488 280.999 206.312 281.166 206.176 281.392C206.05 281.608 205.987 281.888 205.987 282.232C205.987 282.557 206.05 282.837 206.176 283.072C206.312 283.297 206.488 283.469 206.705 283.586C206.931 283.695 207.17 283.749 207.423 283.749ZM209.672 288.626H208.168L213.371 279.468H214.874L209.672 288.626ZM215.85 288.748C215.281 288.748 214.771 288.622 214.319 288.369C213.876 288.107 213.524 287.759 213.262 287.326C213.009 286.892 212.883 286.418 212.883 285.903C212.883 285.379 213.009 284.905 213.262 284.481C213.524 284.047 213.876 283.704 214.319 283.451C214.771 283.189 215.281 283.058 215.85 283.058C216.419 283.058 216.925 283.189 217.367 283.451C217.819 283.704 218.171 284.047 218.424 284.481C218.686 284.905 218.817 285.379 218.817 285.903C218.817 286.418 218.686 286.892 218.424 287.326C218.171 287.759 217.819 288.107 217.367 288.369C216.925 288.622 216.419 288.748 215.85 288.748ZM215.85 287.407C216.112 287.407 216.351 287.353 216.568 287.245C216.785 287.127 216.956 286.956 217.083 286.73C217.218 286.504 217.286 286.228 217.286 285.903C217.286 285.56 217.218 285.28 217.083 285.063C216.956 284.837 216.785 284.67 216.568 284.562C216.351 284.445 216.112 284.386 215.85 284.386C215.597 284.386 215.358 284.445 215.132 284.562C214.915 284.67 214.739 284.837 214.603 285.063C214.477 285.28 214.414 285.56 214.414 285.903C214.414 286.228 214.477 286.504 214.603 286.73C214.739 286.956 214.915 287.127 215.132 287.245C215.358 287.353 215.597 287.407 215.85 287.407Z" fill="#03403F"/>
<path d="M97.101 285.41C95.8327 285.41 94.6457 285.191 93.54 284.751C92.4505 284.296 91.4911 283.662 90.6618 282.849C89.8488 282.036 89.2146 281.068 88.7593 279.946C88.304 278.808 88.0764 277.564 88.0764 276.215C88.0764 274.914 88.2959 273.719 88.7349 272.629C89.174 271.54 89.7919 270.58 90.5886 269.751C91.3854 268.922 92.3204 268.288 93.3936 267.849C94.4831 267.393 95.6701 267.166 96.9547 267.166C98.4344 267.166 99.7596 267.442 100.93 267.995C102.117 268.532 103.109 269.28 103.906 270.239C104.719 271.198 105.321 272.32 105.711 273.605H101.345C101.166 273.003 100.873 272.475 100.467 272.019C100.06 271.548 99.5564 271.174 98.9547 270.897C98.3531 270.621 97.6539 270.483 96.8571 270.483C95.914 270.483 95.0603 270.71 94.2961 271.166C93.5481 271.605 92.9546 272.263 92.5155 273.141C92.0928 274.003 91.8814 275.06 91.8814 276.312C91.8814 277.434 92.0846 278.442 92.4911 279.337C92.8977 280.231 93.4993 280.947 94.2961 281.483C95.1091 282.003 96.101 282.264 97.2718 282.264C98.1336 282.264 98.8816 282.109 99.5157 281.8C100.166 281.475 100.695 281.036 101.101 280.483C101.524 279.914 101.817 279.272 101.979 278.556H96.9059V275.605H105.931C105.996 277.036 105.833 278.353 105.443 279.556C105.052 280.743 104.467 281.776 103.687 282.654C102.922 283.532 101.979 284.215 100.857 284.703C99.7515 285.174 98.4994 285.41 97.101 285.41ZM111.611 278.727V285.044H108.221V272.019H111.343V274.532C111.831 273.702 112.538 273.052 113.465 272.58C114.392 272.109 115.376 271.873 116.416 271.873V275.385C115.473 275.32 114.636 275.369 113.904 275.532C113.188 275.678 112.627 276.011 112.221 276.532C111.814 277.036 111.611 277.768 111.611 278.727ZM123.741 285.264C122.44 285.264 121.293 284.987 120.302 284.434C119.326 283.865 118.57 283.069 118.033 282.044C117.497 281.02 117.228 279.833 117.228 278.483C117.228 277.182 117.505 276.028 118.058 275.02C118.61 274.011 119.375 273.223 120.35 272.654C121.326 272.068 122.44 271.776 123.692 271.776C124.716 271.776 125.643 271.971 126.472 272.361C127.318 272.735 128.025 273.271 128.595 273.971C129.164 274.67 129.57 275.483 129.814 276.41C130.058 277.32 130.099 278.304 129.936 279.361H119.228V277.215H126.351C126.318 276.304 126.05 275.589 125.546 275.068C125.058 274.532 124.416 274.263 123.619 274.263C122.985 274.263 122.448 274.426 122.009 274.751C121.57 275.076 121.228 275.556 120.985 276.19C120.757 276.808 120.643 277.572 120.643 278.483C120.643 279.377 120.757 280.133 120.985 280.751C121.212 281.369 121.554 281.841 122.009 282.166C122.464 282.491 123.017 282.654 123.668 282.654C124.416 282.654 125.033 282.475 125.521 282.117C126.009 281.76 126.351 281.264 126.546 280.629H129.912C129.538 282.093 128.814 283.231 127.741 284.044C126.668 284.857 125.334 285.264 123.741 285.264ZM137.627 285.264C136.327 285.264 135.18 284.987 134.188 284.434C133.213 283.865 132.456 283.069 131.92 282.044C131.383 281.02 131.115 279.833 131.115 278.483C131.115 277.182 131.391 276.028 131.944 275.02C132.497 274.011 133.261 273.223 134.237 272.654C135.213 272.068 136.327 271.776 137.579 271.776C138.603 271.776 139.53 271.971 140.359 272.361C141.205 272.735 141.912 273.271 142.481 273.971C143.05 274.67 143.457 275.483 143.701 276.41C143.945 277.32 143.985 278.304 143.823 279.361H133.115V277.215H140.237C140.205 276.304 139.936 275.589 139.432 275.068C138.944 274.532 138.302 274.263 137.505 274.263C136.871 274.263 136.335 274.426 135.896 274.751C135.457 275.076 135.115 275.556 134.871 276.19C134.644 276.808 134.53 277.572 134.53 278.483C134.53 279.377 134.644 280.133 134.871 280.751C135.099 281.369 135.44 281.841 135.896 282.166C136.351 282.491 136.904 282.654 137.554 282.654C138.302 282.654 138.92 282.475 139.408 282.117C139.896 281.76 140.237 281.264 140.432 280.629H143.798C143.424 282.093 142.701 283.231 141.627 284.044C140.554 284.857 139.221 285.264 137.627 285.264ZM149.484 277.946V285.044H146.093V272.019H149.216V273.873C149.703 273.223 150.272 272.71 150.923 272.337C151.59 271.963 152.354 271.776 153.216 271.776C154.533 271.776 155.598 272.198 156.411 273.044C157.224 273.873 157.63 275.068 157.63 276.629V285.044H154.264V277.776C154.264 276.8 154.069 276.06 153.679 275.556C153.305 275.036 152.736 274.776 151.972 274.776C151.516 274.776 151.094 274.898 150.703 275.141C150.329 275.369 150.029 275.719 149.801 276.19C149.59 276.646 149.484 277.231 149.484 277.946Z" fill="#03403F"/>
<path d="M104.875 308.961H102.119V314.669H98.4112V297.156H104.875C106.306 297.156 107.533 297.376 108.558 297.815C109.598 298.254 110.395 298.904 110.948 299.766C111.517 300.628 111.802 301.701 111.802 302.986C111.802 304.254 111.517 305.335 110.948 306.23C110.395 307.124 109.598 307.807 108.558 308.278C107.533 308.734 106.306 308.961 104.875 308.961ZM104.85 300.278H102.119V305.839H104.85C105.891 305.839 106.696 305.587 107.265 305.083C107.834 304.563 108.119 303.872 108.119 303.01C108.119 302.148 107.834 301.481 107.265 301.01C106.696 300.522 105.891 300.278 104.85 300.278ZM119.45 314.888C118.149 314.888 117.003 314.612 116.011 314.059C115.036 313.49 114.279 312.693 113.743 311.669C113.206 310.644 112.938 309.457 112.938 308.108C112.938 306.807 113.214 305.652 113.767 304.644C114.32 303.636 115.084 302.847 116.06 302.278C117.036 301.693 118.149 301.4 119.401 301.4C120.426 301.4 121.353 301.595 122.182 301.986C123.028 302.36 123.735 302.896 124.304 303.595C124.873 304.295 125.28 305.108 125.524 306.034C125.768 306.945 125.808 307.929 125.646 308.986H114.938V306.839H122.06C122.028 305.929 121.759 305.213 121.255 304.693C120.767 304.156 120.125 303.888 119.328 303.888C118.694 303.888 118.158 304.051 117.719 304.376C117.279 304.701 116.938 305.181 116.694 305.815C116.466 306.433 116.353 307.197 116.353 308.108C116.353 309.002 116.466 309.758 116.694 310.376C116.922 310.994 117.263 311.465 117.719 311.791C118.174 312.116 118.727 312.279 119.377 312.279C120.125 312.279 120.743 312.1 121.231 311.742C121.719 311.384 122.06 310.888 122.255 310.254H125.621C125.247 311.718 124.524 312.856 123.45 313.669C122.377 314.482 121.044 314.888 119.45 314.888ZM135.673 314.669V313.059C135.25 313.661 134.713 314.124 134.063 314.449C133.412 314.758 132.64 314.913 131.746 314.913C130.396 314.913 129.307 314.547 128.477 313.815C127.648 313.083 127.233 312.108 127.233 310.888C127.233 309.62 127.738 308.652 128.746 307.986C129.754 307.319 131.201 306.986 133.087 306.986C133.461 306.986 133.819 307.002 134.16 307.034C134.502 307.051 134.868 307.083 135.258 307.132V306.352C135.258 305.62 135.063 305.051 134.673 304.644C134.282 304.238 133.73 304.034 133.014 304.034C132.282 304.034 131.705 304.238 131.282 304.644C130.86 305.051 130.616 305.62 130.551 306.352H127.502C127.567 305.343 127.835 304.473 128.307 303.742C128.794 302.994 129.437 302.416 130.234 302.01C131.047 301.603 131.973 301.4 133.014 301.4C134.721 301.4 136.047 301.847 136.99 302.742C137.949 303.636 138.429 304.88 138.429 306.473V314.669H135.673ZM130.429 310.791C130.429 311.327 130.608 311.758 130.965 312.083C131.339 312.409 131.843 312.571 132.478 312.571C133.339 312.571 134.014 312.352 134.502 311.913C135.006 311.457 135.258 310.856 135.258 310.108V309.181C134.868 309.116 134.518 309.075 134.209 309.059C133.9 309.026 133.599 309.01 133.307 309.01C132.364 309.01 131.648 309.156 131.16 309.449C130.673 309.742 130.429 310.189 130.429 310.791ZM144.741 308.352V314.669H141.35V301.644H144.473V304.156C144.96 303.327 145.668 302.677 146.595 302.205C147.521 301.733 148.505 301.498 149.546 301.498V305.01C148.603 304.945 147.765 304.994 147.034 305.156C146.318 305.303 145.757 305.636 145.351 306.156C144.944 306.66 144.741 307.392 144.741 308.352Z" fill="#03403F"/>
</svg>
